<svg xmlns="http://www.w3.org/2000/svg" width="207.968" height="35.771" viewBox="0 0 207.968 35.771"><g transform="translate(0 0)"><path d="M-1581.221-902c1.469.2,2.946.367,4.406.619,4.845.838,9.385,2.417,13.155,5.717a13.135,13.135,0,0,1,.979,19.09,20.728,20.728,0,0,1-7.377,4.907c-.315.133-.63.262-1.222.508,1.27.655,2.311,1.292,3.426,1.746,2.208.9,4.461,1.694,6.687,2.552a9.844,9.844,0,0,1,1.159.63h-8.319c-2.363-1.12-4.721-2.252-7.1-3.345a1.844,1.844,0,0,0-1.089-.128,48.235,48.235,0,0,1-16.607.556,28.326,28.326,0,0,1-12.246-4.215,13.624,13.624,0,0,1-6.482-9.453.868.868,0,0,0-.152-.26v-3.951a1.924,1.924,0,0,0,.15-.384,13.109,13.109,0,0,1,4.991-8.252,27.882,27.882,0,0,1,12.517-5.513c1.795-.349,3.617-.555,5.427-.825Zm7.164,29.177c1.066-.683,2.133-1.269,3.092-2a12.877,12.877,0,0,0,2.144-18.69,17.334,17.334,0,0,0-8.595-5.561,29.9,29.9,0,0,0-13.269-.672,19.528,19.528,0,0,0-10.357,4.668,12.52,12.52,0,0,0-.666,18.252,17.862,17.862,0,0,0,5.107,3.7,26.964,26.964,0,0,0,14.8,2.192c.89-.09,1.771-.275,2.656-.417-1.57-1.277-3.34-2.069-4.676-3.655,1.9-.149,3.579-.3,5.264-.393a1.817,1.817,0,0,1,.936.339C-1576.468-874.36-1575.335-873.629-1574.057-872.823Z" transform="translate(1612 902)"/><path d="M-623.261-757.514c-.151.133-.3.27-.453.4a1.448,1.448,0,0,1-2.112-.084,1.536,1.536,0,0,1,.081-2.133,1.451,1.451,0,0,1,2.111.083,4.407,4.407,0,0,1,.373.489Zm-2.08.2a.805.805,0,0,0,1.246-.005c.613-.652.667-1.357.1-1.825a1.055,1.055,0,0,0-1.483.017C-626.05-758.624-625.99-757.974-625.341-757.31Z" transform="translate(831.229 789.333)"/><path d="M-1014.764-867.18l-1.659,3.068a5.29,5.29,0,0,1-1.5-.3,25.891,25.891,0,0,0-10.88-2.78,30.569,30.569,0,0,0-11.583,1.4,16.231,16.231,0,0,0-6.054,3.525,8.678,8.678,0,0,0,.61,13.3,19.946,19.946,0,0,0,9.287,3.889,37.4,37.4,0,0,0,17.641-1.374,19.63,19.63,0,0,0,2.212-.891c.432-.2.781-.267,1.131.221-.174.649-.359,1.342-.587,2.19-1.172.276-2.4.618-3.647.85a60.186,60.186,0,0,1-22.712.13,25.887,25.887,0,0,1-8.879-3.379c-2.224-1.391-4.127-3.121-4.853-5.737a8.807,8.807,0,0,1,2.708-9.256,21.133,21.133,0,0,1,8.207-4.529,46.85,46.85,0,0,1,14.544-2.039,71.429,71.429,0,0,1,15.07,1.409c.2.043.407.079.606.135A2.068,2.068,0,0,1-1014.764-867.18Z" transform="translate(1172.115 875.784)"/><path d="M-797.75-841.412H-804.9l-7.253-9.283c-4.228-.061-8.451-.144-12.675-.169-1.348-.008-2.7.156-4.047.2a1.837,1.837,0,0,0-1.481.789c-2.158,2.746-4.525,5.336-6.223,8.472h-5.461a308.606,308.606,0,0,0,21.806-24.775c.283-.015.59-.043.9-.045.274,0,.548.027.591.03Zm-29.828-11.839.141.3a115.822,115.822,0,0,0,13.271-.131l-6.711-7.963Z" transform="translate(1002.168 873.66)"/><path d="M-1321.284-842.506h-7.021a171.173,171.173,0,0,0,.259-22.788H-1343.2v-2.311c5.941.094,11.922.263,17.9.264,5.954,0,11.908-.166,17.91-.259v2.374l-13.94-.235c-.3,3.912-.3,7.708-.261,11.5S-1321.393-846.367-1321.284-842.506Z" transform="translate(1399.104 874.758)"/><path d="M-1133.823-866.267h7.11a156.06,156.06,0,0,0-.015,24.787h-7.081A175.972,175.972,0,0,0-1133.823-866.267Z" transform="translate(1233.269 873.698)"/><path d="M-620.779-754.6l-.736-.554-.53.554v-1.749l1.122.061Zm-.683-1.036a1.086,1.086,0,0,0,.2-.224c.015-.033-.056-.149-.077-.147a1.059,1.059,0,0,0-.24.085Z" transform="translate(827.924 786.64)"/></g></svg>