<svg xmlns="http://www.w3.org/2000/svg" width="224.699" height="28.25" viewBox="0 0 224.699 28.25"><g transform="translate(0 0)"><path d="M-403.615,496.233c-1.216.013-2.436-.026-3.648.055a1.637,1.637,0,0,1-1.795-1.089c-2.146-4.4-4.349-8.772-6.534-13.152q-1.858-3.725-3.721-7.446c-.12-.239-.265-.466-.4-.7l-.207.037v22.243H-423.8v-27.22c.351-.031.651-.078.951-.08,1.279-.008,2.559.026,3.837-.012a1.3,1.3,0,0,1,1.375.836q4.744,9.6,9.548,19.174a1.167,1.167,0,0,0,.394.463c.115-1.685.106-3.362.108-5.039s0-3.369,0-5.054q0-2.574,0-5.147c0-1.679,0-3.357,0-5.21h3.972Z" transform="translate(628.315 -468.464)"/><path d="M-1516,487.036l3.983-.9c.188.338.371.654.542.977a7.431,7.431,0,0,0,3.442,3.567,7.771,7.771,0,0,0,6.1.151,3.935,3.935,0,0,0,2.413-5.023,2.932,2.932,0,0,0-1.765-1.948c-1.522-.532-3.085-.957-4.651-1.347a18.354,18.354,0,0,1-5.176-1.839,7.3,7.3,0,0,1-2.894-9.525,6.693,6.693,0,0,1,2.547-2.8,11.908,11.908,0,0,1,12.494.391,9.323,9.323,0,0,1,3.078,4.043,5.151,5.151,0,0,1,.172.769l-3.964,1.007c-.256-.482-.448-.871-.664-1.245a6.121,6.121,0,0,0-8.319-2.132,3.314,3.314,0,0,0-1.642,3.063,2.827,2.827,0,0,0,1.846,2.792,29.1,29.1,0,0,0,3.936,1.141,24.844,24.844,0,0,1,5.282,1.54,7.714,7.714,0,0,1,3.657,10.732,7.01,7.01,0,0,1-3.163,3.092,13.84,13.84,0,0,1-11.344.472,9.57,9.57,0,0,1-5.2-5.013c-.234-.471-.477-.937-.716-1.406Z" transform="translate(1516 -466.756)"/><path d="M-1071.016,496.626h-4.426V484.22c-3.8-.027-7.479-.012-11.281-.011v12.408h-4.441V469.423h4.406v10.662h11.266c.049-3.525.008-7.057,0-10.675h4.471Z" transform="translate(1170.714 -468.902)"/><path d="M-928.939,496.231c-1.47,0-2.8.033-4.128-.035-.208-.011-.474-.453-.573-.743-.606-1.769-1.171-3.553-1.753-5.331-.135-.412-.286-.82-.447-1.279-.3-.027-.57-.074-.843-.074-2.653-.006-5.305.015-7.958-.02a1.046,1.046,0,0,0-1.194.876c-.537,1.791-1.139,3.562-1.719,5.34-.125.383-.267.761-.426,1.212H-951.8c.1-.4.152-.728.252-1.039q3.314-10.232,6.635-20.461.778-2.4,1.541-4.808c.309-.969.33-.991,1.385-1,1.123-.005,2.247.026,3.37-.013a1,1,0,0,1,1.142.827c1.192,3.742,2.42,7.474,3.636,11.209q2.329,7.159,4.654,14.32C-929.09,495.5-929.042,495.792-928.939,496.231Zm-11.638-22.015-.251,0-3.517,10.868h7.308Z" transform="translate(1057.443 -468.454)"/><path d="M-558.311,488.891H-568c-.373,1.12-.75,2.234-1.115,3.351s-.739,2.249-1.082,3.382a.9.9,0,0,1-1.023.728c-.957-.034-1.916-.009-3.033-.009.123-.529.183-.91.3-1.272q3.636-11.247,7.283-22.489c.317-.978.6-1.968.966-2.928.1-.272.418-.648.648-.656,1.581-.058,3.166-.03,4.844-.03l8.824,27.114a11.839,11.839,0,0,1-4.5.123Zm-4.752-14.654h-.219c-1.145,3.627-2.39,7.223-3.5,10.921h7.266Z" transform="translate(750.597 -468.537)"/><path d="M-1361.325,496.337c-1.5,0-2.8.04-4.1-.036-.234-.014-.538-.471-.645-.781-.629-1.827-1.207-3.671-1.807-5.508-.115-.351-.25-.7-.392-1.089-.342-.022-.647-.057-.953-.058-2.59,0-5.18.016-7.77-.017a1.1,1.1,0,0,0-1.273.9c-.538,1.823-1.154,3.623-1.742,5.431-.115.352-.245.7-.384,1.093h-3.894l8.839-27.3c1.662,0,3.247-.006,4.831,0,.477,0,.576.383.7.752.944,2.906,1.9,5.807,2.849,8.713q2.732,8.405,5.453,16.815C-1361.526,495.55-1361.459,495.844-1361.325,496.337Zm-11.656-21.982-.274-.02c-1.162,3.589-2.324,7.178-3.507,10.829h7.3C-1370.656,481.49-1371.818,477.923-1372.981,474.355Z" transform="translate(1408.951 -468.551)"/><path d="M-701.833,468.955h4.43c.018.375.047.676.046.977-.009,5.647-.036,11.293-.016,16.94a10.6,10.6,0,0,0,.349,2.675,4,4,0,0,0,3.288,3.089,10.887,10.887,0,0,0,3.244.14,4.648,4.648,0,0,0,4.057-4.07,13.4,13.4,0,0,0,.222-2.322c.011-5.428-.006-10.857-.014-16.285,0-.339,0-.677,0-1.143a27.9,27.9,0,0,1,3.854-.047c.041.4.1.733.1,1.061q-.011,8.142-.041,16.285a14.4,14.4,0,0,1-.535,4.345,7.969,7.969,0,0,1-6.034,5.682,13.369,13.369,0,0,1-7.654-.314,7.435,7.435,0,0,1-4.99-6.14,19.554,19.554,0,0,1-.319-3.438c-.043-5.491-.038-10.981-.047-16.472C-701.891,469.641-701.859,469.365-701.833,468.955Z" transform="translate(854.332 -468.459)"/><path d="M-1220.252,475.5l-4.237.929c-.153-.4-.254-.687-.372-.967-.338-.8-.641-1.625-1.035-2.4-2.012-3.96-7.412-3.3-9.27-.171a10.951,10.951,0,0,0-1.4,4.231,23.182,23.182,0,0,0,.389,9.1,7.632,7.632,0,0,0,2.206,3.838c1.907,1.72,6.253,1.908,8.009-1.194a21.325,21.325,0,0,0,1.118-2.561c.161-.4.248-.828.413-1.4l4.044.965a6.725,6.725,0,0,1-.123.807c-.825,2.832-2.156,5.331-4.79,6.89a10.244,10.244,0,0,1-13.475-2.98,16.121,16.121,0,0,1-2.674-7.4,19.077,19.077,0,0,1,1.247-9.908,10.643,10.643,0,0,1,13.927-5.8,9.494,9.494,0,0,1,5.15,5.411C-1220.785,473.685-1220.572,474.531-1220.252,475.5Z" transform="translate(1292.986 -466.697)"/><path d="M-806.11,496.657v-3.524c.362,0,.69-.013,1.015,0,1.026.049,2.052.164,3.077.151a2.9,2.9,0,0,0,3.011-2.2,10.519,10.519,0,0,0,.446-2.939c.033-5.8,0-11.6,0-17.406,0-.425.038-.851.062-1.33h4.4c.021.388.052.691.052.993-.006,5.865,0,11.729-.037,17.594a17.065,17.065,0,0,1-.3,3.342,6.688,6.688,0,0,1-6.12,5.672A18.132,18.132,0,0,1-806.11,496.657Z" transform="translate(939.037 -468.9)"/></g></svg>