<svg xmlns="http://www.w3.org/2000/svg" width="193.05" height="41.716" viewBox="0 0 193.05 41.716"><g transform="translate(-202 -294.902)"><path d="M202,295.85h16.861v5.794H208.374v11.3H216.6v5.794h-8.227v17.671H202Z" transform="translate(0 -0.369)"/><path d="M258.206,295.85h8.633l6.605,40.558h-6.373l-1.159-8.054v.116h-7.242l-1.159,7.938H251.6Zm6.952,27.116-2.838-20.047H262.2l-2.781,20.047Z" transform="translate(-19.299 -0.369)"/><path d="M315.142,295.85h17.382v5.794H321.516v10.719h8.748v5.795h-8.748v12.456h11.008v5.795H315.142Z" transform="translate(-44.021 -0.369)"/><path d="M369.579,295.85h6.431l4.172,31.461h.116l4.171-31.461h5.851l-6.141,40.558H375.72Z" transform="translate(-65.202 -0.369)"/><path d="M431.317,295.85H448.7v5.794H437.691v10.719h8.748v5.795h-8.748v12.456H448.7v5.795H431.317Z" transform="translate(-89.223 -0.369)"/><path d="M489.268,333.982q-2.376-2.636-2.375-7.562V324.1h6.025v2.781q0,3.94,3.3,3.94a3.109,3.109,0,0,0,2.463-.955,4.655,4.655,0,0,0,.839-3.1,8.6,8.6,0,0,0-1.158-4.49,21.5,21.5,0,0,0-4.287-4.664,25.653,25.653,0,0,1-5.5-6.287,12.821,12.821,0,0,1-1.563-6.344q0-4.808,2.433-7.445t7.069-2.636q4.576,0,6.924,2.636t2.347,7.561v1.681h-6.026v-2.086a4.662,4.662,0,0,0-.81-3.042,2.943,2.943,0,0,0-2.376-.956q-3.186,0-3.187,3.882a7.654,7.654,0,0,0,1.188,4.114,22.654,22.654,0,0,0,4.317,4.635,23.869,23.869,0,0,1,5.5,6.315,14.024,14.024,0,0,1,1.507,6.663q0,4.983-2.463,7.648t-7.156,2.665Q491.643,336.618,489.268,333.982Z" transform="translate(-110.847)"/></g></svg>