<svg xmlns="http://www.w3.org/2000/svg" width="338.861" height="83.004" viewBox="0 0 338.861 83.004"><g transform="translate(3027.612 2124.34)"><g transform="translate(-3027.612 -2124.34)"><path d="M-2592.505-2007.819c-1.629-.364-3.277-.665-4.885-1.106a18.9,18.9,0,0,1-7.045-3.349c-4.665-3.761-4.43-9.778.646-12.959a29.552,29.552,0,0,1,4.791-2.048,10.5,10.5,0,0,1,1.427-.38,35.183,35.183,0,0,1-4.527-2.485,6.942,6.942,0,0,1-.768-10.513,18.747,18.747,0,0,1,3.322-2.382,18.532,18.532,0,0,1,2.181-1.021,8.2,8.2,0,0,0-.925-.926c-7.819-5.579-7.627-18.415,2.374-22.828a20.373,20.373,0,0,1,19.712,1.185,25.285,25.285,0,0,1,2.63,2.112c.822-1.1,1.572-2.251,2.474-3.271,2.041-2.3,4.479-3.395,7.679-2.631,3.54.845,4.811,5.628,2.09,8.43-1.478,1.523-3.429,2.076-6.005,1.9a3.872,3.872,0,0,0,1.515-3.324,2.242,2.242,0,0,0-2.356-2.345c-1.809-.114-3.045.541-4.436,2.4.147.343.283.75.485,1.123a13.382,13.382,0,0,1-8.244,19.428,23.346,23.346,0,0,1-13.466.09c-.48-.136-.953-.3-1.724-.536a19.518,19.518,0,0,0-3,2.125,3.417,3.417,0,0,0,1.579,5.888,12.634,12.634,0,0,0,3.321.437c4.811.046,9.623,0,14.434.027a22.544,22.544,0,0,1,9.108,1.793c7.3,3.225,8,11.723,4.028,17.005-2.625,3.493-6.269,5.447-10.339,6.7-1.949.6-3.964.983-5.948,1.465Zm7.087-19.881c-2.551.16-5.181.193-7.774.52-3.218.4-5.881,1.817-6.973,5.125a8.6,8.6,0,0,0,4.265,10.474c3.988,2.212,8.293,2.1,12.6,1.7a19.434,19.434,0,0,0,7.51-2.163c3.924-2.125,5.54-4.787,5.019-9.309a6.079,6.079,0,0,0-1.822-3.788,7.789,7.789,0,0,0-4.906-2.065C-2580.1-2027.454-2582.723-2027.541-2585.418-2027.7Zm-10.082-28.485a16.6,16.6,0,0,0,1.859,8.629,7.076,7.076,0,0,0,6.917,3.862c2.955-.129,4.832-1.681,6.224-4.1a14.433,14.433,0,0,0,1.692-6.052,16.557,16.557,0,0,0-2.2-10.741,7.331,7.331,0,0,0-12.558.527A15.711,15.711,0,0,0-2595.5-2056.185Z" transform="translate(2765.455 2090.823)" fill="#fff"/><path d="M-3027.612-2124.34h13.135c0,13.094,0,26.024,0,39.1,3.053.454,5.84.4,8.111-1.839,1.375-1.355,2.657-2.8,3.97-4.222q2.1-2.263,4.177-4.544a3.875,3.875,0,0,0,1.049-2.718,2.83,2.83,0,0,0-1.4-2.668c-.357-.212-.693-.461-1.117-.745,1.4-.414,12.815-.523,15.546-.16a4.346,4.346,0,0,1-.975.606,21.561,21.561,0,0,0-9.95,6.052c-1.584,1.589-3.084,3.262-4.616,4.9-1.487,1.594-2.966,3.2-4.536,4.889a10.63,10.63,0,0,0,.638,1.063q6.039,7.859,12.1,15.7c2.4,3.091,5.171,5.746,9,7.041a6.9,6.9,0,0,1,.877.454c-1.365.432-11.287.558-14.292.223-3.794-7.23-9.437-13.133-14.051-19.76a3.778,3.778,0,0,0-4.333-1.677,7.019,7.019,0,0,0-.193,1.179c-.008,4.3.042,8.6,0,12.9-.032,3.166,1.075,5.577,4.143,6.849a1.242,1.242,0,0,1,.311.206c.04.033.044.107.064.163-1.3.347-13.969.456-17.095.122a5.02,5.02,0,0,1,.859-.663c2.6-1.141,3.677-3.23,3.771-5.939q.048-1.4.048-2.8,0-21.961,0-43.921c0-.872.007-1.746-.057-2.615a7.087,7.087,0,0,0-5.188-6.793Z" transform="translate(3027.612 2124.34)" fill="#fff"/><path d="M-2244.5-2025.9h-17.193l-.1-.247c.445-.282.87-.6,1.337-.839a5.532,5.532,0,0,0,3.023-4.832c.076-.868.1-1.742.1-2.614q.01-11.684,0-23.367a22.745,22.745,0,0,0-.1-2.613,6.683,6.683,0,0,0-3.183-5.232,7.606,7.606,0,0,1-1.517-1.129,14.265,14.265,0,0,1,3.971-.28c1.438-.024,2.876-.005,4.314-.005h4.3c.219,3.455.007,6.737.128,9.986a58.111,58.111,0,0,1,3.158-5.232,13.426,13.426,0,0,1,11.126-5.548,14.094,14.094,0,0,1,7.73,1.8c3.348,2.023,4.938,5.2,5.672,8.857a24.519,24.519,0,0,1,.4,4.635c.043,6.107.017,12.213.02,18.32a19.528,19.528,0,0,0,.047,2.055c.267,2.518,1.313,4.525,3.789,5.56a3.233,3.233,0,0,1,.623.406c.036.026.025.118.056.3h-17.1a12.364,12.364,0,0,1,1.248-.886,5.975,5.975,0,0,0,3.366-5.426c.021-.436.039-.872.039-1.308,0-6.6-.008-13.21.007-19.815a12.8,12.8,0,0,0-1.149-5.433,7.311,7.311,0,0,0-6.781-4.48c-4.318-.227-7.437,1.67-9.654,5.248a18.156,18.156,0,0,0-2.57,9.251c-.134,5.168-.055,10.343-.012,15.514a12.332,12.332,0,0,0,.432,2.944,4.852,4.852,0,0,0,2.306,3.057C-2246.054-2026.885-2245.447-2026.488-2244.5-2025.9Z" transform="translate(2549.638 2089.067)" fill="#fff"/><path d="M-2351.267-2050.293a28.233,28.233,0,0,0-.688-9.068,8.5,8.5,0,0,0-8.65-6.605,12.643,12.643,0,0,0-4.952.773,6.094,6.094,0,0,0-3.592,7.338,3.165,3.165,0,0,0,3.453,2.741c.359.009.719,0,1.182,0a3.714,3.714,0,0,1-1.845,3.158,6.227,6.227,0,0,1-9.166-3.618,7.987,7.987,0,0,1,1.875-7.288,14.1,14.1,0,0,1,9.972-4.939,29.948,29.948,0,0,1,10.232.64c6.622,1.679,10.284,6.384,10.248,13.1q-.05,9.154-.093,18.308a24.131,24.131,0,0,0,.074,2.426c.326,3.371,2.5,5.1,5.873,4.689.476-.058.945-.178,1.618-.308a3.3,3.3,0,0,1-.316.777,9.83,9.83,0,0,1-10.831,2.292c-3.008-1.459-3.884-4.192-4.246-7.208-.059-.49-.054-.989-.1-1.863a16.29,16.29,0,0,1-3.937,5.757,15.094,15.094,0,0,1-16.743,2.561c-6.665-3.075-7.477-13-1.432-17.274a25.2,25.2,0,0,1,9.124-3.738c3.824-.876,7.7-1.537,11.549-2.3C-2352.237-2050.017-2351.828-2050.147-2351.267-2050.293Zm-.16,2.23c-1.26.2-2.171.315-3.069.492-3.241.638-6.5,1.193-9.484,2.749-3.822,1.99-5.413,4.966-5.033,9.173.33,3.656,2.009,6.216,6.845,6.34,4.4.113,8.017-3.072,9.494-6.445C-2350.976-2039.631-2351.659-2043.689-2351.427-2048.063Z" transform="translate(2621.615 2089.141)" fill="#fff"/><path d="M-2865.075-2028.988a17.9,17.9,0,0,1-1.309,1.527,9.425,9.425,0,0,1-8.562,2.166c-3.091-.624-5.253-2.871-5.734-7.192-.085-.77-.012-1.558-.114-2.362a15.54,15.54,0,0,1-6.487,7.55,14.646,14.646,0,0,1-14.512.575,9.127,9.127,0,0,1-5.168-7.919c-.492-5.686,2.636-8.94,6.855-10.869a50.783,50.783,0,0,1,11.7-3.224c2.377-.458,4.761-.884,7.292-1.353.052-3.62.547-7.156-.975-10.539a8.092,8.092,0,0,0-7.724-5.229,17.628,17.628,0,0,0-4.627.467,6.139,6.139,0,0,0-4.5,7.2,3.519,3.519,0,0,0,3.589,3.15c.361.019.72.048,1.174.079a3.948,3.948,0,0,1-2.9,3.592,6.2,6.2,0,0,1-8.262-6.983,9.648,9.648,0,0,1,5.034-7.067,16.177,16.177,0,0,1,7.982-2.406,30.649,30.649,0,0,1,9.484.781c4.771,1.366,8.252,4.089,9.5,9.083a17.331,17.331,0,0,1,.55,3.865c.059,3.487.018,6.978-.04,10.466-.042,2.486-.22,4.971-.245,7.457a19.311,19.311,0,0,0,.317,3.516c.651,3.693,3.217,4.428,5.814,4.068C-2866.476-2028.648-2866.013-2028.782-2865.075-2028.988Zm-15.988-19.062c-1.936.352-3.522.615-5.1.934a27.871,27.871,0,0,0-7.636,2.395,7.951,7.951,0,0,0-4.545,5.6,13.96,13.96,0,0,0,.017,5.148c.606,2.984,2.67,4.452,5.728,4.693,4.812.379,8.859-2.45,10.594-7.221C-2880.679-2040.143-2881.12-2043.95-2881.063-2048.05Z" transform="translate(2952.307 2089.074)" fill="#fff"/><path d="M-2772.343-2025.93h-19.552a5.857,5.857,0,0,1,.95-.735c2.7-1.17,3.674-3.394,3.771-6.136.053-1.493.055-2.988.053-4.482q-.01-10.647-.034-21.294c0-3.427-1.091-6.227-4.462-7.725a1.531,1.531,0,0,1-.416-.361c-.033-.033-.014-.118-.029-.3h12.739v11.45l.292.056c.186-.465.369-.931.559-1.395a23.151,23.151,0,0,1,4.488-7.483,11.318,11.318,0,0,1,10.034-3.479c2.841.333,5.463,2.424,6.045,4.911.67,2.863.154,5.45-2.262,7.4a5.192,5.192,0,0,1-6.629.141c.323-.277.615-.545.926-.789a3.755,3.755,0,0,0,1.4-3.965,3.493,3.493,0,0,0-3.179-2.733,7.107,7.107,0,0,0-6.374,2.458,17.529,17.529,0,0,0-4.333,8.36,34.184,34.184,0,0,0-.839,6.446c-.134,3.544.021,7.1-.051,10.645-.087,4.338,1.879,6.736,5.545,8.136.454.173.9.361,1.353.543Z" transform="translate(2880.529 2089.109)" fill="#fff"/><path d="M-2474.611-2067.025h12.851c.19,2.031.07,4.006.091,5.97s0,3.931.1,5.916a28.352,28.352,0,0,1,3.949-7.8,11.493,11.493,0,0,1,6.978-4.716c3.456-.656,6.755-.349,9.228,2.612a6.981,6.981,0,0,1,.52,7.573,6,6,0,0,1-6.091,3.189,2.573,2.573,0,0,1-2.091-1.138,12.676,12.676,0,0,0,1.169-1.039,3.8,3.8,0,0,0,.868-4.139,3.611,3.611,0,0,0-3.34-2.3c-2.836-.274-4.935,1.066-6.646,3.132a20.024,20.024,0,0,0-4.239,10.023,40.913,40.913,0,0,0-.387,5.384c-.059,3.3-.017,6.6-.016,9.9a7.278,7.278,0,0,0,4.98,7.359c.579.228,1.147.488,1.71.754.085.04.114.2.218.395h-19.562a16.1,16.1,0,0,1,1.406-.975,5.863,5.863,0,0,0,3.251-5.107c.062-.806.063-1.618.063-2.428q.007-11.773,0-23.545c0-.685.015-1.374-.053-2.054a6.838,6.838,0,0,0-3.859-5.98,9.019,9.019,0,0,1-.947-.581C-2474.5-2066.653-2474.5-2066.734-2474.611-2067.025Z" transform="translate(2682.305 2089.127)" fill="#fff"/><path d="M-2683.932-2065.6v2.282c0,8.97-.02,17.941.015,26.911.008,2.048.17,4.1.323,6.143a5.157,5.157,0,0,0,2.909,4.482,5.01,5.01,0,0,1,1.365.991c-5.627.282-11.221.216-16.815.213l-.088-.374c.514-.3,1.015-.635,1.545-.909a4.824,4.824,0,0,0,2.667-3.631,26.628,26.628,0,0,0,.4-4.265q.059-11.119,0-22.239a24.318,24.318,0,0,0-.437-4.258,6.529,6.529,0,0,0-3.117-4.258c-.458-.3-.944-.562-1.473-.875C-2695.452-2065.9-2687.07-2066.05-2683.932-2065.6Z" transform="translate(2820.942 2087.829)" fill="#fff"/><path d="M-2678.088-2112.583a5.2,5.2,0,0,1-5.615,5.208,5.4,5.4,0,0,1-5.371-5.549,5.55,5.55,0,0,1,5.516-5.277A5.349,5.349,0,0,1-2678.088-2112.583Z" transform="translate(2816.222 2120.508)" fill="#fff"/><path d="M-2149.826-2068.308a4.4,4.4,0,0,1,4.637-4.507,4.532,4.532,0,0,1,4.546,4.661,4.542,4.542,0,0,1-4.9,4.489A4.322,4.322,0,0,1-2149.826-2068.308Zm4.553,4.076a4.251,4.251,0,0,0,4.058-3.9,4.244,4.244,0,0,0-4.045-4.111,3.967,3.967,0,0,0-3.97,4.1C-2149.054-2065.668-2147.663-2064.486-2145.273-2064.231Z" transform="translate(2479.503 2092.168)" fill="#fff"/><path d="M-2143.156-2067.791c.761,0,1.371-.019,1.979,0,2.078.077,2.534,1.005,1.4,2.9l1.134,2.379h-1.493l-1.073-2.256a2.828,2.828,0,0,0-.5,2.236h-1.331c0-1.294.008-2.514,0-3.733C-2143.049-2066.687-2143.105-2067.118-2143.156-2067.791Zm1.532,2.632c.961-.167,1.228-.631,1.14-1.245-.073-.516-.343-.948-1.14-.745Z" transform="translate(2475.338 2089.034)" fill="#fff"/></g></g></svg>