<svg xmlns="http://www.w3.org/2000/svg" width="150" height="150" viewBox="0 0 150 150"><g transform="translate(-1331 -1270)"><ellipse cx="75" cy="75" rx="75" ry="75" transform="translate(1331 1270)" fill="#b6d7db" opacity="0.3"/><g transform="translate(1635.905 943.471)"><g transform="translate(-277.392 384.747)"><path d="M-277.322,407.057c51.67-3.944,58.15-13.071,89.29-18.722l9.41,44.881c-30.568,2.4-44.612,15.494-89.29,18.722Z" transform="translate(277.322 -388.335)" fill="#0977c3" fill-rule="evenodd"/><path d="M-267.265,421.076l3.621,17.272a8.3,8.3,0,0,1,4.735,1.355,8.3,8.3,0,0,1,3.4,4.506q5.409-.732,10.65-1.725,5.981-1.138,11.975-2.673c5.72-1.468,11.318-3.2,16.919-4.937,3.555-1.1,7.11-2.2,10.384-3.151,2.373-.687,4.783-1.337,7.253-1.946q2.944-.726,5.911-1.337a8.311,8.311,0,0,1,1.446-4.588,8.308,8.308,0,0,1,3.7-3.008l-3.512-16.754a8.314,8.314,0,0,1-4.627-1.289,8.3,8.3,0,0,1-3.135-3.6q-2.72.728-5.546,1.555c-2.427.708-4.724,1.408-6.958,2.107-4.349,1.361-8.618,2.675-12.821,3.862-4.257,1.2-8.569,2.31-13.048,3.274-4.407.949-8.823,1.754-13.239,2.445q-5.951.929-11.986,1.612a8.322,8.322,0,0,1-1.578,4.24,8.313,8.313,0,0,1-3.54,2.781Zm.912,19.259-4.506-21.488,1.5-.314a5.239,5.239,0,0,0,3.169-2.041,5.256,5.256,0,0,0,.993-3.638l-.155-1.509,1.5-.166c4.4-.489,8.81-1.063,13.218-1.752s8.771-1.483,13.076-2.41c4.329-.932,8.6-2.03,12.86-3.235,4.319-1.219,8.514-2.508,12.743-3.833,2.461-.77,4.811-1.488,7.015-2.13,2.273-.664,4.591-1.308,6.986-1.931l1.5-.39.364,1.514a5.247,5.247,0,0,0,2.31,3.212,5.247,5.247,0,0,0,3.892.7l1.5-.314,4.71,22.468-1.5.314a5.244,5.244,0,0,0-3.271,2.183,5.242,5.242,0,0,0-.845,3.839l.249,1.472-1.457.284q-3.549.691-7.107,1.574-3.458.854-7.124,1.92c-3.67,1.064-7.006,2.1-10.34,3.129-5.657,1.753-11.311,3.5-17.056,4.979q-6.054,1.553-12.152,2.708-6.168,1.174-12.233,1.949l-1.536.2-.174-1.536c-.007-.063-.02-.148-.037-.254l-.048-.241a5.252,5.252,0,0,0-2.273-3.327,5.249,5.249,0,0,0-3.96-.745l-1.5.314Z" transform="translate(276.632 -389.099)" fill="#138fe4" fill-rule="evenodd"/><g transform="translate(18.311 23.619)"><path d="M-254.239,427.983a3.251,3.251,0,0,1,3.849,2.515,3.25,3.25,0,0,1-2.515,3.849,3.251,3.251,0,0,1-3.849-2.515A3.252,3.252,0,0,1-254.239,427.983Z" transform="translate(256.823 -416.178)" fill="#138fe4" fill-rule="evenodd"/><path d="M-191.586,414.846a3.252,3.252,0,0,1,3.849,2.516,3.251,3.251,0,0,1-2.515,3.849A3.251,3.251,0,0,1-194.1,418.7,3.252,3.252,0,0,1-191.586,414.846Z" transform="translate(250.137 -414.776)" fill="#138fe4" fill-rule="evenodd"/></g><path d="M-227.116,407.48A16.831,16.831,0,0,1-207.19,420.5a16.83,16.83,0,0,1-13.019,19.927,16.831,16.831,0,0,1-19.927-13.019,16.83,16.83,0,0,1,13.019-19.926Zm-.17,5.609.58,2.762c-2.431.9-4.475,2.78-3.889,5.572.64,3.051,3.049,3.677,5.815,3.613l1.009,4.809a4.156,4.156,0,0,1-3.539-1.741l-2.24,1.829c1.532,2.274,3.73,2.96,6.363,2.694l.572,2.729,2.578-.54-.57-2.716c3-.949,5.162-3.033,4.5-6.2-.728-3.473-3.519-3.964-6.6-3.807l-.867-4.133a4.292,4.292,0,0,1,3,1.1l2.139-1.737a6.045,6.045,0,0,0-5.7-2.054l-.571-2.722-2.578.541Zm5.165,11.8.942,4.493c1.377-.525,2.366-1.466,2.076-2.852-.256-1.222-1.427-1.642-3.018-1.641Zm-3.25-2.666-.774-3.686a2.138,2.138,0,0,0-1.462,2.358C-227.407,421.846-226.534,422.167-225.371,422.219Z" transform="translate(273.392 -390.339)" fill="#138fe4" fill-rule="evenodd"/><path d="M-217.263,417.971a6.048,6.048,0,0,0-5.7-2.054l-.571-2.722-2.577.54.579,2.763c-2.431.9-4.474,2.78-3.889,5.572.64,3.051,3.05,3.677,5.815,3.613l1.009,4.808a4.151,4.151,0,0,1-3.539-1.741l-2.239,1.829c1.531,2.274,3.729,2.96,6.362,2.694l.573,2.729,2.577-.54-.569-2.716c2.994-.948,5.161-3.032,4.5-6.2-.729-3.473-3.52-3.964-6.6-3.807l-.867-4.133a4.291,4.291,0,0,1,3,1.1l2.14-1.737Zm-2.745,12.054-.942-4.492c1.592,0,2.761.419,3.018,1.641.29,1.386-.7,2.327-2.075,2.851Zm-4.965-10.845.773,3.687c-1.162-.052-2.036-.373-2.236-1.327A2.141,2.141,0,0,1-224.973,419.181Z" transform="translate(272.222 -390.988)" fill="#fff" fill-rule="evenodd"/></g><path d="M-267.959,407.176l-4.07.375c30.877,12.072,56.255,8.09,85.809,18.374l3.244-15.293-2.947-14.058Z" transform="translate(-0.635 -4.467)" fill-rule="evenodd" opacity="0.3"/><g transform="translate(-277.975 354.71)"><path d="M-268.4,354.71c48.836,17.328,58.459,11.61,89.219,19.057l-9.58,44.846c-28.92-10.19-47.064-3.909-89.219-19.057Z" transform="translate(277.975 -354.71)" fill="#0977c3" fill-rule="evenodd"/><path d="M-264.547,371.555l-3.686,17.257a8.305,8.305,0,0,1,3.78,3.157,8.3,8.3,0,0,1,1.283,5.5q5.242,1.522,10.435,2.737,5.931,1.384,12.032,2.409c5.824.975,11.645,1.657,17.469,2.34,3.7.433,7.392.866,10.769,1.327,2.449.332,4.915.714,7.42,1.158q2.985.531,5.946,1.173a8.311,8.311,0,0,1,3.18-3.609,8.311,8.311,0,0,1,4.6-1.251l3.576-16.74a8.318,8.318,0,0,1-3.707-3.054,8.3,8.3,0,0,1-1.407-4.562q-2.782-.437-5.7-.825c-2.507-.336-4.889-.627-7.215-.892-4.527-.517-8.963-1.046-13.287-1.664-4.377-.626-8.77-1.36-13.255-2.292-4.414-.918-8.777-1.971-13.095-3.129q-5.818-1.561-11.611-3.382a8.315,8.315,0,0,1-3.161,3.237,8.31,8.31,0,0,1-4.363,1.109Zm-6.969,17.977,4.587-21.471,1.5.32a5.247,5.247,0,0,0,3.725-.582,5.252,5.252,0,0,0,2.382-2.925l.469-1.442,1.441.456c4.222,1.336,8.485,2.6,12.794,3.754s8.62,2.2,12.931,3.094c4.335.9,8.681,1.625,13.068,2.253,4.442.635,8.8,1.155,13.2,1.658,2.562.293,5,.589,7.276.893,2.348.315,4.727.665,7.17,1.066l1.531.251-.28,1.532a5.245,5.245,0,0,0,.81,3.872,5.243,5.243,0,0,0,3.276,2.214l1.5.32-4.8,22.449-1.5-.32a5.247,5.247,0,0,0-3.876.671,5.246,5.246,0,0,0-2.328,3.168l-.368,1.446-1.447-.33q-3.525-.805-7.136-1.44-3.508-.622-7.291-1.131c-3.786-.515-7.254-.922-10.72-1.328-5.882-.69-11.761-1.379-17.612-2.358q-6.162-1.033-12.207-2.447-6.115-1.427-11.974-3.175l-1.484-.441.463-1.476c.02-.061.042-.143.07-.247l.053-.24a5.249,5.249,0,0,0-.73-3.963,5.247,5.247,0,0,0-3.319-2.286l-1.5-.319Z" transform="translate(277.32 -355.641)" fill="#138fe4" fill-rule="evenodd"/><g transform="translate(17.986 23.663)"><path d="M-253.91,381.272a3.253,3.253,0,0,1,2.5,3.859,3.252,3.252,0,0,1-3.859,2.5,3.251,3.251,0,0,1-2.5-3.858A3.252,3.252,0,0,1-253.91,381.272Z" transform="translate(257.84 -381.2)" fill="#138fe4" fill-rule="evenodd"/><path d="M-191.307,394.645a3.251,3.251,0,0,1,2.5,3.859,3.252,3.252,0,0,1-3.858,2.5,3.252,3.252,0,0,1-2.5-3.859A3.251,3.251,0,0,1-191.307,394.645Z" transform="translate(251.16 -382.627)" fill="#138fe4" fill-rule="evenodd"/></g><path d="M-221.6,374.034a16.83,16.83,0,0,1,12.943,19.975,16.831,16.831,0,0,1-19.975,12.944,16.831,16.831,0,0,1-12.944-19.976A16.83,16.83,0,0,1-221.6,374.034Zm-2.428,5.059-.59,2.76c-2.586-.164-5.218.729-5.814,3.519-.651,3.049,1.3,4.6,3.854,5.66l-1.026,4.8a4.15,4.15,0,0,1-2.531-3.026l-2.789.765c.479,2.7,2.211,4.218,4.725,5.041l-.582,2.727,2.575.55.58-2.713c3.122.347,5.947-.682,6.624-3.848.741-3.47-1.612-5.05-4.488-6.152l.883-4.13a4.286,4.286,0,0,1,2.3,2.221l2.66-.721a6.051,6.051,0,0,0-4.382-4.188l.582-2.719-2.576-.55Zm-.057,12.878-.959,4.489c1.471.078,2.757-.381,3.052-1.766.262-1.222-.638-2.079-2.093-2.723Zm-1.891-3.754.786-3.684a2.14,2.14,0,0,0-2.293,1.564C-227.689,387.051-227.021,387.7-225.978,388.217Z" transform="translate(274.131 -356.732)" fill="#138fe4" fill-rule="evenodd"/><path d="M-216.574,387.2a6.048,6.048,0,0,0-4.382-4.188l.581-2.719-2.576-.55-.589,2.76c-2.586-.164-5.218.729-5.814,3.519-.651,3.049,1.3,4.6,3.854,5.66l-1.026,4.8a4.154,4.154,0,0,1-2.531-3.026l-2.788.766c.478,2.7,2.21,4.217,4.725,5.04l-.582,2.728,2.575.549.58-2.713c3.122.347,5.948-.682,6.624-3.848.741-3.47-1.611-5.05-4.488-6.152l.883-4.13a4.286,4.286,0,0,1,2.3,2.221l2.66-.721Zm-7.393,9.909.958-4.489c1.455.644,2.355,1.5,2.094,2.723-.3,1.385-1.582,1.844-3.052,1.766Zm-.147-11.926-.786,3.684c-1.042-.519-1.711-1.166-1.507-2.12A2.141,2.141,0,0,1-224.114,385.182Z" transform="translate(273.052 -357.381)" fill="#fff" fill-rule="evenodd"/></g></g></g></svg>