<svg xmlns="http://www.w3.org/2000/svg" width="155.845" height="150.001" viewBox="0 0 155.845 150.001"><g transform="translate(-870 -1269.999)"><path d="M75,0A75,75,0,1,1,0,75,75,75,0,0,1,75,0Z" transform="translate(870 1270)" fill="#b6d7db" opacity="0.3"/><g transform="translate(1453.356 1003.292)"><path d="M-558.8,429.6l3.3-2.063,2.5,4-3.3,2.064c-.516.323-1.333-.042-1.815-.812l-.751-1.2C-559.341,430.814-559.312,429.919-558.8,429.6Z" transform="translate(0 -58.075)" fill="#138fe4" fill-rule="evenodd"/><path d="M-506.8,449.553a31.192,31.192,0,0,1-11.673,6.67c-4.644,1.544-10.034-11.11-13.481-20.811-.756-2.124-1.415-4.1-1.958-5.762-.066-.213-.135-.423-.2-.624,1.646-.986,3.465-2.062,4.865-2.9.316.427,3.683-.579,5.383-1.636a11.462,11.462,0,0,1,2.573-1.241c1.246-.391,2.166-.293,2.585.317a11.426,11.426,0,0,1,.965,1.663c1.1,2.431.251,3.991-1.943,5.438,2.6-.372,5.435,2.356,4.062,6.46,2.03-.242,5.088,2.6,3.927,6.015C-508.841,442.993-503.615,446.516-506.8,449.553Z" transform="translate(-9.061 -56.446)" fill="#138fe4" fill-rule="evenodd"/><g transform="translate(-541.452 366.58)"><path d="M-509.232,425.082h0Z" transform="translate(523.407 -423.77)" fill="#0977c3"/><path d="M-527.757,433.132h0Z" transform="translate(530.1 -426.676)" fill="#0977c3"/><path d="M-529.313,427.988a1.5,1.5,0,0,0,.238.194.725.725,0,0,0,.674-.3.468.468,0,0,0,.244.552.536.536,0,0,0,.62-.091l.351.446a.656.656,0,0,0-.588.312.943.943,0,0,1-.021-.128.441.441,0,0,0-.325-.435.5.5,0,0,0-.535.133c-.025.026-.053.048-.107.1a.569.569,0,0,0-.316-.579c-.051,0-.1.008-.152.01a.525.525,0,0,0-.5.355.453.453,0,0,0,.19.529.509.509,0,0,0,.605-.059c.034-.027.068-.056.127-.107a.552.552,0,0,0,.334.57.755.755,0,0,0,.67-.29.506.506,0,0,0,.277.568.743.743,0,0,0-.627.36.429.429,0,0,1,0,.065.46.46,0,0,0,.288.542.541.541,0,0,0,.618-.2,1.009,1.009,0,0,1,.088-.076.5.5,0,0,0,.282.587l-.2.036a.52.52,0,0,0-.431.4.445.445,0,0,0,.263.512.5.5,0,0,0,.577-.111c.056-.054.11-.109.164-.163a.508.508,0,0,0,.311.623.642.642,0,0,0,.648-.292.679.679,0,0,0,.3.6.642.642,0,0,0-.624.335.357.357,0,0,1,.006.063c-.022.293.065.457.288.542a.54.54,0,0,0,.63-.218l.089-.1c-.056.33.022.516.259.618a.552.552,0,0,0,.655-.211.308.308,0,0,1,.058-.04.549.549,0,0,0,.335.591.712.712,0,0,0,.664-.288.55.55,0,0,0,.331.587.714.714,0,0,0,.668-.287.552.552,0,0,0,.331.588.732.732,0,0,0,.673-.29.55.55,0,0,0,.323.588.651.651,0,0,0,.679-.339.574.574,0,0,0-.272-.615.79.79,0,0,0,.624-.313.551.551,0,0,0,.326.587.641.641,0,0,0,.677-.34.568.568,0,0,0-.27-.616.787.787,0,0,0,.624-.313.549.549,0,0,0,.325.588.648.648,0,0,0,.678-.342.645.645,0,0,0-.27-.634.626.626,0,0,0,.625-.342.615.615,0,0,0-.267-.633.634.634,0,0,0,.624-.348.6.6,0,0,0-.266-.632.7.7,0,0,0,.178-.013,3.566,3.566,0,0,0-.385-.1.528.528,0,0,0,.113.081.787.787,0,0,0-.615.309.611.611,0,0,0-.153-.462,3.352,3.352,0,0,0-.525.033,9.058,9.058,0,0,0,1.011-.765.8.8,0,0,0-.209-.341.737.737,0,0,0,.55-.312.768.768,0,0,0,.047.282,4.277,4.277,0,0,0,.537-.692.769.769,0,0,0-.546.3.592.592,0,0,0-.284-.569.748.748,0,0,0,.613-.308l.029-.1a.646.646,0,0,0-.293-.583.68.68,0,0,0,.133-.018.592.592,0,0,0,.074-.01c.015,0,.031,0,.045-.01a.5.5,0,0,0,.192-.108.509.509,0,0,0-.094-.838c.07-.008.139-.011.208-.024a.519.519,0,0,0,.315-.2,5.264,5.264,0,0,0-.214-.733c-.215-.072-.408,0-.654.259l-.024.1a.534.534,0,0,0,.282.564.8.8,0,0,0-.615.31.581.581,0,0,0-.284-.566.766.766,0,0,0,.617-.309l.024-.1a.632.632,0,0,0-.3-.584c.347-.033.58-.185.626-.4q-.145-.285-.323-.586a.681.681,0,0,0-.65.288c-.038-.443-.258-.659-.609-.578a1.161,1.161,0,0,0-.276.134l-.352-.446a.741.741,0,0,0,.605-.309c.018.438.254.663.616.564a1.5,1.5,0,0,0,.333-.184c-.052-.079-.1-.158-.157-.238a1.178,1.178,0,0,0-.563-.426.7.7,0,0,0-.195.182.655.655,0,0,0-.04-.252,3.578,3.578,0,0,0-1.787.18c-.026.008-.053.02-.079.028l.042.084-.45.226-.07-.139c-.3.118-.613.266-.937.433l.072.144-.405.2-.069-.137q-.332.184-.679.4c-.084.052-.174.1-.264.155l.026.05-.369.185-.02-.04c-.318.162-.662.318-1.017.464l.038.075-.365.183-.054-.107c-.35.135-.7.256-1.041.362l.13.259-.4.2-.166-.332c-.958.267-1.73.37-1.874.176l-.009.005.121.316-.463.349a.63.63,0,0,0-.115-.394l-.875.52a.633.633,0,0,0,.245.253c-.084.014-.168.024-.25.044A.494.494,0,0,0-529.313,427.988Zm2.182,2.392a.674.674,0,0,0-.3-.574.734.734,0,0,0,.608-.3.557.557,0,0,0,.281.563A.654.654,0,0,0-527.131,430.38Zm7.742.018-.212-.422.449-.225.211.421Zm.9.579.258.476-.546.275-.162-.475Zm-3.378.135.212.423-.448.225-.212-.422Zm-.078-.745.435-.219.2.4-.435.218Zm-.288,1.747.291.4.218.077.493-.178.288.4-.523.29-.258-.513-.218-.077-.523.289-.257-.512Zm1.128-.051-.215-.428.454-.227.215.427Zm.361-.988-.208-.415.443-.222.208.415Zm.949-2.584.2.4-.422.212-.2-.4Zm-.066-.776.422-.212.2.4-.422.212Zm-.29,1.753.2.4-.433.218-.2-.4Zm.261,2.248.3.418-.523.289-.2-.5Zm.142-.333-.215-.427.454-.228.215.427Zm.719-1.966-.212-.423.447-.224.212.422Zm.357-.979-.214-.427.448-.226.214.427Zm.346-.993-.2-.4.463-.287q.129.238.259.475Zm-.631-1.27-.214-.426.448-.225.213.425Zm-.125.338c.068.135.139.277.208.415l-.433.218-.208-.415Zm-.868-.652-.213-.425.45-.174.193.384Zm-.134.378.191.381-.4.2-.192-.381Zm-.365.993.184.367-.389.195-.183-.366Zm-.358.983c.058.116.119.238.184.366l-.39.2-.184-.366Zm-.357.976.188.374-.4.2-.188-.374Zm-.481-1.715-.168-.334.364-.183.167.335Zm.008.8-.376.189-.174-.348.376-.188Zm-.349.986-.39.2-.183-.365.39-.2Zm-.532.593.2.4-.425.214-.2-.4Zm-.351.957c.067.133.14.28.212.422l-.447.225-.212-.423Zm-.086,1.408-.51.282-.259-.514.5-.177Zm-.561-2.656.2.392-.426.213-.206-.412Zm-.047-.772.391-.2.184.367-.391.2Zm-.306,1.717.214.427-.45.226-.215-.427Zm-.353,1.008.27.4a.8.8,0,0,0-.542.328.627.627,0,0,0-.28-.568Zm-.884-.595-.258-.512.51-.183.193.385Zm.588-1.684c.068.134.139.275.21.418l-.438.22-.21-.418Zm-.06-.748.4-.2.194.386-.4.2Zm-.81.1-.207-.411.431-.193.2.393Zm-.126.341.215.427-.449.225-.215-.427Zm-.351,1.008.269.405a.818.818,0,0,0-.544.321.613.613,0,0,0-.279-.562Zm-.915-.555a.611.611,0,0,0-.279-.561l.567-.166.186.37Zm.3,2.283a.681.681,0,0,0-.31-.577.75.75,0,0,0,.612-.31.6.6,0,0,0,.287.572A.631.631,0,0,0-526.484,431.666Zm.995.293a.662.662,0,0,0-.292-.576.833.833,0,0,0,.588-.247.576.576,0,0,0,.291.507A.649.649,0,0,0-525.49,431.96Zm.647,1.287a.724.724,0,0,0-.307-.581.716.716,0,0,0,.608-.306.615.615,0,0,0,.289.575A.63.63,0,0,0-524.843,433.246Zm1,.3a.7.7,0,0,0-.3-.582.848.848,0,0,0,.593-.252.618.618,0,0,0,.3.518A.633.633,0,0,0-523.844,433.546Zm1,.3a.682.682,0,0,0-.3-.581.818.818,0,0,0,.589-.25.62.62,0,0,0,.3.516A.641.641,0,0,0-522.846,433.844Zm1,.3a.683.683,0,0,0-.3-.581.857.857,0,0,0,.594-.25.564.564,0,0,0,.3.508A.677.677,0,0,0-521.847,434.145Zm.971.289a.563.563,0,0,0-.269-.572.693.693,0,0,0,.6-.3.553.553,0,0,0,.3.558A.905.905,0,0,0-520.876,434.434Zm.372-.989a.691.691,0,0,0-.224-.556l.528-.251a.6.6,0,0,0,.3.505A.736.736,0,0,0-520.5,433.445Zm1.006.308a.629.629,0,0,0-.286-.571.679.679,0,0,0,.6-.3.563.563,0,0,0,.293.558A.756.756,0,0,0-519.5,433.753Zm.354-.99a.7.7,0,0,0-.227-.553l.528-.254a.6.6,0,0,0,.3.505A.73.73,0,0,0-519.145,432.763Zm1.672-1.544a.548.548,0,0,0,.3.555.8.8,0,0,0-.615.314.749.749,0,0,0-.231-.564A.7.7,0,0,0-517.473,431.219Zm-.355.976a.543.543,0,0,0,.3.557.808.808,0,0,0-.615.322.642.642,0,0,0-.288-.577A.686.686,0,0,0-517.828,432.2Zm-.049-1.721-.542.273-.164-.472.447-.277.073-.232c-.056-.162-.112-.323-.164-.473l.449-.277.257.477-.542.272-.073.232Zm.17-1.687-.158-.46.457-.342a.594.594,0,0,0,.287.558A.826.826,0,0,0-517.707,428.787Zm.661-1.789a.589.589,0,0,0,.149.442.353.353,0,0,0,.043.036h-.011a1.108,1.108,0,0,0,.105.1.652.652,0,0,0-.6.282.637.637,0,0,0-.226-.548A.737.737,0,0,0-517.045,427Zm-.277-2.266a.668.668,0,0,0,.279.59.633.633,0,0,0-.6.277.522.522,0,0,0-.2-.5Zm-.371.99a.62.62,0,0,0,.285.565.763.763,0,0,0-.582.238l-.16-.459Zm-1.243-2.581a.6.6,0,0,0,.282.561l-.571.164-.185-.369Zm-.383,1.077c.164.53.521.648.94.316l.25.443-.444.2c-.12-.139-.218-.349-.385-.42a1.629,1.629,0,0,0-.627.026l-.19-.333Zm-1.008-.286.2.408-.423.212-.2-.408Zm-.372,1.015.225.388-.434.152-.175-.348Zm-.389,1.027.17.339-.372.187-.184-.367Zm-.609-1.322.179.357-.374.187-.179-.356Zm-.356,1.006.172.344-.365.134-.153-.3Zm-.412,1.025.15.3-.328.165-.18-.317Zm-.359.958c.061.123.116.233.171.341l-.362.181-.171-.341Zm-.242-2.266.149.3-.333.167-.149-.3Zm-.364.982.162.323-.39.2c-.059-.118-.117-.234-.178-.354Zm-.394.969.178.355-.374.188c-.058-.117-.117-.233-.178-.355Zm-.6-1.3.183.365-.387.163-.171-.34Zm-.385,1.009.178.353-.387.194-.222-.392Zm-.954-.369.214.426-.452.173-.192-.384Zm-.994-.314.215.427-.449.226-.214-.427Zm-.378,1a1.975,1.975,0,0,0,.367.422c.185.124.4.034.595-.1l.231.408-.464.233a.527.527,0,0,0-.351-.472.574.574,0,0,0-.575.147l-.257-.44Zm-.928-.43a.552.552,0,0,0,.282.562.668.668,0,0,0-.594.313.652.652,0,0,0-.3-.57A.752.752,0,0,0-528.064,426.921Z" transform="translate(530.818 -423.028)" fill="#0977c3"/><path d="M-509.417,424.787q-.144-.243-.311-.5A.57.57,0,0,0-509.417,424.787Z" transform="translate(523.587 -423.484)" fill="#0977c3"/><path d="M-508.594,431.545a3.16,3.16,0,0,0,.375-.916.666.666,0,0,0-.589.289l-.029.1A.529.529,0,0,0-508.594,431.545Z" transform="translate(523.266 -425.773)" fill="#0977c3"/><path d="M-520.05,440.549h-.01l0,0h.006Z" transform="translate(527.317 -429.354)" fill="#0977c3"/><path d="M-512.181,440.356v.008l0,0v-.006Z" transform="translate(524.472 -429.284)" fill="#0977c3"/><path d="M-524.183,437.607h-.01l.011,0Z" transform="translate(528.81 -428.292)" fill="#0977c3"/><path d="M-528.7,431.095h-.008l.006,0h.006Z" transform="translate(530.439 -425.941)" fill="#0977c3"/><path d="M-514.3,441.421v.008l0,0v-.007Z" transform="translate(525.239 -429.668)" fill="#0977c3"/><path d="M-523.683,438.61v0l.006-.008v0Z" transform="translate(528.626 -428.653)" fill="#0977c3"/><path d="M-518.871,441.021a.692.692,0,0,0-.674.337c0,.065-.007.131,0,.2a.436.436,0,0,0,.279.4.474.474,0,0,0,.5-.061,1.969,1.969,0,0,0,.215-.233A.6.6,0,0,0-518.871,441.021Z" transform="translate(527.133 -429.524)" fill="#0977c3"/><path d="M-527.253,434.128h0l-.005.006v0l.005-.009Z" transform="translate(529.916 -427.036)" fill="#0977c3"/><path d="M-527.767,433.131l0,0h0Z" transform="translate(530.1 -426.676)" fill="#0977c3"/><path d="M-528.141,433.134c-.05,0-.1.01-.15.011a.521.521,0,0,0-.511.4.452.452,0,0,0,.259.517.522.522,0,0,0,.625-.172c.031-.039.065-.076.1-.114A.607.607,0,0,0-528.141,433.134Z" transform="translate(530.478 -426.677)" fill="#0977c3"/><path d="M-508.625,436.676c.044,0,.088-.007.133-.008a.524.524,0,0,0,.513-.329.44.44,0,0,0-.119-.5c-.075-.049-.151-.1-.229-.14a.687.687,0,0,0-.616.337A.6.6,0,0,0-508.625,436.676Z" transform="translate(523.305 -427.605)" fill="#0977c3"/><path d="M-508.941,436.226v-.006l0,0v.006Z" transform="translate(523.303 -427.792)" fill="#0977c3"/><path d="M-508.26,429.852a.579.579,0,0,0,.259.381,2.916,2.916,0,0,0,.052-.328C-507.907,429.693-508.029,429.485-508.26,429.852Z" transform="translate(523.056 -425.42)" fill="#0977c3"/><path d="M-517.987,442.015v.009l0,0v-.007Z" transform="translate(526.569 -429.884)" fill="#0977c3"/><path d="M-516.928,441.489h.006l0,0h-.007Z" transform="translate(526.188 -429.693)" fill="#0977c3"/><path d="M-517.308,441.49a.7.7,0,0,0-.677.341c0,.063,0,.127,0,.19a.437.437,0,0,0,.3.406.474.474,0,0,0,.5-.082,2.226,2.226,0,0,0,.2-.219A.6.6,0,0,0-517.308,441.49Z" transform="translate(526.568 -429.694)" fill="#0977c3"/><path d="M-508.441,437.23h.005l-.008,0h0Z" transform="translate(523.123 -428.155)" fill="#0977c3"/><path d="M-509.5,437.57a.594.594,0,0,0,.318.636c.044,0,.089-.006.133-.007a.524.524,0,0,0,.513-.329.456.456,0,0,0-.19-.563c-.034-.024-.065-.05-.1-.077A.693.693,0,0,0-509.5,437.57Z" transform="translate(523.506 -428.156)" fill="#0977c3"/><path d="M-509.5,437.76v-.006l0,0v.006Z" transform="translate(523.505 -428.346)" fill="#0977c3"/><path d="M-520.434,440.552c-.05,0-.1.008-.15.01a.522.522,0,0,0-.511.4.452.452,0,0,0,.26.518.521.521,0,0,0,.625-.172c.031-.039.065-.076.1-.114A.6.6,0,0,0-520.434,440.552Z" transform="translate(527.695 -429.356)" fill="#0977c3"/><path d="M-519.551,441.551v0l.005-.008v0Z" transform="translate(527.133 -429.715)" fill="#0977c3"/><path d="M-524.193,437.606l0,0h.007Z" transform="translate(528.81 -428.292)" fill="#0977c3"/><path d="M-524.567,437.61c-.05,0-.1.009-.151.011a.522.522,0,0,0-.511.4.452.452,0,0,0,.26.517.522.522,0,0,0,.625-.172c.031-.039.065-.076.1-.114A.605.605,0,0,0-524.567,437.61Z" transform="translate(529.188 -428.294)" fill="#0977c3"/><path d="M-516.423,442.484v.009l0,0v-.005Z" transform="translate(526.004 -430.053)" fill="#0977c3"/><path d="M-516.421,442.3c0,.049,0,.1,0,.145a.457.457,0,0,0,.39.476.523.523,0,0,0,.547-.275.456.456,0,0,0-.15-.6c-.038-.029-.075-.059-.112-.089A.706.706,0,0,0-516.421,442.3Z" transform="translate(526.003 -429.864)" fill="#0977c3"/><path d="M-515.362,441.958h0l-.008,0h0Z" transform="translate(525.623 -429.862)" fill="#0977c3"/><path d="M-513.243,440.894h.007l-.007,0h0Z" transform="translate(524.857 -429.478)" fill="#0977c3"/><path d="M-514.3,441.234c0,.056,0,.112,0,.169a.434.434,0,0,0,.3.428.49.49,0,0,0,.538-.109.43.43,0,0,0,.129-.515,1.378,1.378,0,0,0-.289-.312A.685.685,0,0,0-514.3,441.234Z" transform="translate(525.238 -429.479)" fill="#0977c3"/><path d="M-512.178,440.169c0,.056,0,.112,0,.169a.436.436,0,0,0,.3.428.49.49,0,0,0,.538-.109.431.431,0,0,0,.129-.515,1.384,1.384,0,0,0-.289-.312A.685.685,0,0,0-512.178,440.169Z" transform="translate(524.472 -429.094)" fill="#0977c3"/><path d="M-511.122,439.829h.007l-.007,0h0Z" transform="translate(524.091 -429.093)" fill="#0977c3"/><path d="M-510.057,439.105c0,.048.005.1,0,.144a.457.457,0,0,0,.389.476.524.524,0,0,0,.548-.275.458.458,0,0,0-.149-.6c-.039-.028-.076-.059-.114-.089A.707.707,0,0,0-510.057,439.105Z" transform="translate(523.705 -428.71)" fill="#0977c3"/><path d="M-509,438.763h0l-.008,0h0Z" transform="translate(523.325 -428.709)" fill="#0977c3"/><path d="M-510.06,439.3l0-.008h0l0,.01h0l0,0v-.007Z" transform="translate(523.707 -428.9)" fill="#0977c3"/><path d="M-526.868,435.4a.493.493,0,0,0-.658-.188.491.491,0,0,0-.233.643.49.49,0,0,0,.652.2A.491.491,0,0,0-526.868,435.4Z" transform="translate(530.114 -427.408)" fill="#0977c3"/><path d="M-522.389,440.157a.5.5,0,0,0-.234.645.494.494,0,0,0,.654.2.494.494,0,0,0,.24-.659A.5.5,0,0,0-522.389,440.157Z" transform="translate(528.259 -429.193)" fill="#0977c3"/><path d="M-508.435,426.676c-.042-.107-.083-.213-.133-.323-.035-.076-.076-.155-.115-.234a.461.461,0,0,0,.013.346A.444.444,0,0,0-508.435,426.676Z" transform="translate(523.219 -424.144)" fill="#0977c3"/><path d="M-523.94,439.69a.485.485,0,0,0-.242.64.484.484,0,0,0,.652.2.485.485,0,0,0,.242-.64A.484.484,0,0,0-523.94,439.69Z" transform="translate(528.822 -429.026)" fill="#0977c3"/><path d="M-526.521,437.223a.483.483,0,0,0-.226.644.485.485,0,0,0,.657.189.484.484,0,0,0,.226-.645A.485.485,0,0,0-526.521,437.223Z" transform="translate(529.75 -428.133)" fill="#0977c3"/><path d="M-510.327,440.377a.49.49,0,0,0-.232.642.491.491,0,0,0,.673.192.489.489,0,0,0,.217-.647A.491.491,0,0,0-510.327,440.377Z" transform="translate(523.903 -429.272)" fill="#0977c3"/><path d="M-512.445,441.437a.493.493,0,0,0-.231.663.5.5,0,0,0,.663.18.493.493,0,0,0,.225-.647A.5.5,0,0,0-512.445,441.437Z" transform="translate(524.67 -429.656)" fill="#0977c3"/><path d="M-514.564,442.5a.489.489,0,0,0-.231.659.492.492,0,0,0,.659.181.489.489,0,0,0,.225-.644A.49.49,0,0,0-514.564,442.5Z" transform="translate(525.435 -430.041)" fill="#0977c3"/><path d="M-529.994,430.169a.5.5,0,0,0,.245-.632l-.846.5A.494.494,0,0,0-529.994,430.169Z" transform="translate(531.121 -425.378)" fill="#0977c3"/><path d="M-530.148,434.247q.146.39.3.789a.443.443,0,0,0,.125-.544A.441.441,0,0,0-530.148,434.247Z" transform="translate(530.96 -427.079)" fill="#0977c3"/><path d="M-528.789,436.524a.45.45,0,0,0-.581-.243q.159.416.325.841A.461.461,0,0,0-528.789,436.524Z" transform="translate(530.679 -427.803)" fill="#0977c3"/><path d="M-528.438,434.942a.47.47,0,0,0-.654-.178.467.467,0,0,0-.217.624.468.468,0,0,0,.648.194A.467.467,0,0,0-528.438,434.942Z" transform="translate(530.674 -427.243)" fill="#0977c3"/><path d="M-531.419,430.8l.031.085a.582.582,0,0,0,0-.1Z" transform="translate(531.419 -425.831)" fill="#0977c3"/><path d="M-530.6,431.546a.47.47,0,0,0,.239-.634.466.466,0,0,0-.627-.2.493.493,0,0,0-.274.319l.179.487A.478.478,0,0,0-530.6,431.546Z" transform="translate(531.363 -425.783)" fill="#0977c3"/><path d="M-530.6,432.462a.434.434,0,0,0-.3-.233c.084.229.171.46.258.7A.438.438,0,0,0-530.6,432.462Z" transform="translate(531.232 -426.35)" fill="#0977c3"/><path d="M-529.662,433.575a.468.468,0,0,0,.217-.641.47.47,0,0,0-.636-.183.469.469,0,0,0-.232.637A.47.47,0,0,0-529.662,433.575Z" transform="translate(531.038 -426.519)" fill="#0977c3"/><path d="M-525.647,441.589a.457.457,0,0,0,.23-.613.455.455,0,0,0-.622-.2.458.458,0,0,0-.236.629A.457.457,0,0,0-525.647,441.589Z" transform="translate(529.58 -429.418)" fill="#0977c3"/><path d="M-506.771,442.147a.457.457,0,0,0,.226-.617.457.457,0,0,0-.625-.2.459.459,0,0,0-.242.612A.456.456,0,0,0-506.771,442.147Z" transform="translate(522.765 -429.619)" fill="#0977c3"/><path d="M-509.534,443.02a.461.461,0,0,0,.647.19.46.46,0,0,0,.221-.62.461.461,0,0,0-.647-.19A.46.46,0,0,0-509.534,443.02Z" transform="translate(523.534 -430.001)" fill="#0977c3"/><path d="M-511.652,444.1a.462.462,0,0,0,.634.183.462.462,0,0,0,.225-.638.463.463,0,0,0-.634-.183A.463.463,0,0,0-511.652,444.1Z" transform="translate(524.301 -430.385)" fill="#0977c3"/><path d="M-524.72,441.868a.46.46,0,0,0,.647.186.458.458,0,0,0,.217-.618.46.46,0,0,0-.646-.187A.459.459,0,0,0-524.72,441.868Z" transform="translate(529.017 -429.585)" fill="#0977c3"/><path d="M-513.778,445.149a.461.461,0,0,0,.647.191.461.461,0,0,0,.222-.62.46.46,0,0,0-.647-.19A.46.46,0,0,0-513.778,445.149Z" transform="translate(525.066 -430.77)" fill="#0977c3"/><path d="M-515.9,446.2a.456.456,0,0,0,.637.21.459.459,0,0,0,.233-.613.456.456,0,0,0-.622-.205A.46.46,0,0,0-515.9,446.2Z" transform="translate(525.829 -431.158)" fill="#0977c3"/><path d="M-506.6,439.791a.461.461,0,0,0-.249.628.458.458,0,0,0,.627.2.46.46,0,0,0,.243-.613A.457.457,0,0,0-506.6,439.791Z" transform="translate(522.564 -429.064)" fill="#0977c3"/><path d="M-523.167,442.324a.464.464,0,0,0,.644.208.465.465,0,0,0,.239-.617.464.464,0,0,0-.644-.208A.464.464,0,0,0-523.167,442.324Z" transform="translate(528.455 -429.753)" fill="#0977c3"/><path d="M-508.988,441.472a.466.466,0,0,0,.639.216.469.469,0,0,0,.254-.61.463.463,0,0,0-.632-.231A.47.47,0,0,0-508.988,441.472Z" transform="translate(523.334 -429.446)" fill="#0977c3"/><path d="M-511.112,442.545a.473.473,0,0,0,.643.208.476.476,0,0,0,.246-.632.474.474,0,0,0-.644-.208A.477.477,0,0,0-511.112,442.545Z" transform="translate(524.102 -429.829)" fill="#0977c3"/><path d="M-513.227,443.621a.474.474,0,0,0,.654.188.472.472,0,0,0,.217-.643.473.473,0,0,0-.638-.184A.473.473,0,0,0-513.227,443.621Z" transform="translate(524.868 -430.213)" fill="#0977c3"/><path d="M-515.347,444.677a.465.465,0,0,0,.644.2.466.466,0,0,0,.229-.634.467.467,0,0,0-.65-.185A.465.465,0,0,0-515.347,444.677Z" transform="translate(525.632 -430.6)" fill="#0977c3"/><path d="M-507.62,437.776a.478.478,0,0,0-.258.628.473.473,0,0,0,.639.22.478.478,0,0,0,.257-.629A.473.473,0,0,0-507.62,437.776Z" transform="translate(522.933 -428.336)" fill="#0977c3"/><path d="M-518.245,443.11a.472.472,0,0,0-.229.64.474.474,0,0,0,.656.184.472.472,0,0,0,.213-.645A.474.474,0,0,0-518.245,443.11Z" transform="translate(526.763 -430.259)" fill="#0977c3"/><path d="M-520.579,444.817a.458.458,0,0,0,.632.183.458.458,0,0,0,.226-.617.457.457,0,0,0-.626-.2A.459.459,0,0,0-520.579,444.817Z" transform="translate(527.524 -430.649)" fill="#0977c3"/><path d="M-519.032,445.258a.456.456,0,0,0,.617.225.462.462,0,0,0,.26-.624.457.457,0,0,0-.623-.211A.464.464,0,0,0-519.032,445.258Z" transform="translate(526.96 -430.817)" fill="#0977c3"/><path d="M-516.678,443.58a.469.469,0,0,0-.233.637.471.471,0,0,0,.652.188.47.47,0,0,0,.217-.642A.47.47,0,0,0-516.678,443.58Z" transform="translate(526.198 -430.429)" fill="#0977c3"/><path d="M-506.652,437.137a.523.523,0,0,0,.138-.11,4.117,4.117,0,0,0-.633-.665.461.461,0,0,0-.159.595A.476.476,0,0,0-506.652,437.137Z" transform="translate(522.73 -427.843)" fill="#0977c3"/><path d="M-519.812,442.642a.474.474,0,0,0-.224.642.473.473,0,0,0,.636.19.473.473,0,0,0,.24-.637A.473.473,0,0,0-519.812,442.642Z" transform="translate(527.328 -430.09)" fill="#0977c3"/><path d="M-521.906,443.714a.461.461,0,0,0-.249.609.457.457,0,0,0,.638.21.459.459,0,0,0,.233-.613A.457.457,0,0,0-521.906,443.714Z" transform="translate(528.088 -430.48)" fill="#0977c3"/><path d="M-508.436,439.929a.462.462,0,0,0,.614.238.473.473,0,0,0,.289-.617.463.463,0,0,0-.629-.243A.473.473,0,0,0-508.436,439.929Z" transform="translate(523.133 -428.891)" fill="#0977c3"/><path d="M-506.3,438.881a.458.458,0,0,0,.624.211.513.513,0,0,0,.184-.149,4.459,4.459,0,0,0-.319-.724.5.5,0,0,0-.227.037A.462.462,0,0,0-506.3,438.881Z" transform="translate(522.363 -428.513)" fill="#0977c3"/><path d="M-517.458,445.745a.459.459,0,0,0,.648.187.457.457,0,0,0,.21-.622.458.458,0,0,0-.632-.182A.458.458,0,0,0-517.458,445.745Z" transform="translate(526.394 -430.988)" fill="#0977c3"/><path d="M-521.378,442.178a.469.469,0,0,0-.226.621.468.468,0,0,0,.645.2.468.468,0,0,0,.232-.636A.469.469,0,0,0-521.378,442.178Z" transform="translate(527.891 -429.921)" fill="#0977c3"/><path d="M-522.851,443.445a.457.457,0,0,0-.629-.191.457.457,0,0,0-.227.617.456.456,0,0,0,.629.191A.457.457,0,0,0-522.851,443.445Z" transform="translate(528.651 -430.312)" fill="#0977c3"/><path d="M-527.674,437.592a.466.466,0,0,0,.247-.631.461.461,0,0,0-.627-.205.466.466,0,0,0-.247.632A.461.461,0,0,0-527.674,437.592Z" transform="translate(530.31 -427.967)" fill="#0977c3"/><path d="M-527.865,438.5a.456.456,0,0,0-.627-.195.459.459,0,0,0-.059.044q.156.4.318.806a.5.5,0,0,0,.139-.04A.457.457,0,0,0-527.865,438.5Z" transform="translate(530.384 -428.526)" fill="#0977c3"/><path d="M-526.663,439.592a.461.461,0,0,0,.239-.629.459.459,0,0,0-.625-.2.461.461,0,0,0-.24.63A.459.459,0,0,0-526.663,439.592Z" transform="translate(529.945 -428.692)" fill="#0977c3"/><path d="M-510.642,446.082a.457.457,0,0,0,.622.2.46.46,0,0,0,.24-.611.457.457,0,0,0-.622-.2A.46.46,0,0,0-510.642,446.082Z" transform="translate(523.932 -431.114)" fill="#0977c3"/><path d="M-525.5,439.231a.469.469,0,0,0-.231.637.468.468,0,0,0,.631.2.471.471,0,0,0,.247-.632A.469.469,0,0,0-525.5,439.231Z" transform="translate(529.384 -428.859)" fill="#0977c3"/><path d="M-507.963,443.487a.456.456,0,0,0,.626.2.459.459,0,0,0,.234-.615.456.456,0,0,0-.627-.2A.458.458,0,0,0-507.963,443.487Z" transform="translate(522.965 -430.174)" fill="#0977c3"/><path d="M-509.857,443.935a.458.458,0,0,0-.231.615.459.459,0,0,0,.645.192.457.457,0,0,0,.216-.62A.457.457,0,0,0-509.857,443.935Z" transform="translate(523.733 -430.558)" fill="#0977c3"/><path d="M-511.975,445a.459.459,0,0,0-.238.613.458.458,0,0,0,.643.2.456.456,0,0,0,.222-.618A.456.456,0,0,0-511.975,445Z" transform="translate(524.499 -430.942)" fill="#0977c3"/><path d="M-514.093,446.066a.458.458,0,0,0-.235.615.456.456,0,0,0,.626.2.458.458,0,0,0,.235-.615A.456.456,0,0,0-514.093,446.066Z" transform="translate(525.264 -431.328)" fill="#0977c3"/><path d="M-513.311,448.687a.464.464,0,0,0,.633.189.464.464,0,0,0,.212-.608.465.465,0,0,0-.617-.185A.466.466,0,0,0-513.311,448.687Z" transform="translate(524.894 -432.058)" fill="#0977c3"/><path d="M-511.191,447.624a.462.462,0,0,0,.632.188.462.462,0,0,0,.218-.6.462.462,0,0,0-.631-.188A.463.463,0,0,0-511.191,447.624Z" transform="translate(524.13 -431.671)" fill="#0977c3"/><path d="M-519.341,446.2a.462.462,0,0,0-.237.6.458.458,0,0,0,.621.214.461.461,0,0,0,.242-.613A.458.458,0,0,0-519.341,446.2Z" transform="translate(527.157 -431.376)" fill="#0977c3"/><path d="M-509.065,446.568a.462.462,0,0,0,.615.185.462.462,0,0,0,.226-.619.462.462,0,0,0-.615-.185A.462.462,0,0,0-509.065,446.568Z" transform="translate(523.364 -431.287)" fill="#0977c3"/><path d="M-506.73,444.893a.464.464,0,0,0-.214.6.465.465,0,0,0,.631.184.464.464,0,0,0,.214-.6A.464.464,0,0,0-506.73,444.893Z" transform="translate(522.597 -430.903)" fill="#0977c3"/><path d="M-516.207,447.136a.461.461,0,0,0-.236.613.46.46,0,0,0,.627.193.46.46,0,0,0,.22-.618A.459.459,0,0,0-516.207,447.136Z" transform="translate(526.027 -431.716)" fill="#0977c3"/><path d="M-520.917,445.738a.46.46,0,0,0-.216.6.46.46,0,0,0,.627.194.46.46,0,0,0,.222-.618A.461.461,0,0,0-520.917,445.738Z" transform="translate(527.72 -431.208)" fill="#0977c3"/><path d="M-517.776,446.667a.46.46,0,0,0-.23.617.46.46,0,0,0,.631.187.459.459,0,0,0,.215-.622A.46.46,0,0,0-517.776,446.667Z" transform="translate(526.592 -431.546)" fill="#0977c3"/><path d="M-514.877,448.218a.461.461,0,0,0,.609.2.465.465,0,0,0,.242-.615.461.461,0,0,0-.609-.2A.465.465,0,0,0-514.877,448.218Z" transform="translate(525.461 -431.886)" fill="#0977c3"/><path d="M-512.762,447.147a.457.457,0,0,0,.626.2.459.459,0,0,0,.229-.617.459.459,0,0,0-.632-.185A.459.459,0,0,0-512.762,447.147Z" transform="translate(524.697 -431.5)" fill="#0977c3"/><path d="M-505.116,442.549a5.873,5.873,0,0,0,.045-.657.465.465,0,0,0-.511-.088.465.465,0,0,0-.261.605.458.458,0,0,0,.618.217A.486.486,0,0,0-505.116,442.549Z" transform="translate(522.196 -429.793)" fill="#0977c3"/><path d="M-508.512,445.032a.459.459,0,0,0,.613.189.461.461,0,0,0,.238-.615.459.459,0,0,0-.629-.194A.458.458,0,0,0-508.512,445.032Z" transform="translate(523.165 -430.731)" fill="#0977c3"/><path d="M-505.28,440.9a.441.441,0,0,0,.41.245,5.122,5.122,0,0,0-.1-.876.465.465,0,0,0-.094.028A.459.459,0,0,0-505.28,440.9Z" transform="translate(521.995 -429.255)" fill="#0977c3"/><path d="M-505.534,443.555a.459.459,0,0,0-.6-.217.465.465,0,0,0-.258.609.458.458,0,0,0,.6.217A.466.466,0,0,0-505.534,443.555Z" transform="translate(522.397 -430.348)" fill="#0977c3"/><path d="M-524.647,443.6a.46.46,0,0,0,.233-.616.457.457,0,0,0-.609-.2.461.461,0,0,0-.249.611A.457.457,0,0,0-524.647,443.6Z" transform="translate(529.214 -430.144)" fill="#0977c3"/><path d="M-526.188,443.127a.464.464,0,0,0,.239-.6.461.461,0,0,0-.624-.209.488.488,0,0,0-.238.252c.077.187.155.375.233.563A.476.476,0,0,0-526.188,443.127Z" transform="translate(529.755 -429.977)" fill="#0977c3"/><path d="M-526.922,440.5a.46.46,0,0,0-.633-.183.516.516,0,0,0-.151.122q.145.359.292.721a.481.481,0,0,0,.266-.042A.459.459,0,0,0-526.922,440.5Z" transform="translate(530.078 -429.251)" fill="#0977c3"/><path d="M-522.07,446.065a.462.462,0,0,0,.229-.6.461.461,0,0,0-.629-.2.462.462,0,0,0-.228.6A.46.46,0,0,0-522.07,446.065Z" transform="translate(528.284 -431.039)" fill="#0977c3"/><path d="M-523.642,445.6a.466.466,0,0,0,.232-.615.465.465,0,0,0-.612-.191.464.464,0,0,0-.231.615A.464.464,0,0,0-523.642,445.6Z" transform="translate(528.847 -430.871)" fill="#0977c3"/><path d="M-516.99,449.288a.466.466,0,0,0,.617.189.466.466,0,0,0,.225-.6.466.466,0,0,0-.617-.19A.467.467,0,0,0-516.99,449.288Z" transform="translate(526.223 -432.275)" fill="#0977c3"/><path d="M-515.42,449.767a.467.467,0,0,0,.62.174.465.465,0,0,0,.21-.608.467.467,0,0,0-.62-.174A.465.465,0,0,0-515.42,449.767Z" transform="translate(525.658 -432.445)" fill="#0977c3"/><path d="M-504.45,445.1a.475.475,0,0,0,.248.034C-504.286,445.123-504.368,445.111-504.45,445.1Z" transform="translate(521.68 -431)" fill="#0977c3"/><path d="M-511.509,448.553a.468.468,0,0,0-.235.6.465.465,0,0,0,.612.2.469.469,0,0,0,.236-.6A.466.466,0,0,0-511.509,448.553Z" transform="translate(524.328 -432.229)" fill="#0977c3"/><path d="M-509.391,447.488a.468.468,0,0,0-.234.6.464.464,0,0,0,.607.206.467.467,0,0,0,.24-.614A.465.465,0,0,0-509.391,447.488Z" transform="translate(523.563 -431.844)" fill="#0977c3"/><path d="M-507.283,446.432a.465.465,0,0,0-.21.609.467.467,0,0,0,.622.175.465.465,0,0,0,.21-.609A.467.467,0,0,0-507.283,446.432Z" transform="translate(522.796 -431.46)" fill="#0977c3"/><path d="M-521.062,448.068a.467.467,0,0,0,.221-.6.466.466,0,0,0-.616-.187.467.467,0,0,0-.222.605A.467.467,0,0,0-521.062,448.068Z" transform="translate(527.917 -431.767)" fill="#0977c3"/><path d="M-518.56,448.806a.466.466,0,0,0,.609.21.472.472,0,0,0,.245-.6.466.466,0,0,0-.61-.209A.471.471,0,0,0-518.56,448.806Z" transform="translate(526.788 -432.105)" fill="#0977c3"/><path d="M-525.2,445.13a.469.469,0,0,0,.232-.6.465.465,0,0,0-.608-.2.482.482,0,0,0-.279.437l.114.268A.47.47,0,0,0-525.2,445.13Z" transform="translate(529.41 -430.703)" fill="#0977c3"/><path d="M-520.12,448.345a.465.465,0,0,0,.615.2.467.467,0,0,0,.231-.6.465.465,0,0,0-.615-.2A.468.468,0,0,0-520.12,448.345Z" transform="translate(527.353 -431.935)" fill="#0977c3"/><path d="M-526.323,443.922l.2.468a.421.421,0,0,0-.015-.292A.4.4,0,0,0-526.323,443.922Z" transform="translate(529.579 -430.573)" fill="#0977c3"/><path d="M-525.5,445.861q.131.307.264.612a.425.425,0,0,0,.026-.4A.422.422,0,0,0-525.5,445.861Z" transform="translate(529.282 -431.273)" fill="#0977c3"/><path d="M-524.19,447.13a.464.464,0,0,0,.22-.6.464.464,0,0,0-.6-.187.465.465,0,0,0-.234.6A.462.462,0,0,0-524.19,447.13Z" transform="translate(529.043 -431.43)" fill="#0977c3"/><path d="M-522.623,447.6a.465.465,0,0,0,.215-.608.468.468,0,0,0-.624-.173.466.466,0,0,0-.209.594A.465.465,0,0,0-522.623,447.6Z" transform="translate(528.48 -431.598)" fill="#0977c3"/><path d="M-521.606,449.592a.454.454,0,0,0,.2-.592.454.454,0,0,0-.6-.174.454.454,0,0,0-.215.587A.454.454,0,0,0-521.606,449.592Z" transform="translate(528.113 -432.326)" fill="#0977c3"/><path d="M-520.047,450.064a.458.458,0,0,0,.209-.588.459.459,0,0,0-.615-.18.458.458,0,0,0-.209.588A.459.459,0,0,0-520.047,450.064Z" transform="translate(527.549 -432.495)" fill="#0977c3"/><path d="M-518.279,449.934a.461.461,0,0,0-.6-.173.459.459,0,0,0-.213.6.462.462,0,0,0,.6.173A.459.459,0,0,0-518.279,449.934Z" transform="translate(526.985 -432.664)" fill="#0977c3"/><path d="M-516.921,451a.458.458,0,0,0,.212-.587.459.459,0,0,0-.614-.183.458.458,0,0,0-.212.587A.459.459,0,0,0-516.921,451Z" transform="translate(526.42 -432.834)" fill="#0977c3"/><path d="M-515.741,450.7a.456.456,0,0,0-.225.6.456.456,0,0,0,.6.177.456.456,0,0,0,.219-.587A.455.455,0,0,0-515.741,450.7Z" transform="translate(525.854 -433.004)" fill="#0977c3"/><path d="M-513.645,449.631a.464.464,0,0,0-.205.61.467.467,0,0,0,.6.173.465.465,0,0,0,.22-.605A.466.466,0,0,0-513.645,449.631Z" transform="translate(525.092 -432.616)" fill="#0977c3"/><path d="M-505.157,445.37a.467.467,0,0,0-.219.59.464.464,0,0,0,.614.2.466.466,0,0,0,.225-.606A.467.467,0,0,0-505.157,445.37Z" transform="translate(522.028 -431.077)" fill="#0977c3"/><path d="M-503.055,445.465a.456.456,0,0,0,.2.089C-502.923,445.522-502.989,445.492-503.055,445.465Z" transform="translate(521.177 -431.13)" fill="#0977c3"/><path d="M-512.29,450.694a.461.461,0,0,0,.617.184.461.461,0,0,0,.213-.59.461.461,0,0,0-.617-.184A.461.461,0,0,0-512.29,450.694Z" transform="translate(524.526 -432.787)" fill="#0977c3"/><path d="M-510.177,449.621a.463.463,0,0,0,.611.2.465.465,0,0,0,.227-.6.464.464,0,0,0-.616-.185A.467.467,0,0,0-510.177,449.621Z" transform="translate(523.761 -432.401)" fill="#0977c3"/><path d="M-507.836,447.971a.466.466,0,0,0-.217.589.464.464,0,0,0,.613.194.465.465,0,0,0,.222-.6A.465.465,0,0,0-507.836,447.971Z" transform="translate(522.995 -432.016)" fill="#0977c3"/><path d="M-505.688,446.9a.464.464,0,0,0-.237.6.46.46,0,0,0,.595.2.464.464,0,0,0,.238-.6A.461.461,0,0,0-505.688,446.9Z" transform="translate(522.227 -431.633)" fill="#0977c3"/><path d="M-510.722,451.161a.456.456,0,0,0,.615.184.455.455,0,0,0,.205-.591.455.455,0,0,0-.6-.179A.455.455,0,0,0-510.722,451.161Z" transform="translate(523.959 -432.958)" fill="#0977c3"/><path d="M-508.6,450.1a.456.456,0,0,0,.616.183.454.454,0,0,0,.205-.591.455.455,0,0,0-.6-.179A.456.456,0,0,0-508.6,450.1Z" transform="translate(523.193 -432.573)" fill="#0977c3"/><path d="M-506.262,448.448a.454.454,0,0,0-.215.588.454.454,0,0,0,.6.188.455.455,0,0,0,.22-.6A.456.456,0,0,0-506.262,448.448Z" transform="translate(522.427 -432.189)" fill="#0977c3"/><path d="M-514.4,451.756a.45.45,0,0,0,.611.184.448.448,0,0,0,.206-.586.448.448,0,0,0-.6-.18A.45.45,0,0,0-514.4,451.756Z" transform="translate(525.289 -433.174)" fill="#0977c3"/><path d="M-522.968,448.543a.444.444,0,0,0-.591-.185.447.447,0,0,0-.227.578.443.443,0,0,0,.586.2A.446.446,0,0,0-522.968,448.543Z" transform="translate(528.676 -432.158)" fill="#0977c3"/><path d="M-503.2,446.624a.451.451,0,0,0,.22-.6.452.452,0,0,0-.6-.172.45.45,0,0,0-.215.585A.449.449,0,0,0-503.2,446.624Z" transform="translate(521.458 -431.251)" fill="#0977c3"/><path d="M-512.827,452.238a.438.438,0,0,0,.6.17.436.436,0,0,0,.2-.585.437.437,0,0,0-.6-.169A.435.435,0,0,0-512.827,452.238Z" transform="translate(524.722 -433.345)" fill="#0977c3"/><path d="M-524.629,447.858q.151.341.3.679a.416.416,0,0,0,.064-.452A.411.411,0,0,0-524.629,447.858Z" transform="translate(528.967 -431.994)" fill="#0977c3"/><path d="M-506.817,449.993a.435.435,0,0,0-.2.584.437.437,0,0,0,.6.17.435.435,0,0,0,.2-.584A.437.437,0,0,0-506.817,449.993Z" transform="translate(522.625 -432.746)" fill="#0977c3"/><path d="M-508.557,451.816a.434.434,0,0,0,.219-.577.432.432,0,0,0-.588-.185.433.433,0,0,0-.218.577A.432.432,0,0,0-508.557,451.816Z" transform="translate(523.391 -433.131)" fill="#0977c3"/><path d="M-504.138,447.393a.438.438,0,0,0-.2.585.439.439,0,0,0,.6.17.438.438,0,0,0,.2-.585A.439.439,0,0,0-504.138,447.393Z" transform="translate(521.658 -431.807)" fill="#0977c3"/><path d="M-513.167,453.2a.417.417,0,0,0-.21.557.416.416,0,0,0,.582.182.416.416,0,0,0,.21-.556A.416.416,0,0,0-513.167,453.2Z" transform="translate(524.918 -433.904)" fill="#0977c3"/><path d="M-502.768,448.435a.415.415,0,0,0,.564.188.42.42,0,0,0,.227-.569.416.416,0,0,0-.564-.188A.419.419,0,0,0-502.768,448.435Z" transform="translate(521.088 -431.981)" fill="#0977c3"/><path d="M-510.675,452.877a.426.426,0,0,0,.209-.579.427.427,0,0,0-.593-.167.425.425,0,0,0-.2.564A.425.425,0,0,0-510.675,452.877Z" transform="translate(524.155 -433.517)" fill="#0977c3"/><path d="M-504.9,449.495a.425.425,0,0,0,.584.191.427.427,0,0,0,.217-.576.426.426,0,0,0-.59-.176A.425.425,0,0,0-504.9,449.495Z" transform="translate(521.857 -432.363)" fill="#0977c3"/><path d="M-517.48,452.531a.425.425,0,0,0,.2-.582.426.426,0,0,0-.575-.168.426.426,0,0,0-.214.577A.426.426,0,0,0-517.48,452.531Z" transform="translate(526.615 -433.393)" fill="#0977c3"/><path d="M-520.412,451.008a.423.423,0,0,0-.576-.16.422.422,0,0,0-.206.577.424.424,0,0,0,.591.165A.422.422,0,0,0-520.412,451.008Z" transform="translate(527.744 -433.055)" fill="#0977c3"/><path d="M-522.159,451.116a.418.418,0,0,0,.187-.567.42.42,0,0,0-.574-.17.42.42,0,0,0-.208.578A.423.423,0,0,0-522.159,451.116Z" transform="translate(528.307 -432.886)" fill="#0977c3"/><path d="M-523.722,449.872q.162.353.325.7a.4.4,0,0,0,.1-.479A.4.4,0,0,0-523.722,449.872Z" transform="translate(528.64 -432.72)" fill="#0977c3"/><path d="M-519.049,452.064a.425.425,0,0,0,.205-.58.425.425,0,0,0-.573-.174.427.427,0,0,0-.22.575A.425.425,0,0,0-519.049,452.064Z" transform="translate(527.18 -433.224)" fill="#0977c3"/><path d="M-505.229,450.469a.418.418,0,0,0-.215.572.416.416,0,0,0,.568.177.418.418,0,0,0,.215-.573A.416.416,0,0,0-505.229,450.469Z" transform="translate(522.055 -432.92)" fill="#0977c3"/><path d="M-514.944,453.292a.42.42,0,0,0,.565.189.426.426,0,0,0,.235-.567.421.421,0,0,0-.579-.194A.423.423,0,0,0-514.944,453.292Z" transform="translate(525.485 -433.733)" fill="#0977c3"/><path d="M-501.634,447.089a.433.433,0,0,0,.254-.384,4.862,4.862,0,0,0-.472-.41.481.481,0,0,0-.156.047.422.422,0,0,0-.2.579A.422.422,0,0,0-501.634,447.089Z" transform="translate(520.888 -431.43)" fill="#0977c3"/><path d="M-515.709,452.438a.424.424,0,0,0-.585-.187.426.426,0,0,0-.223.557.423.423,0,0,0,.579.2A.428.428,0,0,0-515.709,452.438Z" transform="translate(526.051 -433.562)" fill="#0977c3"/><path d="M-506.782,451.709a.419.419,0,0,0-.571-.177.42.42,0,0,0-.215.574.419.419,0,0,0,.571.178A.421.421,0,0,0-506.782,451.709Z" transform="translate(522.822 -433.304)" fill="#0977c3"/><path d="M-508.906,452.774a.416.416,0,0,0-.569-.173.418.418,0,0,0-.211.573.418.418,0,0,0,.59.162A.415.415,0,0,0-508.906,452.774Z" transform="translate(523.588 -433.689)" fill="#0977c3"/><path d="M-503.115,449.414a.414.414,0,0,0-.2.558.416.416,0,0,0,.587.169.413.413,0,0,0,.188-.563A.414.414,0,0,0-503.115,449.414Z" transform="translate(521.287 -432.537)" fill="#0977c3"/><path d="M-516.483,454.535a.413.413,0,0,0,.21-.558.412.412,0,0,0-.569-.177.413.413,0,0,0-.21.558A.412.412,0,0,0-516.483,454.535Z" transform="translate(526.246 -434.122)" fill="#0977c3"/><path d="M-514.918,455a.412.412,0,0,0,.207-.557.411.411,0,0,0-.568-.174.413.413,0,0,0-.207.558A.412.412,0,0,0-514.918,455Z" transform="translate(525.681 -434.292)" fill="#0977c3"/><path d="M-521.535,452.4a.413.413,0,0,0-.2.558.412.412,0,0,0,.569.172.413.413,0,0,0,.205-.558A.413.413,0,0,0-521.535,452.4Z" transform="translate(527.939 -433.614)" fill="#0977c3"/><path d="M-511.8,454.237a.412.412,0,0,0,.569.172.414.414,0,0,0,.2-.576.416.416,0,0,0-.574-.157A.413.413,0,0,0-511.8,454.237Z" transform="translate(524.352 -434.076)" fill="#0977c3"/><path d="M-518.045,454.065a.413.413,0,0,0,.206-.559.412.412,0,0,0-.57-.174.413.413,0,0,0-.207.56A.413.413,0,0,0-518.045,454.065Z" transform="translate(526.811 -433.952)" fill="#0977c3"/><path d="M-503.65,450.943a.416.416,0,0,0-.229.551.412.412,0,0,0,.56.2.418.418,0,0,0,.229-.551A.412.412,0,0,0-503.65,450.943Z" transform="translate(521.487 -433.093)" fill="#0977c3"/><path d="M-505.223,452.181a.414.414,0,0,0-.574-.162.412.412,0,0,0-.194.563.414.414,0,0,0,.574.162A.412.412,0,0,0-505.223,452.181Z" transform="translate(522.254 -433.477)" fill="#0977c3"/><path d="M-519.6,453.594a.413.413,0,0,0,.2-.562.413.413,0,0,0-.572-.168.412.412,0,0,0-.2.562A.413.413,0,0,0-519.6,453.594Z" transform="translate(527.376 -433.783)" fill="#0977c3"/><path d="M-500.2,447.75a4.928,4.928,0,0,0-.436-.543.392.392,0,0,0,.014.339A.4.4,0,0,0-500.2,447.75Z" transform="translate(520.316 -431.759)" fill="#0977c3"/><path d="M-507.345,453.244a.414.414,0,0,0-.574-.161.412.412,0,0,0-.194.563.414.414,0,0,0,.574.161A.412.412,0,0,0-507.345,453.244Z" transform="translate(523.02 -433.861)" fill="#0977c3"/><path d="M-509.46,454.324a.412.412,0,0,0-.565-.181.414.414,0,0,0-.214.555.413.413,0,0,0,.566.181A.414.414,0,0,0-509.46,454.324Z" transform="translate(523.785 -434.247)" fill="#0977c3"/><path d="M-522.773,451.9q.166.35.334.7a.4.4,0,0,0,.116-.489A.4.4,0,0,0-522.773,451.9Z" transform="translate(528.297 -433.45)" fill="#0977c3"/><path d="M-500.994,448.358a.413.413,0,0,0-.192.56.414.414,0,0,0,.571.16.413.413,0,0,0,.193-.56A.416.416,0,0,0-500.994,448.358Z" transform="translate(520.518 -432.156)" fill="#0977c3"/><path d="M-513.153,454.906a.415.415,0,0,0-.572-.157.413.413,0,0,0-.189.561.415.415,0,0,0,.572.157A.412.412,0,0,0-513.153,454.906Z" transform="translate(525.115 -434.463)" fill="#0977c3"/><path d="M-517.045,456.072a.417.417,0,0,0,.21-.557.416.416,0,0,0-.553-.173.417.417,0,0,0-.21.558A.416.416,0,0,0-517.045,456.072Z" transform="translate(526.443 -434.681)" fill="#0977c3"/><path d="M-511.59,455.376a.417.417,0,0,0-.576-.151.413.413,0,0,0-.186.546.413.413,0,0,0,.57.167A.413.413,0,0,0-511.59,455.376Z" transform="translate(524.549 -434.634)" fill="#0977c3"/><path d="M-501.544,449.893a.416.416,0,0,0-.207.54.414.414,0,0,0,.563.188.415.415,0,0,0,.213-.555A.414.414,0,0,0-501.544,449.893Z" transform="translate(520.718 -432.711)" fill="#0977c3"/><path d="M-513.894,457a.417.417,0,0,0,.183-.55.418.418,0,0,0-.558-.16.418.418,0,0,0-.2.546A.419.419,0,0,0-513.894,457Z" transform="translate(525.312 -435.022)" fill="#0977c3"/><path d="M-499.209,449.656a4.743,4.743,0,0,0-.288-.7.406.406,0,0,0-.125.482A.405.405,0,0,0-499.209,449.656Z" transform="translate(519.949 -432.39)" fill="#0977c3"/><path d="M-518.6,455.6a.415.415,0,0,0,.2-.562.417.417,0,0,0-.557-.16.416.416,0,0,0-.2.562A.418.418,0,0,0-518.6,455.6Z" transform="translate(527.007 -434.512)" fill="#0977c3"/><path d="M-500.175,450.911a.418.418,0,0,0,.571.17.417.417,0,0,0,.189-.547.419.419,0,0,0-.555-.165A.419.419,0,0,0-500.175,450.911Z" transform="translate(520.15 -432.885)" fill="#0977c3"/><path d="M-502.311,451.956a.415.415,0,0,0,.558.2.419.419,0,0,0,.22-.555.415.415,0,0,0-.549-.183A.421.421,0,0,0-502.311,451.956Z" transform="translate(520.918 -433.267)" fill="#0977c3"/><path d="M-504.429,453.034a.413.413,0,0,0,.564.184.414.414,0,0,0,.209-.557.414.414,0,0,0-.569-.169A.415.415,0,0,0-504.429,453.034Z" transform="translate(521.686 -433.65)" fill="#0977c3"/><path d="M-505.984,454.282a.414.414,0,0,0,.205-.559.415.415,0,0,0-.573-.165.413.413,0,0,0-.189.564A.414.414,0,0,0-505.984,454.282Z" transform="translate(522.453 -434.033)" fill="#0977c3"/><path d="M-508.1,455.346a.413.413,0,0,0,.2-.558.415.415,0,0,0-.572-.164.413.413,0,0,0-.187.563A.415.415,0,0,0-508.1,455.346Z" transform="translate(523.218 -434.419)" fill="#0977c3"/><path d="M-510.782,457.945a.419.419,0,0,0,.2-.544.418.418,0,0,0-.554-.171.419.419,0,0,0-.2.544A.417.417,0,0,0-510.782,457.945Z" transform="translate(524.18 -435.363)" fill="#0977c3"/><path d="M-506.9,456.8a.419.419,0,0,0-.557-.164.418.418,0,0,0-.195.546.418.418,0,0,0,.556.164A.418.418,0,0,0-506.9,456.8Z" transform="translate(522.85 -435.148)" fill="#0977c3"/><path d="M-504.771,455.743a.418.418,0,0,0-.553-.174.419.419,0,0,0-.206.543.418.418,0,0,0,.553.174A.42.42,0,0,0-504.771,455.743Z" transform="translate(522.083 -434.763)" fill="#0977c3"/><path d="M-502.648,454.681a.417.417,0,0,0-.551-.18.42.42,0,0,0-.211.541.417.417,0,0,0,.551.18A.42.42,0,0,0-502.648,454.681Z" transform="translate(521.317 -434.379)" fill="#0977c3"/><path d="M-521.794,453.917c.114.23.229.457.345.684a.408.408,0,0,0,.125-.469A.4.4,0,0,0-521.794,453.917Z" transform="translate(527.943 -434.178)" fill="#0977c3"/><path d="M-499.964,452.089a.418.418,0,0,0-.548-.19.423.423,0,0,0-.222.538.418.418,0,0,0,.547.19A.423.423,0,0,0-499.964,452.089Z" transform="translate(520.35 -433.44)" fill="#0977c3"/><path d="M-515.263,456a.415.415,0,0,0-.542-.2.421.421,0,0,0-.236.548.415.415,0,0,0,.563.187A.42.42,0,0,0-515.263,456Z" transform="translate(525.877 -434.851)" fill="#0977c3"/><path d="M-510.239,456.418a.419.419,0,0,0,.22-.555.415.415,0,0,0-.549-.182.418.418,0,0,0-.219.555A.415.415,0,0,0-510.239,456.418Z" transform="translate(523.983 -434.805)" fill="#0977c3"/><path d="M-512.33,457.468a.417.417,0,0,0,.183-.549.419.419,0,0,0-.557-.159.419.419,0,0,0-.2.544A.419.419,0,0,0-512.33,457.468Z" transform="translate(524.746 -435.192)" fill="#0977c3"/><path d="M-508.462,456.324a.419.419,0,0,0-.558-.16.419.419,0,0,0-.2.545.418.418,0,0,0,.573.164A.416.416,0,0,0-508.462,456.324Z" transform="translate(523.416 -434.976)" fill="#0977c3"/><path d="M-506.34,455.258a.419.419,0,0,0-.575-.154.416.416,0,0,0-.181.548.418.418,0,0,0,.554.165A.417.417,0,0,0-506.34,455.258Z" transform="translate(522.651 -434.591)" fill="#0977c3"/><path d="M-504.216,454.2a.417.417,0,0,0-.553-.169.418.418,0,0,0-.206.558.416.416,0,0,0,.552.169A.417.417,0,0,0-504.216,454.2Z" transform="translate(521.885 -434.206)" fill="#0977c3"/><path d="M-502.637,452.958a.422.422,0,0,0-.227.537.416.416,0,0,0,.543.2.422.422,0,0,0,.233-.552A.417.417,0,0,0-502.637,452.958Z" transform="translate(521.118 -433.822)" fill="#0977c3"/><path d="M-519.962,454.578a.416.416,0,0,0-.551-.173.417.417,0,0,0-.21.556.418.418,0,0,0,.551.173A.418.418,0,0,0-519.962,454.578Z" transform="translate(527.571 -434.343)" fill="#0977c3"/><path d="M-516.037,458.075a.419.419,0,0,0,.21-.542.417.417,0,0,0-.555-.17.418.418,0,0,0-.194.546A.419.419,0,0,0-516.037,458.075Z" transform="translate(526.074 -435.411)" fill="#0977c3"/><path d="M-514.461,458.538a.418.418,0,0,0,.192-.548.42.42,0,0,0-.54-.163.419.419,0,0,0-.206.543A.418.418,0,0,0-514.461,458.538Z" transform="translate(525.509 -435.58)" fill="#0977c3"/><path d="M-500.737,454.157a.419.419,0,0,0,.208-.542.417.417,0,0,0-.534-.178.421.421,0,0,0-.223.537A.416.416,0,0,0-500.737,454.157Z" transform="translate(520.549 -433.996)" fill="#0977c3"/><path d="M-509.021,457.863a.42.42,0,0,0-.562-.151.418.418,0,0,0-.185.532.418.418,0,0,0,.556.167A.418.418,0,0,0-509.021,457.863Z" transform="translate(523.614 -435.534)" fill="#0977c3"/><path d="M-517.6,457.605a.42.42,0,0,0,.208-.545.418.418,0,0,0-.558-.168.421.421,0,0,0-.2.53A.418.418,0,0,0-517.6,457.605Z" transform="translate(526.639 -435.24)" fill="#0977c3"/><path d="M-520.771,455.927c.116.221.231.441.347.659a.4.4,0,0,0,.094-.469A.409.409,0,0,0-520.771,455.927Z" transform="translate(527.574 -434.905)" fill="#0977c3"/><path d="M-518.961,456.58a.42.42,0,0,0-.564-.15.418.418,0,0,0-.184.535.418.418,0,0,0,.558.165A.418.418,0,0,0-518.961,456.58Z" transform="translate(527.204 -435.071)" fill="#0977c3"/><path d="M-503.4,456.749a.418.418,0,0,0,.192-.53.418.418,0,0,0-.556-.167.418.418,0,0,0-.192.53A.418.418,0,0,0-503.4,456.749Z" transform="translate(521.515 -434.937)" fill="#0977c3"/><path d="M-501.832,455.518a.414.414,0,0,0,.553.164.415.415,0,0,0,.19-.528.415.415,0,0,0-.554-.164A.415.415,0,0,0-501.832,455.518Z" transform="translate(520.747 -434.553)" fill="#0977c3"/><path d="M-512.695,458.49a.414.414,0,0,0-.547-.189.42.42,0,0,0-.214.523.415.415,0,0,0,.547.188A.42.42,0,0,0-512.695,458.49Z" transform="translate(524.942 -435.751)" fill="#0977c3"/><path d="M-511.133,458.958a.412.412,0,0,0-.546-.185.416.416,0,0,0-.211.521.412.412,0,0,0,.546.185A.417.417,0,0,0-511.133,458.958Z" transform="translate(524.377 -435.922)" fill="#0977c3"/><path d="M-499.152,452.925a.378.378,0,0,0,.236.191,4.532,4.532,0,0,0,.084-.757.385.385,0,0,0-.132.038A.414.414,0,0,0-499.152,452.925Z" transform="translate(519.78 -433.62)" fill="#0977c3"/><path d="M-507.655,458.883a.417.417,0,0,0,.206-.523.412.412,0,0,0-.548-.18.418.418,0,0,0-.206.523A.413.413,0,0,0-507.655,458.883Z" transform="translate(523.046 -435.707)" fill="#0977c3"/><path d="M-505.546,457.824a.419.419,0,0,0,.215-.54.417.417,0,0,0-.534-.178.419.419,0,0,0-.215.54A.416.416,0,0,0-505.546,457.824Z" transform="translate(522.281 -435.321)" fill="#0977c3"/><path d="M-519.7,457.939c.112.2.225.4.337.6a.386.386,0,0,0,.059-.387A.385.385,0,0,0-519.7,457.939Z" transform="translate(527.186 -435.634)" fill="#0977c3"/><path d="M-516.6,459.607a.4.4,0,0,0,.214-.518.4.4,0,0,0-.526-.183.4.4,0,0,0-.215.518A.4.4,0,0,0-516.6,459.607Z" transform="translate(526.269 -435.97)" fill="#0977c3"/><path d="M-499.172,453.918a.415.415,0,0,0-.332.009.406.406,0,0,0-.2.526.405.405,0,0,0,.536.169.413.413,0,0,0,.226-.328c-.116-.005-.23-.006-.34,0C-499.239,454.168-499.2,454.042-499.172,453.918Z" transform="translate(519.979 -434.172)" fill="#0977c3"/><path d="M-509.777,459.946a.406.406,0,0,0,.2-.526.4.4,0,0,0-.536-.17.407.407,0,0,0-.2.526A.4.4,0,0,0-509.777,459.946Z" transform="translate(523.81 -436.093)" fill="#0977c3"/><path d="M-505.888,458.836a.4.4,0,0,0-.527-.183.4.4,0,0,0-.214.518.4.4,0,0,0,.526.183A.4.4,0,0,0-505.888,458.836Z" transform="translate(522.478 -435.879)" fill="#0977c3"/><path d="M-508.018,459.889a.394.394,0,0,0-.536-.158.394.394,0,0,0-.19.508.393.393,0,0,0,.53.173A.394.394,0,0,0-508.018,459.889Z" transform="translate(523.243 -436.265)" fill="#0977c3"/><path d="M-517.954,458.609a.4.4,0,0,0-.533-.168.4.4,0,0,0-.2.523.4.4,0,0,0,.532.168A.4.4,0,0,0-517.954,458.609Z" transform="translate(526.833 -435.801)" fill="#0977c3"/><path d="M-513.457,460.536a.393.393,0,0,0,.187-.526.4.4,0,0,0-.539-.149.394.394,0,0,0-.181.511A.393.393,0,0,0-513.457,460.536Z" transform="translate(525.138 -436.31)" fill="#0977c3"/><path d="M-500.06,455.468a.393.393,0,0,0-.191.525.392.392,0,0,0,.516.164.4.4,0,0,0,.207-.52A.393.393,0,0,0-500.06,455.468Z" transform="translate(520.178 -434.726)" fill="#0977c3"/><path d="M-501.849,457.219a.4.4,0,0,0,.2-.523.4.4,0,0,0-.532-.168.4.4,0,0,0-.2.523A.4.4,0,0,0-501.849,457.219Z" transform="translate(520.946 -435.11)" fill="#0977c3"/><path d="M-503.77,457.759a.4.4,0,0,0-.536-.169.405.405,0,0,0-.2.526.4.4,0,0,0,.535.169A.407.407,0,0,0-503.77,457.759Z" transform="translate(521.713 -435.494)" fill="#0977c3"/><path d="M-515.015,460.065a.4.4,0,0,0,.183-.527.4.4,0,0,0-.538-.153.4.4,0,0,0-.183.528A.4.4,0,0,0-515.015,460.065Z" transform="translate(525.704 -436.14)" fill="#0977c3"/><path d="M-505.08,461.341a.368.368,0,0,0,.181-.5.369.369,0,0,0-.512-.152.369.369,0,0,0-.181.5A.368.368,0,0,0-505.08,461.341Z" transform="translate(522.107 -436.61)" fill="#0977c3"/><path d="M-502.955,460.275a.368.368,0,0,0,.176-.5.369.369,0,0,0-.514-.148.367.367,0,0,0-.176.5A.369.369,0,0,0-502.955,460.275Z" transform="translate(521.341 -436.225)" fill="#0977c3"/><path d="M-500.839,459.212a.368.368,0,0,0,.185-.5.369.369,0,0,0-.511-.156.37.37,0,0,0-.185.5A.369.369,0,0,0-500.839,459.212Z" transform="translate(520.575 -435.841)" fill="#0977c3"/><path d="M-502.209,458.245a.381.381,0,0,0-.526-.171.383.383,0,0,0-.2.5.381.381,0,0,0,.526.171A.382.382,0,0,0-502.209,458.245Z" transform="translate(521.144 -435.667)" fill="#0977c3"/><path d="M-500.094,457.172a.376.376,0,0,0-.508-.164.379.379,0,0,0-.2.514.375.375,0,0,0,.508.163A.378.378,0,0,0-500.094,457.172Z" transform="translate(520.376 -435.284)" fill="#0977c3"/><path d="M-498.676,456.451a.37.37,0,0,0,.5.17.373.373,0,0,0,.2-.513.371.371,0,0,0-.51-.155A.372.372,0,0,0-498.676,456.451Z" transform="translate(519.608 -434.901)" fill="#0977c3"/><path d="M-516.965,460.609a.374.374,0,0,0-.516-.137.37.37,0,0,0-.173.5.371.371,0,0,0,.51.152A.371.371,0,0,0-516.965,460.609Z" transform="translate(526.463 -436.531)" fill="#0977c3"/><path d="M-515.583,461.6a.371.371,0,0,0,.192-.5.37.37,0,0,0-.5-.171.373.373,0,0,0-.2.512A.37.37,0,0,0-515.583,461.6Z" transform="translate(525.899 -436.7)" fill="#0977c3"/><path d="M-508.766,461.938a.371.371,0,0,0,.185-.5.369.369,0,0,0-.506-.164.373.373,0,0,0-.2.5A.372.372,0,0,0-508.766,461.938Z" transform="translate(523.439 -436.824)" fill="#0977c3"/><path d="M-506.637,460.871a.376.376,0,0,0,.179-.5.377.377,0,0,0-.528-.155.377.377,0,0,0-.169.523A.38.38,0,0,0-506.637,460.871Z" transform="translate(522.675 -436.438)" fill="#0977c3"/><path d="M-504.328,459.316a.381.381,0,0,0-.524-.178.385.385,0,0,0-.2.5.38.38,0,0,0,.523.178A.384.384,0,0,0-504.328,459.316Z" transform="translate(521.91 -436.052)" fill="#0977c3"/><path d="M-518.54,459.967c.1.164.193.327.29.486a.355.355,0,0,0-.011-.291A.351.351,0,0,0-518.54,459.967Z" transform="translate(526.768 -436.367)" fill="#0977c3"/><path d="M-512.458,462.536a.368.368,0,0,0,.192-.5.367.367,0,0,0-.506-.162.368.368,0,0,0-.192.5A.366.366,0,0,0-512.458,462.536Z" transform="translate(524.768 -437.041)" fill="#0977c3"/><path d="M-510.331,461.471a.378.378,0,0,0,.192-.5.376.376,0,0,0-.523-.168.378.378,0,0,0-.193.5A.378.378,0,0,0-510.331,461.471Z" transform="translate(524.006 -436.653)" fill="#0977c3"/><path d="M-497.617,455.16a.378.378,0,0,0,.213-.48,5.465,5.465,0,0,0-.641-.116.366.366,0,0,0-.087.4A.375.375,0,0,0-497.617,455.16Z" transform="translate(519.409 -434.416)" fill="#0977c3"/><path d="M-514.013,462.064a.369.369,0,0,0,.181-.5.369.369,0,0,0-.512-.152.369.369,0,0,0-.181.5A.37.37,0,0,0-514.013,462.064Z" transform="translate(525.333 -436.871)" fill="#0977c3"/><path d="M-511.9,461.007a.385.385,0,0,0,.2-.5.38.38,0,0,0-.523-.18.384.384,0,0,0-.2.5A.381.381,0,0,0-511.9,461.007Z" transform="translate(524.571 -436.482)" fill="#0977c3"/><path d="M-496.029,455.576a.362.362,0,0,0,.19-.438c-.18-.073-.36-.139-.54-.2a.362.362,0,0,0-.16.491A.366.366,0,0,0-496.029,455.576Z" transform="translate(518.839 -434.552)" fill="#0977c3"/><path d="M-510.878,463a.366.366,0,0,0,.165-.5.366.366,0,0,0-.5-.139.365.365,0,0,0-.181.5A.367.367,0,0,0-510.878,463Z" transform="translate(524.201 -437.212)" fill="#0977c3"/><path d="M-513.008,464.066a.369.369,0,0,0,.182-.485.367.367,0,0,0-.491-.161.372.372,0,0,0-.2.48A.368.368,0,0,0-513.008,464.066Z" transform="translate(524.964 -437.6)" fill="#0977c3"/><path d="M-514.387,463.114a.367.367,0,0,0-.507-.159.367.367,0,0,0-.183.482.366.366,0,0,0,.506.159A.368.368,0,0,0-514.387,463.114Z" transform="translate(525.529 -437.43)" fill="#0977c3"/><path d="M-515.949,462.637a.366.366,0,0,0-.511-.149.373.373,0,0,0-.2.285c.089.132.178.259.268.387a.4.4,0,0,0,.27-.036A.365.365,0,0,0-515.949,462.637Z" transform="translate(526.089 -437.26)" fill="#0977c3"/><path d="M-507.193,462.4a.366.366,0,0,0,.168-.5.368.368,0,0,0-.512-.139.364.364,0,0,0-.167.5A.368.368,0,0,0-507.193,462.4Z" transform="translate(522.871 -436.996)" fill="#0977c3"/><path d="M-509.334,463.476a.368.368,0,0,0,.193-.494.365.365,0,0,0-.506-.157.367.367,0,0,0-.188.479A.366.366,0,0,0-509.334,463.476Z" transform="translate(523.636 -437.383)" fill="#0977c3"/><path d="M-511.447,464.537a.372.372,0,0,0,.187-.482.37.37,0,0,0-.489-.165.374.374,0,0,0-.2.477A.369.369,0,0,0-511.447,464.537Z" transform="translate(524.398 -437.771)" fill="#0977c3"/><path d="M-497.709,460.15a.371.371,0,0,0,.181-.486.371.371,0,0,0-.5-.153.371.371,0,0,0-.18.486A.37.37,0,0,0-497.709,460.15Z" transform="translate(519.437 -436.188)" fill="#0977c3"/><path d="M-499.817,461.208a.367.367,0,0,0,.163-.49.369.369,0,0,0-.5-.143.369.369,0,0,0-.179.486A.369.369,0,0,0-499.817,461.208Z" transform="translate(520.205 -436.571)" fill="#0977c3"/><path d="M-506.191,464.408a.37.37,0,0,0,.174-.488.371.371,0,0,0-.5-.146.371.371,0,0,0-.174.488A.372.372,0,0,0-506.191,464.408Z" transform="translate(522.502 -437.726)" fill="#0977c3"/><path d="M-504.064,463.34a.37.37,0,0,0,.168-.488.371.371,0,0,0-.5-.148.371.371,0,0,0-.173.5A.374.374,0,0,0-504.064,463.34Z" transform="translate(521.737 -437.34)" fill="#0977c3"/><path d="M-494.455,456.073a.387.387,0,0,0,.185-.242q-.3-.172-.611-.319a.358.358,0,0,0-.087.417A.372.372,0,0,0-494.455,456.073Z" transform="translate(518.269 -434.758)" fill="#0977c3"/><path d="M-497.1,456.923a.365.365,0,0,0,.505.158.366.366,0,0,0,.18-.5.368.368,0,0,0-.511-.144A.366.366,0,0,0-497.1,456.923Z" transform="translate(519.039 -435.075)" fill="#0977c3"/><path d="M-498.706,458.141a.364.364,0,0,0,.167-.5.367.367,0,0,0-.512-.139.365.365,0,0,0-.168.5A.368.368,0,0,0-498.706,458.141Z" transform="translate(519.807 -435.458)" fill="#0977c3"/><path d="M-501.962,462.284a.368.368,0,0,0,.188-.5.369.369,0,0,0-.5-.146.369.369,0,0,0-.181.485A.367.367,0,0,0-501.962,462.284Z" transform="translate(520.971 -436.955)" fill="#0977c3"/><path d="M-507.764,463.943a.369.369,0,0,0,.18-.5.369.369,0,0,0-.5-.14.368.368,0,0,0-.175.487A.368.368,0,0,0-507.764,463.943Z" transform="translate(523.068 -437.555)" fill="#0977c3"/><path d="M-505.643,462.877a.367.367,0,0,0,.185-.5.367.367,0,0,0-.509-.149.365.365,0,0,0-.17.5A.366.366,0,0,0-505.643,462.877Z" transform="translate(522.305 -437.167)" fill="#0977c3"/><path d="M-503.53,461.816a.369.369,0,0,0,.2-.5.366.366,0,0,0-.507-.161.366.366,0,0,0-.182.5A.364.364,0,0,0-503.53,461.816Z" transform="translate(521.54 -436.782)" fill="#0977c3"/><path d="M-501.4,460.75a.367.367,0,0,0,.193-.5.365.365,0,0,0-.508-.157.365.365,0,0,0-.178.5A.366.366,0,0,0-501.4,460.75Z" transform="translate(520.774 -436.398)" fill="#0977c3"/><path d="M-499.272,459.68a.366.366,0,0,0,.177-.5.367.367,0,0,0-.512-.141.366.366,0,0,0-.172.484A.366.366,0,0,0-499.272,459.68Z" transform="translate(520.006 -436.014)" fill="#0977c3"/><path d="M-497.154,458.617a.366.366,0,0,0,.18-.5.369.369,0,0,0-.514-.136.365.365,0,0,0-.159.489A.366.366,0,0,0-497.154,458.617Z" transform="translate(519.238 -435.631)" fill="#0977c3"/><path d="M-495.531,457.385a.37.37,0,0,0,.488.173.376.376,0,0,0,.2-.48.37.37,0,0,0-.488-.173A.375.375,0,0,0-495.531,457.385Z" transform="translate(518.47 -435.249)" fill="#0977c3"/><path d="M-509.871,465a.372.372,0,0,0,.167-.489.375.375,0,0,0-.5-.139.372.372,0,0,0-.166.489A.373.373,0,0,0-509.871,465Z" transform="translate(523.831 -437.942)" fill="#0977c3"/><path d="M-492.893,456.649h0q-.249-.19-.517-.361a.329.329,0,0,0,.017.217A.374.374,0,0,0-492.893,456.649Z" transform="translate(517.697 -435.038)" fill="#0977c3"/><path d="M-511.822,465.592a.373.373,0,0,0-.5-.146.374.374,0,0,0-.167.473.372.372,0,0,0,.5.146A.374.374,0,0,0-511.822,465.592Z" transform="translate(524.594 -438.33)" fill="#0977c3"/><path d="M-495.59,459.087a.375.375,0,0,0,.183-.487.375.375,0,0,0-.5-.147.377.377,0,0,0-.177.471A.373.373,0,0,0-495.59,459.087Z" transform="translate(518.669 -435.805)" fill="#0977c3"/><path d="M-498.266,461.684a.375.375,0,0,0,.177-.486.375.375,0,0,0-.477-.151.376.376,0,0,0-.192.481A.373.373,0,0,0-498.266,461.684Z" transform="translate(519.636 -436.745)" fill="#0977c3"/><path d="M-508.318,465.476a.374.374,0,0,0,.18-.487.375.375,0,0,0-.5-.144.376.376,0,0,0-.174.471A.373.373,0,0,0-508.318,465.476Z" transform="translate(523.266 -438.113)" fill="#0977c3"/><path d="M-500.379,462.745a.373.373,0,0,0,.164-.493.376.376,0,0,0-.484-.139.374.374,0,0,0-.18.487A.375.375,0,0,0-500.379,462.745Z" transform="translate(520.403 -437.129)" fill="#0977c3"/><path d="M-502.514,463.816a.375.375,0,0,0,.184-.486.374.374,0,0,0-.5-.148.373.373,0,0,0-.168.491A.375.375,0,0,0-502.514,463.816Z" transform="translate(521.169 -437.513)" fill="#0977c3"/><path d="M-504.649,464.888a.378.378,0,0,0,.2-.478.373.373,0,0,0-.489-.167.375.375,0,0,0-.188.482A.374.374,0,0,0-504.649,464.888Z" transform="translate(521.934 -437.899)" fill="#0977c3"/><path d="M-515.365,464.5a.356.356,0,0,0-.1.075c.142.189.283.371.425.546a.371.371,0,0,0,.156-.473A.375.375,0,0,0-515.365,464.5Z" transform="translate(525.659 -437.99)" fill="#0977c3"/><path d="M-513.39,465.111a.376.376,0,0,0-.5-.135.375.375,0,0,0-.166.472.375.375,0,0,0,.495.151A.374.374,0,0,0-513.39,465.111Z" transform="translate(525.16 -438.16)" fill="#0977c3"/><path d="M-496.532,461.668a.368.368,0,0,0-.481-.132.367.367,0,0,0-.167.47.368.368,0,0,0,.5.136A.365.365,0,0,0-496.532,461.668Z" transform="translate(519.067 -436.919)" fill="#0977c3"/><path d="M-498.808,463.209a.369.369,0,0,0,.158-.475.37.37,0,0,0-.482-.139.37.37,0,0,0-.173.47A.369.369,0,0,0-498.808,463.209Z" transform="translate(519.834 -437.302)" fill="#0977c3"/><path d="M-496.134,460.614a.373.373,0,0,0,.169-.471.373.373,0,0,0-.5-.146.373.373,0,0,0-.169.471A.373.373,0,0,0-496.134,460.614Z" transform="translate(518.867 -436.363)" fill="#0977c3"/><path d="M-505.013,465.937a.367.367,0,0,0-.476-.147.369.369,0,0,0-.182.465.366.366,0,0,0,.491.151A.367.367,0,0,0-505.013,465.937Z" transform="translate(522.131 -438.457)" fill="#0977c3"/><path d="M-506.766,465.95a.374.374,0,0,0,.194-.48.372.372,0,0,0-.472-.161.375.375,0,0,0-.195.48A.371.371,0,0,0-506.766,465.95Z" transform="translate(522.698 -438.285)" fill="#0977c3"/><path d="M-502.891,464.872a.37.37,0,0,0-.478-.15.372.372,0,0,0-.185.467.368.368,0,0,0,.472.165A.37.37,0,0,0-502.891,464.872Z" transform="translate(521.366 -438.071)" fill="#0977c3"/><path d="M-500.943,464.282a.376.376,0,0,0,.18-.468.372.372,0,0,0-.491-.157.374.374,0,0,0-.18.467A.371.371,0,0,0-500.943,464.282Z" transform="translate(520.601 -437.686)" fill="#0977c3"/><path d="M-493.939,457.885a.373.373,0,0,0,.486.128.37.37,0,0,0,.163-.474.37.37,0,0,0-.48-.143A.368.368,0,0,0-493.939,457.885Z" transform="translate(517.899 -435.425)" fill="#0977c3"/><path d="M-510.26,466.065a.369.369,0,0,0-.477-.153.373.373,0,0,0-.188.466.368.368,0,0,0,.493.157A.37.37,0,0,0-510.26,466.065Z" transform="translate(524.028 -438.501)" fill="#0977c3"/><path d="M-494.322,458.932a.367.367,0,0,0-.18.469.365.365,0,0,0,.477.152.367.367,0,0,0,.18-.469A.365.365,0,0,0-494.322,458.932Z" transform="translate(518.099 -435.98)" fill="#0977c3"/><path d="M-512.864,467a.354.354,0,0,0-.183.278c.126.125.251.238.376.351a.356.356,0,0,0,.12-.034.347.347,0,0,0,.164-.465A.349.349,0,0,0-512.864,467Z" transform="translate(524.785 -438.891)" fill="#0977c3"/><path d="M-503.9,466.264a.351.351,0,0,0-.2.455.346.346,0,0,0,.466.16.349.349,0,0,0,.188-.44A.342.342,0,0,0-503.9,466.264Z" transform="translate(521.563 -438.63)" fill="#0977c3"/><path d="M-508.875,467.006a.362.362,0,0,0,.178-.466.36.36,0,0,0-.475-.151.362.362,0,0,0-.178.466A.36.36,0,0,0-508.875,467.006Z" transform="translate(523.461 -438.673)" fill="#0977c3"/><path d="M-507.144,467a.349.349,0,0,0-.478-.127.347.347,0,0,0-.156.451.348.348,0,0,0,.473.142A.347.347,0,0,0-507.144,467Z" transform="translate(522.894 -438.845)" fill="#0977c3"/><path d="M-497.558,463.079a.347.347,0,0,0-.165.464.347.347,0,0,0,.456.142.348.348,0,0,0,.181-.46A.347.347,0,0,0-497.558,463.079Z" transform="translate(519.264 -437.476)" fill="#0977c3"/><path d="M-494.4,460.626a.353.353,0,0,0-.473-.151.356.356,0,0,0-.18.447.35.35,0,0,0,.467.167A.356.356,0,0,0-494.4,460.626Z" transform="translate(518.298 -436.537)" fill="#0977c3"/><path d="M-513.949,466.5c.092.1.183.2.275.3a.3.3,0,0,0-.03-.127A.329.329,0,0,0-513.949,466.5Z" transform="translate(525.11 -438.726)" fill="#0977c3"/><path d="M-499.213,464.274a.357.357,0,0,0-.483-.128.355.355,0,0,0-.157.455.355.355,0,0,0,.477.144A.355.355,0,0,0-499.213,464.274Z" transform="translate(520.032 -437.86)" fill="#0977c3"/><path d="M-501.332,465.344a.356.356,0,0,0-.48-.135.355.355,0,0,0-.164.453.353.353,0,0,0,.474.151A.355.355,0,0,0-501.332,465.344Z" transform="translate(520.798 -438.244)" fill="#0977c3"/><path d="M-502.356,466.756a.328.328,0,0,0-.159.445.33.33,0,0,0,.471.13.327.327,0,0,0,.143-.449A.329.329,0,0,0-502.356,466.756Z" transform="translate(520.994 -438.803)" fill="#0977c3"/><path d="M-500.225,465.687a.329.329,0,0,0-.173.44.328.328,0,0,0,.466.144.327.327,0,0,0,.157-.445A.327.327,0,0,0-500.225,465.687Z" transform="translate(520.228 -438.418)" fill="#0977c3"/><path d="M-498.106,464.623a.328.328,0,0,0-.159.461.329.329,0,0,0,.457.12.327.327,0,0,0,.153-.446A.327.327,0,0,0-498.106,464.623Z" transform="translate(519.462 -438.034)" fill="#0977c3"/><path d="M-511.3,467.473a.338.338,0,0,0-.152.467.34.34,0,0,0,.461.121.338.338,0,0,0,.162-.447A.339.339,0,0,0-511.3,467.473Z" transform="translate(524.223 -439.061)" fill="#0977c3"/><path d="M-491.74,458.008a.341.341,0,0,0-.463-.119.338.338,0,0,0-.16.448.339.339,0,0,0,.472.139A.338.338,0,0,0-491.74,458.008Z" transform="translate(517.328 -435.601)" fill="#0977c3"/><path d="M-506.036,467.345a.332.332,0,0,0-.164.459.335.335,0,0,0,.474.122.331.331,0,0,0,.142-.448A.331.331,0,0,0-506.036,467.345Z" transform="translate(522.326 -439.017)" fill="#0977c3"/><path d="M-495.421,462.018a.334.334,0,0,0-.183.436.33.33,0,0,0,.458.163.334.334,0,0,0,.183-.436A.33.33,0,0,0-495.421,462.018Z" transform="translate(518.495 -437.094)" fill="#0977c3"/><path d="M-492.3,459.551a.329.329,0,0,0-.457-.121.328.328,0,0,0-.154.446.331.331,0,0,0,.473.125A.326.326,0,0,0-492.3,459.551Z" transform="translate(517.527 -436.157)" fill="#0977c3"/><path d="M-509.721,467.946a.328.328,0,0,0-.157.461.33.33,0,0,0,.459.118.327.327,0,0,0,.151-.447A.327.327,0,0,0-509.721,467.946Z" transform="translate(523.656 -439.233)" fill="#0977c3"/><path d="M-502.948,468.377l.251-.112a.37.37,0,0,0-.15.036A.4.4,0,0,0-502.948,468.377Z" transform="translate(521.138 -439.363)" fill="#0977c3"/><path d="M-500.743,467.231a.352.352,0,0,0-.16.151c.12-.059.241-.117.359-.176A.345.345,0,0,0-500.743,467.231Z" transform="translate(520.399 -438.979)" fill="#0977c3"/><path d="M-498.754,466.285c.093-.05.185-.1.277-.153a.367.367,0,0,0-.144.037A.361.361,0,0,0-498.754,466.285Z" transform="translate(519.623 -438.593)" fill="#0977c3"/><path d="M-491.9,461.679c.109-.088.22-.175.328-.265a.349.349,0,0,0-.141.03A.335.335,0,0,0-491.9,461.679Z" transform="translate(517.148 -436.889)" fill="#0977c3"/><path d="M-510.188,469.492a.4.4,0,0,0-.053.039,3.888,3.888,0,0,0,.526.224.3.3,0,0,0-.026-.116A.321.321,0,0,0-510.188,469.492Z" transform="translate(523.771 -439.793)" fill="#0977c3"/><path d="M-508.156,468.422a.321.321,0,0,0-.158.442.322.322,0,0,0,.45.133.322.322,0,0,0,.158-.442A.322.322,0,0,0-508.156,468.422Z" transform="translate(523.089 -439.405)" fill="#0977c3"/><path d="M-493.311,460.968a.322.322,0,0,0-.151.446.324.324,0,0,0,.456.126.322.322,0,0,0,.151-.446A.324.324,0,0,0-493.311,460.968Z" transform="translate(517.727 -436.712)" fill="#0977c3"/><path d="M-490.727,460.053a.32.32,0,0,0-.427-.153.324.324,0,0,0-.184.435.312.312,0,0,0,.376.165c.082-.07.164-.141.243-.213A.3.3,0,0,0-490.727,460.053Z" transform="translate(516.956 -436.332)" fill="#0977c3"/><path d="M-490.522,459.1a3.935,3.935,0,0,0-.266-.424.3.3,0,0,0,0,.24A.307.307,0,0,0-490.522,459.1Z" transform="translate(516.755 -435.902)" fill="#0977c3"/><path d="M-508.634,469.96a.364.364,0,0,0-.109.076,2.672,2.672,0,0,0,.516.043A.32.32,0,0,0-508.634,469.96Z" transform="translate(523.231 -439.965)" fill="#0977c3"/><path d="M-506.594,468.9a.32.32,0,0,0-.146.445.306.306,0,0,0,.183.149l.39-.148a.305.305,0,0,0,.025-.316A.322.322,0,0,0-506.594,468.9Z" transform="translate(522.522 -439.577)" fill="#0977c3"/><path d="M-504.464,467.823a.322.322,0,0,0-.168.439.321.321,0,0,0,.447.142.323.323,0,0,0,.169-.439A.322.322,0,0,0-504.464,467.823Z" transform="translate(521.758 -439.19)" fill="#0977c3"/><path d="M-495.983,463.564a.323.323,0,0,0-.162.443.309.309,0,0,0,.283.173c.117-.075.232-.153.348-.229a.315.315,0,0,0-.017-.25A.322.322,0,0,0-495.983,463.564Z" transform="translate(518.694 -437.651)" fill="#0977c3"/><path d="M-493.858,462.507a.32.32,0,0,0-.155.442.3.3,0,0,0,.061.075q.271-.193.535-.39A.319.319,0,0,0-493.858,462.507Z" transform="translate(517.925 -437.269)" fill="#0977c3"/><path d="M-518.491,441.02h.006l0,0h-.006Z" transform="translate(526.753 -429.524)" fill="#0977c3"/></g><path d="M-517.627,425.234v.013a16.926,16.926,0,0,0-8.068,2.948c-2.444,1.814-5.574,5.19-5.482,9.053-.756-2.124-2.079-5.937-2.622-7.6l12.621-6.4c1.246-.391,2.166-.293,2.585.317A11.426,11.426,0,0,1-517.627,425.234Z" transform="translate(-9.174 -56.446)" fill="#0977c3" fill-rule="evenodd"/><path d="M-535.695,420.487c-.369.228-.759.474-1.17.733-2.946,1.839-6.846,4.265-9.479,5.912a2.522,2.522,0,0,1-2.543-.206,7.139,7.139,0,0,1-1.851-1.466,10.182,10.182,0,0,1-1.2-1.567q-1.3-2.08-2.6-4.155c-1.669-2.666-1.88-5.57-.469-6.451,2.675-1.674,6.651-4.153,9.61-6,.365-.228.712-.443,1.039-.649C-542.867,411.421-539.187,417.731-535.695,420.487Z" transform="translate(-1.176 -50.531)" fill="#138fe4" fill-rule="evenodd"/><path d="M-535.3,427.01l-10.642,6.744a7.139,7.139,0,0,1-1.851-1.466l10.926-6.738Z" transform="translate(-4.119 -57.359)" fill="#057dd0" fill-rule="evenodd"/><path d="M-538.286,406.642c-.326.206-.469.293-.834.521,0,.164,0,5.457,4.849,11a18.97,18.97,0,0,0,2.549,2.38c.224.176.456.351.693.517.079.059.3.181.385.231.411-.259.822-.5,1.191-.733C-532.945,417.8-536.791,411.421-538.286,406.642Z" transform="translate(-7.252 -50.531)" fill="#0977c3" fill-rule="evenodd"/><path d="M-499.1,369.322c-7.54-12.047-12.566-22.834-12.182-25.851q-.432,1.611-.927,3.15a74.273,74.273,0,0,1-25.248,35.666,2.3,2.3,0,0,0-.7,2.289A20.513,20.513,0,0,0-533.089,395a19.488,19.488,0,0,0,2.5,2.342c.224.175.456.35.693.517a2.215,2.215,0,0,0,2.446.294c15.816-9.33,27.8-7.113,44.8-6.64.465.015.93.026,1.4.035C-484.2,390.427-491.631,381.255-499.1,369.322Z" transform="translate(-7.585 -27.72)" fill="#138fe4" fill-rule="evenodd"/><path d="M-535.48,393.2c6.045-4.148,10.975-7.694,16.154-13.01l2.319,4.1c-5.789,4.034-11.729,8.225-17.53,12.186a6.367,6.367,0,0,1-1.041-3.209Zm19.683-16.887a107.277,107.277,0,0,0,6.749-8.91,48.16,48.16,0,0,0,3.964,8.731c-2.7,1.87-5.129,3.423-7.818,5.3Z" transform="translate(-8.53 -36.36)" fill="#fff" fill-rule="evenodd"/><path d="M-472.595,317.472l6.019-15.446-12.053-3.636,25.346-31.683-13.385,27.777,13.568,1.969Z" transform="translate(-29.096)" fill="#fc0" fill-rule="evenodd"/><path d="M-451.484,344.664l20.1-16.716-9.741-10,46.191-19.709-32.491,22.341,12.107,9.195Z" transform="translate(-38.898 -11.387)" fill="#fc0" fill-rule="evenodd"/><path d="M-436.487,392.942l17-2.407-4.009-12.818,40.3,4.72-30.651,3.357,5.516,12.552Z" transform="translate(-44.313 -40.087)" fill="#fc0" fill-rule="evenodd"/><path d="M-466.562,391.547c-.473-.01-.939-.02-1.4-.035-5.219-2.163-13.417-9.979-20.144-20.983-5.441-8.9-8.509-17.939-9.41-23.907q.493-1.541.927-3.15c-.383,3.017,4.643,13.8,12.182,25.851C-476.943,381.255-469.506,390.427-466.562,391.547Z" transform="translate(-22.274 -27.72)" fill="#0977c3" fill-rule="evenodd"/><ellipse cx="9.086" cy="30.757" rx="9.086" ry="30.757" transform="matrix(0.853, -0.522, 0.522, 0.853, -525.139, 316.168)" fill="#138fe4"/><path d="M-462.165,387.834c-2.727,1.671-9.606-4.412-16.575-14.205-.192-.271-.388-.55-.584-.829-1.265-1.811-2.529-3.743-3.77-5.77-1.285-2.1-2.467-4.183-3.535-6.206-5.8-10.966-8.235-20.2-5.449-21.908,3.3-2.016,13.109,6.892,21.367,20.4S-458.866,385.819-462.165,387.834Z" transform="translate(-23.822 -25.973)" fill="#0977c3" fill-rule="evenodd"/><path d="M-486.641,406.94s-11.234-3.121-30.134,4.863a111.344,111.344,0,0,0-10.931,5.637,19.5,19.5,0,0,1-2.5-2.342c4.9-2.738,16.24-9.073,19.541-10.813,8.336-4.395,12.31-5.061,16.7-5.155A92.614,92.614,0,0,0-486.641,406.94Z" transform="translate(-10.472 -47.819)" fill="#057dd0" fill-rule="evenodd"/><g transform="translate(-516.082 313.801)"><path d="M-459.056,370.6a.887.887,0,0,0,.3,1.137.733.733,0,0,0,.909-.075c-.183-.308-.367-.615-.555-.924-.1-.162-.2-.32-.3-.48A.775.775,0,0,0-459.056,370.6Z" transform="translate(479.953 -351.193)" fill="#138fe4"/><path d="M-454.421,378.462a.721.721,0,0,0,.609.065q-.373-.7-.762-1.413a.821.821,0,0,0-.161.22A.879.879,0,0,0-454.421,378.462Z" transform="translate(478.391 -353.67)" fill="#138fe4"/><path d="M-463.315,363.956a.862.862,0,0,0,.316,1.124.709.709,0,0,0,.894-.121q-.451-.676-.905-1.333A.782.782,0,0,0-463.315,363.956Z" transform="translate(481.49 -348.799)" fill="#138fe4"/><path d="M-461.612,369.958a.724.724,0,0,0,1.013-.319.841.841,0,0,0-.323-1.117.711.711,0,0,0-1.011.312A.864.864,0,0,0-461.612,369.958Z" transform="translate(480.991 -350.53)" fill="#138fe4"/><path d="M-457.339,376.556a.708.708,0,0,0,1-.335.86.86,0,0,0-.309-1.1.727.727,0,0,0-1.039.321A.844.844,0,0,0-457.339,376.556Z" transform="translate(479.454 -352.912)" fill="#138fe4"/><path d="M-450.448,384.881a.833.833,0,0,0,.216.461C-450.3,385.188-450.375,385.036-450.448,384.881Z" transform="translate(476.81 -356.474)" fill="#138fe4"/><path d="M-460.571,373.72a.823.823,0,0,0,.307,1.058.7.7,0,0,0,1.006-.3.844.844,0,0,0-.311-1.091A.709.709,0,0,0-460.571,373.72Z" transform="translate(480.495 -352.289)" fill="#138fe4"/><path d="M-464.865,367.068a.846.846,0,0,0,.314,1.091.708.708,0,0,0,.986-.3.842.842,0,0,0-.313-1.089A.709.709,0,0,0-464.865,367.068Z" transform="translate(482.048 -349.901)" fill="#138fe4"/><path d="M-465.891,363.254a.7.7,0,0,0,1.009-.307.821.821,0,0,0-.293-1.064.692.692,0,0,0-1.008.3A.835.835,0,0,0-465.891,363.254Z" transform="translate(482.523 -348.13)" fill="#138fe4"/><path d="M-453.329,382.084a.835.835,0,0,0,.3,1.094.7.7,0,0,0,.985-.3.814.814,0,0,0,.05-.123q-.252-.515-.516-1.034A.689.689,0,0,0-453.329,382.084Z" transform="translate(477.884 -355.322)" fill="#138fe4"/><path d="M-456.254,380.354a.832.832,0,0,0,.319,1.057.7.7,0,0,0,.984-.294.839.839,0,0,0-.325-1.085A.707.707,0,0,0-456.254,380.354Z" transform="translate(478.934 -354.692)" fill="#138fe4"/><path d="M-467.265,358.545a.674.674,0,0,0,.694.008q-.461-.613-.92-1.2a.81.81,0,0,0-.068.1A.821.821,0,0,0-467.265,358.545Z" transform="translate(483.024 -346.532)" fill="#138fe4"/><path d="M-463.453,371.969a.827.827,0,0,0,.307,1.063.7.7,0,0,0,.965-.286.816.816,0,0,0-.289-1.065A.681.681,0,0,0-463.453,371.969Z" transform="translate(481.536 -351.669)" fill="#138fe4"/><path d="M-458.21,378.275a.687.687,0,0,0-.977.312.794.794,0,0,0,.3,1.025.677.677,0,0,0,.977-.3A.83.83,0,0,0-458.21,378.275Z" transform="translate(479.995 -354.054)" fill="#138fe4"/><path d="M-468.806,361.46a.672.672,0,0,0,.953-.287.812.812,0,0,0-.295-1.032.687.687,0,0,0-.958.291A.8.8,0,0,0-468.806,361.46Z" transform="translate(483.576 -347.507)" fill="#138fe4"/><path d="M-467.727,365.336a.806.806,0,0,0,.268,1.038.672.672,0,0,0,.962-.256.814.814,0,0,0-.264-1.041A.685.685,0,0,0-467.727,365.336Z" transform="translate(483.082 -349.285)" fill="#138fe4"/><path d="M-461.121,376.553a.675.675,0,0,0-.942.247.8.8,0,0,0,.253,1.043.672.672,0,0,0,.965-.252A.807.807,0,0,0-461.121,376.553Z" transform="translate(481.039 -353.431)" fill="#138fe4"/><path d="M-470.41,355.572a.777.777,0,0,0,.259,1.034.649.649,0,0,0,.932-.253.8.8,0,0,0,.077-.565c-.135-.169-.27-.339-.405-.5A.652.652,0,0,0-470.41,355.572Z" transform="translate(484.054 -345.763)" fill="#138fe4"/><path d="M-465.414,369.935a.656.656,0,0,0-.955.272.774.774,0,0,0,.3,1.023.647.647,0,0,0,.921-.29A.778.778,0,0,0-465.414,369.935Z" transform="translate(482.59 -351.038)" fill="#138fe4"/><path d="M-448.981,388.91a.78.78,0,0,0,.273,1.027.648.648,0,0,0,.427.087q-.266-.645-.552-1.3A.692.692,0,0,0-448.981,388.91Z" transform="translate(476.313 -357.861)" fill="#138fe4"/><path d="M-451.612,388.089a.672.672,0,0,0,.928-.281.783.783,0,0,0-.3-1.022.656.656,0,0,0-.924.276A.8.8,0,0,0-451.612,388.089Z" transform="translate(477.366 -357.129)" fill="#138fe4"/><path d="M-454.855,385.271a.793.793,0,0,0,.251,1.011.669.669,0,0,0,.958-.266.776.776,0,0,0-.28-1A.646.646,0,0,0-454.855,385.271Z" transform="translate(478.433 -356.486)" fill="#138fe4"/><path d="M-464.033,374.837a.641.641,0,0,0-.921.258.79.79,0,0,0,.266,1,.656.656,0,0,0,.923-.269A.758.758,0,0,0-464.033,374.837Z" transform="translate(482.077 -352.811)" fill="#138fe4"/><path d="M-457.757,383.524a.788.788,0,0,0,.254,1.006.654.654,0,0,0,.928-.256.758.758,0,0,0-.257-1A.641.641,0,0,0-457.757,383.524Z" transform="translate(479.48 -355.858)" fill="#138fe4"/><path d="M-460.717,381.77a.779.779,0,0,0,.269.969.647.647,0,0,0,.92-.271.757.757,0,0,0-.3-.982A.642.642,0,0,0-460.717,381.77Z" transform="translate(480.544 -355.22)" fill="#138fe4"/><path d="M-471.96,358.714a.775.775,0,0,0,.268.974.645.645,0,0,0,.921-.282.759.759,0,0,0-.291-.962A.641.641,0,0,0-471.96,358.714Z" transform="translate(484.605 -346.896)" fill="#138fe4"/><path d="M-470.642,363.621a.757.757,0,0,0,.266.967.637.637,0,0,0,.915-.283.743.743,0,0,0-.268-.962A.627.627,0,0,0-470.642,363.621Z" transform="translate(484.13 -348.661)" fill="#138fe4"/><path d="M-468.341,368.214a.627.627,0,0,0-.893.266.743.743,0,0,0,.279.988.625.625,0,0,0,.884-.289A.747.747,0,0,0-468.341,368.214Z" transform="translate(483.624 -350.422)" fill="#138fe4"/><path d="M-473.024,354.84a.62.62,0,0,0,.89-.259.719.719,0,0,0-.27-.954.608.608,0,0,0-.864.245A.743.743,0,0,0-473.024,354.84Z" transform="translate(485.082 -345.155)" fill="#138fe4"/><path d="M-467.894,373.363a.736.736,0,0,0,.277.929.622.622,0,0,0,.891-.261.757.757,0,0,0-.284-.962A.632.632,0,0,0-467.894,373.363Z" transform="translate(483.134 -352.18)" fill="#138fe4"/><path d="M-463.579,380a.724.724,0,0,0,.235.968.6.6,0,0,0,.873-.219.741.741,0,0,0-.23-.975A.624.624,0,0,0-463.579,380Z" transform="translate(481.586 -354.594)" fill="#138fe4"/><path d="M-453.407,390.218a.746.746,0,0,0,.262.936.62.62,0,0,0,.884-.284.718.718,0,0,0-.287-.92A.61.61,0,0,0-453.407,390.218Z" transform="translate(477.904 -358.275)" fill="#138fe4"/><path d="M-456.1,389.365a.618.618,0,0,0,.868-.252.719.719,0,0,0-.256-.932.608.608,0,0,0-.866.245A.744.744,0,0,0-456.1,389.365Z" transform="translate(478.971 -357.633)" fill="#138fe4"/><path d="M-450.48,391.968a.731.731,0,0,0,.241.937.619.619,0,0,0,.87-.238.715.715,0,0,0-.225-.937A.6.6,0,0,0-450.48,391.968Z" transform="translate(476.85 -358.908)" fill="#138fe4"/><path d="M-447.562,393.717a.744.744,0,0,0,.237.942.608.608,0,0,0,.693-.029q-.219-.607-.459-1.231A.61.61,0,0,0-447.562,393.717Z" transform="translate(475.797 -359.55)" fill="#138fe4"/><path d="M-465.627,378.036a.6.6,0,0,0-.855.27.7.7,0,0,0,.273.919.589.589,0,0,0,.829-.258A.713.713,0,0,0-465.627,378.036Z" transform="translate(482.626 -353.971)" fill="#138fe4"/><path d="M-472.649,361.634a.6.6,0,0,0-.853.278.7.7,0,0,0,.282.917.588.588,0,0,0,.825-.266A.712.712,0,0,0-472.649,361.634Z" transform="translate(485.16 -348.05)" fill="#138fe4"/><path d="M-471.28,366.5a.609.609,0,0,0-.873.221.735.735,0,0,0,.245.939.611.611,0,0,0,.848-.219A.723.723,0,0,0-471.28,366.5Z" transform="translate(484.676 -349.801)" fill="#138fe4"/><path d="M-474.355,350.06a.606.606,0,0,0,.684-.05c-.3-.331-.6-.65-.9-.963a.832.832,0,0,0-.052.079A.732.732,0,0,0-474.355,350.06Z" transform="translate(485.565 -343.534)" fill="#138fe4"/><path d="M-459.018,387.592a.587.587,0,0,0,.843-.213.7.7,0,0,0-.216-.938.588.588,0,0,0-.843.211A.7.7,0,0,0-459.018,387.592Z" transform="translate(480.017 -357.002)" fill="#138fe4"/><path d="M-470.748,371.613a.719.719,0,0,0,.225.907.6.6,0,0,0,.867-.222.71.71,0,0,0-.228-.9A.593.593,0,0,0-470.748,371.613Z" transform="translate(484.168 -351.567)" fill="#138fe4"/><path d="M-474.809,357.009a.716.716,0,0,0,.27.923.6.6,0,0,0,.831-.256.706.706,0,0,0-.272-.919A.593.593,0,0,0-474.809,357.009Z" transform="translate(485.633 -346.29)" fill="#138fe4"/><path d="M-461.956,385.8a.569.569,0,0,0,.829-.234.7.7,0,0,0-.235-.9.592.592,0,0,0-.835.24A.682.682,0,0,0-461.956,385.8Z" transform="translate(481.081 -356.365)" fill="#138fe4"/><path d="M-468.618,376.286a.576.576,0,0,0-.8.266.708.708,0,0,0,.248.875.588.588,0,0,0,.831-.257A.676.676,0,0,0-468.618,376.286Z" transform="translate(483.682 -353.345)" fill="#138fe4"/><path d="M-475.9,353.049a.567.567,0,0,0,.794-.265.693.693,0,0,0-.24-.872.574.574,0,0,0-.825.256A.663.663,0,0,0-475.9,353.049Z" transform="translate(486.124 -344.538)" fill="#138fe4"/><path d="M-464.04,383.8a.678.678,0,0,0-.232-.871.569.569,0,0,0-.806.229.663.663,0,0,0,.21.872A.559.559,0,0,0-464.04,383.8Z" transform="translate(482.123 -355.74)" fill="#138fe4"/><path d="M-474.219,364.788a.571.571,0,0,0-.8.246.682.682,0,0,0,.255.863.571.571,0,0,0,.8-.246A.678.678,0,0,0-474.219,364.788Z" transform="translate(485.706 -349.191)" fill="#138fe4"/><path d="M-475.546,359.956a.554.554,0,0,0-.8.234.648.648,0,0,0,.245.856.542.542,0,0,0,.771-.224A.656.656,0,0,0-475.546,359.956Z" transform="translate(486.187 -347.443)" fill="#138fe4"/><path d="M-472.886,369.627a.556.556,0,0,0-.784.28.648.648,0,0,0,.255.824.543.543,0,0,0,.789-.25A.655.655,0,0,0-472.886,369.627Z" transform="translate(485.217 -350.941)" fill="#138fe4"/><path d="M-454.665,394.279a.55.55,0,0,0,.771-.238.638.638,0,0,0-.242-.855.54.54,0,0,0-.769.231A.659.659,0,0,0-454.665,394.279Z" transform="translate(478.446 -359.445)" fill="#138fe4"/><path d="M-452,395.177a.672.672,0,0,0,.222.843.568.568,0,0,0,.807-.225.657.657,0,0,0-.227-.838A.547.547,0,0,0-452,395.177Z" transform="translate(477.394 -360.079)" fill="#138fe4"/><path d="M-456.851,392.245a.638.638,0,0,0-.226-.83.538.538,0,0,0-.778.194.664.664,0,0,0,.206.871A.552.552,0,0,0-456.851,392.245Z" transform="translate(479.514 -358.801)" fill="#138fe4"/><path d="M-477.444,347.292a.663.663,0,0,0,.218.842.563.563,0,0,0,.8-.238.633.633,0,0,0,.039-.416c-.162-.164-.325-.329-.486-.486A.536.536,0,0,0-477.444,347.292Z" transform="translate(486.584 -342.79)" fill="#138fe4"/><path d="M-467.727,382.3a.563.563,0,0,0,.774-.245.648.648,0,0,0-.237-.833.538.538,0,0,0-.775.213A.661.661,0,0,0-467.727,382.3Z" transform="translate(483.162 -355.122)" fill="#138fe4"/><path d="M-449.079,396.946a.664.664,0,0,0,.227.833.551.551,0,0,0,.792-.238.635.635,0,0,0-.229-.824A.539.539,0,0,0-449.079,396.946Z" transform="translate(476.339 -360.716)" fill="#138fe4"/><path d="M-459.757,390.482a.64.64,0,0,0-.247-.821.53.53,0,0,0-.762.229.653.653,0,0,0,.215.834A.557.557,0,0,0-459.757,390.482Z" transform="translate(480.561 -358.172)" fill="#138fe4"/><path d="M-471.281,375.452a.659.659,0,0,0-.213-.865.558.558,0,0,0-.774.221.642.642,0,0,0,.212.832A.534.534,0,0,0-471.281,375.452Z" transform="translate(484.716 -352.729)" fill="#138fe4"/><path d="M-477.683,355.257a.643.643,0,0,0,.194.837.536.536,0,0,0,.8-.2.661.661,0,0,0-.213-.838A.559.559,0,0,0-477.683,355.257Z" transform="translate(486.674 -345.674)" fill="#138fe4"/><path d="M-446.105,398.741a.665.665,0,0,0,.24.832.55.55,0,0,0,.732-.183c-.088-.3-.181-.6-.279-.914A.537.537,0,0,0-446.105,398.741Z" transform="translate(475.264 -361.368)" fill="#138fe4"/><path d="M-462.76,388.745a.621.621,0,0,0-.178-.836.52.52,0,0,0-.748.173.621.621,0,0,0,.178.836A.518.518,0,0,0-462.76,388.745Z" transform="translate(481.623 -357.535)" fill="#138fe4"/><path d="M-476.911,363.933a.64.64,0,0,0-.18-.814.528.528,0,0,0-.754.173.614.614,0,0,0,.181.808A.52.52,0,0,0-476.911,363.933Z" transform="translate(486.733 -348.583)" fill="#138fe4"/><path d="M-470.645,380.5a.507.507,0,0,0,.721-.254.616.616,0,0,0-.238-.788.521.521,0,0,0-.732.233A.605.605,0,0,0-470.645,380.5Z" transform="translate(484.217 -354.491)" fill="#138fe4"/><path d="M-478.993,350.445a.608.608,0,0,0,.189.8.508.508,0,0,0,.761-.205.617.617,0,0,0-.21-.8A.519.519,0,0,0-478.993,350.445Z" transform="translate(487.145 -343.937)" fill="#138fe4"/><path d="M-475.565,368.758a.6.6,0,0,0-.2-.8.507.507,0,0,0-.74.2.62.62,0,0,0,.2.8A.517.517,0,0,0-475.565,368.758Z" transform="translate(486.246 -350.333)" fill="#138fe4"/><path d="M-466.374,387.168a.509.509,0,0,0,.731-.229.63.63,0,0,0-.249-.792.523.523,0,0,0-.723.266A.591.591,0,0,0-466.374,387.168Z" transform="translate(482.667 -356.91)" fill="#138fe4"/><path d="M-474.236,373.637a.6.6,0,0,0-.245-.785.5.5,0,0,0-.7.233.614.614,0,0,0,.206.772A.521.521,0,0,0-474.236,373.637Z" transform="translate(485.763 -352.107)" fill="#138fe4"/><path d="M-478.3,359.045a.6.6,0,0,0-.214-.794.493.493,0,0,0-.71.2.613.613,0,0,0,.206.8A.522.522,0,0,0-478.3,359.045Z" transform="translate(487.227 -346.83)" fill="#138fe4"/><path d="M-452.773,398.125a.5.5,0,0,0-.708.2.606.606,0,0,0,.212.764.5.5,0,0,0,.708-.205A.6.6,0,0,0-452.773,398.125Z" transform="translate(477.926 -361.231)" fill="#138fe4"/><path d="M-455.686,396.368a.488.488,0,0,0-.7.218.577.577,0,0,0,.194.739.484.484,0,0,0,.71-.192A.576.576,0,0,0-455.686,396.368Z" transform="translate(478.977 -360.596)" fill="#138fe4"/><path d="M-469.269,385.413a.5.5,0,0,0,.706-.224.594.594,0,0,0-.244-.756.5.5,0,0,0-.682.214A.6.6,0,0,0-469.269,385.413Z" transform="translate(483.707 -356.291)" fill="#138fe4"/><path d="M-480.339,354.328a.5.5,0,0,0,.717-.178.6.6,0,0,0-.2-.77.5.5,0,0,0-.712.206A.6.6,0,0,0-480.339,354.328Z" transform="translate(487.696 -345.073)" fill="#138fe4"/><path d="M-480.122,346.33a.5.5,0,0,0,.711-.207.6.6,0,0,0-.227-.762.5.5,0,0,0-.7.233A.6.6,0,0,0-480.122,346.33Z" transform="translate(487.622 -342.18)" fill="#138fe4"/><path d="M-473.561,378.721a.484.484,0,0,0,.7-.206.567.567,0,0,0-.215-.756.478.478,0,0,0-.678.2A.58.58,0,0,0-473.561,378.721Z" transform="translate(485.251 -353.877)" fill="#138fe4"/><path d="M-458.644,394.586a.487.487,0,0,0-.7.211.572.572,0,0,0,.188.737.48.48,0,0,0,.709-.183A.577.577,0,0,0-458.644,394.586Z" transform="translate(480.046 -359.952)" fill="#138fe4"/><path d="M-449.857,399.888a.489.489,0,0,0-.7.222.565.565,0,0,0,.212.73.471.471,0,0,0,.682-.185A.577.577,0,0,0-449.857,399.888Z" transform="translate(476.871 -361.867)" fill="#138fe4"/><path d="M-461.555,392.844a.492.492,0,0,0-.7.223.565.565,0,0,0,.229.723.482.482,0,0,0,.677-.207A.593.593,0,0,0-461.555,392.844Z" transform="translate(481.093 -359.324)" fill="#138fe4"/><path d="M-446.89,401.69a.488.488,0,0,0-.7.222.558.558,0,0,0,.227.717.466.466,0,0,0,.668-.208A.579.579,0,0,0-446.89,401.69Z" transform="translate(475.796 -362.519)" fill="#138fe4"/><path d="M-479.147,367.2a.466.466,0,0,0,.67-.219.576.576,0,0,0-.22-.73.489.489,0,0,0-.675.225A.558.558,0,0,0-479.147,367.2Z" transform="translate(487.274 -349.724)" fill="#138fe4"/><path d="M-480.542,362.33a.482.482,0,0,0,.657-.192.555.555,0,0,0-.189-.733.472.472,0,0,0-.679.191A.58.58,0,0,0-480.542,362.33Z" transform="translate(487.773 -347.97)" fill="#138fe4"/><path d="M-477.378,371.151a.476.476,0,0,0-.666.237.543.543,0,0,0,.207.694.461.461,0,0,0,.671-.2A.567.567,0,0,0-477.378,371.151Z" transform="translate(486.794 -351.495)" fill="#138fe4"/><path d="M-481.667,349.471a.464.464,0,0,0,.644-.21.54.54,0,0,0-.178-.7.454.454,0,0,0-.673.187A.553.553,0,0,0-481.667,349.471Z" transform="translate(488.18 -343.329)" fill="#138fe4"/><path d="M-471.737,382.7a.454.454,0,0,0-.667.206.557.557,0,0,0,.192.7.47.47,0,0,0,.671-.211A.542.542,0,0,0-471.737,382.7Z" transform="translate(484.758 -355.661)" fill="#138fe4"/><path d="M-444.624,403.644a.54.54,0,0,0,.17.732.446.446,0,0,0,.617-.123c-.052-.259-.109-.524-.171-.794A.462.462,0,0,0-444.624,403.644Z" transform="translate(474.734 -363.164)" fill="#138fe4"/><path d="M-464.525,391.074a.47.47,0,0,0-.668.229.54.54,0,0,0,.21.7.458.458,0,0,0,.666-.222A.561.561,0,0,0-464.525,391.074Z" transform="translate(482.153 -358.688)" fill="#138fe4"/><path d="M-476.019,376.035a.467.467,0,0,0-.667.208.547.547,0,0,0,.221.687.461.461,0,0,0,.642-.2A.56.56,0,0,0-476.019,376.035Z" transform="translate(486.301 -353.255)" fill="#138fe4"/><path d="M-481.417,356.582a.445.445,0,0,0-.647.185.539.539,0,0,0,.183.7.45.45,0,0,0,.647-.188A.528.528,0,0,0-481.417,356.582Z" transform="translate(488.249 -346.23)" fill="#138fe4"/><path d="M-467.423,389.37a.444.444,0,0,0-.647.16.548.548,0,0,0,.171.7.465.465,0,0,0,.652-.165A.539.539,0,0,0-467.423,389.37Z" transform="translate(483.196 -358.067)" fill="#138fe4"/><path d="M-483.22,352.54a.446.446,0,0,0,.62-.181.517.517,0,0,0-.183-.664.437.437,0,0,0-.618.174A.538.538,0,0,0-483.22,352.54Z" transform="translate(488.729 -344.467)" fill="#138fe4"/><path d="M-474.656,380.992a.429.429,0,0,0-.608.195.5.5,0,0,0,.187.656.422.422,0,0,0,.606-.19A.51.51,0,0,0-474.656,380.992Z" transform="translate(485.791 -355.048)" fill="#138fe4"/><path d="M-470.346,387.637a.438.438,0,0,0-.618.183.525.525,0,0,0,.2.663.439.439,0,0,0,.594-.177A.52.52,0,0,0-470.346,387.637Z" transform="translate(484.235 -357.447)" fill="#138fe4"/><path d="M-454.33,401.328a.436.436,0,0,0-.618.173.523.523,0,0,0,.164.641.432.432,0,0,0,.623-.147A.516.516,0,0,0-454.33,401.328Z" transform="translate(478.453 -362.39)" fill="#138fe4"/><path d="M-457.257,399.563a.417.417,0,0,0-.585.169.5.5,0,0,0,.161.663.417.417,0,0,0,.608-.176A.493.493,0,0,0-457.257,399.563Z" transform="translate(479.503 -361.755)" fill="#138fe4"/><path d="M-481.638,364.559a.419.419,0,0,0-.608.181.5.5,0,0,0,.158.636.417.417,0,0,0,.615-.156A.5.5,0,0,0-481.638,364.559Z" transform="translate(488.312 -349.112)" fill="#138fe4"/><path d="M-480.283,369.478a.42.42,0,0,0-.6.2.5.5,0,0,0,.177.63.415.415,0,0,0,.608-.176A.5.5,0,0,0-480.283,369.478Z" transform="translate(487.818 -350.891)" fill="#138fe4"/><path d="M-482.365,344.387a.5.5,0,0,0-.155-.668.419.419,0,0,0-.595.141.5.5,0,0,0,.131.673A.419.419,0,0,0-482.365,344.387Z" transform="translate(488.634 -341.585)" fill="#138fe4"/><path d="M-460.209,397.8a.411.411,0,0,0-.588.151.5.5,0,0,0,.159.664.416.416,0,0,0,.606-.188A.484.484,0,0,0-460.209,397.8Z" transform="translate(480.571 -361.114)" fill="#138fe4"/><path d="M-478.924,374.358a.4.4,0,0,0-.587.146.5.5,0,0,0,.172.661.428.428,0,0,0,.585-.178A.489.489,0,0,0-478.924,374.358Z" transform="translate(487.326 -352.649)" fill="#138fe4"/><path d="M-451.447,403.08a.409.409,0,0,0-.572.2.5.5,0,0,0,.2.649.417.417,0,0,0,.574-.2A.482.482,0,0,0-451.447,403.08Z" transform="translate(477.395 -363.028)" fill="#138fe4"/><path d="M-463.1,396.068a.4.4,0,0,0-.592.116.5.5,0,0,0,.141.667.428.428,0,0,0,.592-.148A.49.49,0,0,0-463.1,396.068Z" transform="translate(481.618 -360.484)" fill="#138fe4"/><path d="M-482.8,360.354a.489.489,0,0,0-.2-.62.4.4,0,0,0-.577.178.5.5,0,0,0,.17.633A.432.432,0,0,0-482.8,360.354Z" transform="translate(488.79 -347.372)" fill="#138fe4"/><path d="M-448.467,404.9a.4.4,0,0,0-.578.177.5.5,0,0,0,.181.629.416.416,0,0,0,.58-.185A.474.474,0,0,0-448.467,404.9Z" transform="translate(476.32 -363.68)" fill="#138fe4"/><path d="M-484.535,347.682a.414.414,0,0,0,.586-.176.476.476,0,0,0-.172-.6.4.4,0,0,0-.584.169A.5.5,0,0,0-484.535,347.682Z" transform="translate(489.195 -342.738)" fill="#138fe4"/><path d="M-478.169,379.418a.488.488,0,0,0,.169.633.4.4,0,0,0,.558-.168.475.475,0,0,0-.162-.6A.4.4,0,0,0-478.169,379.418Z" transform="translate(486.84 -354.429)" fill="#138fe4"/><path d="M-473.307,385.883a.4.4,0,0,0-.556.167.461.461,0,0,0,.165.625.391.391,0,0,0,.555-.16A.487.487,0,0,0-473.307,385.883Z" transform="translate(485.287 -356.817)" fill="#138fe4"/><path d="M-466.095,394.282a.387.387,0,0,0-.549.176.467.467,0,0,0,.156.6.4.4,0,0,0,.576-.186A.46.46,0,0,0-466.095,394.282Z" transform="translate(482.677 -359.849)" fill="#138fe4"/><path d="M-484.918,355.032a.46.46,0,0,0,.146.628.386.386,0,0,0,.553-.157.462.462,0,0,0-.14-.6A.386.386,0,0,0-484.918,355.032Z" transform="translate(489.281 -345.623)" fill="#138fe4"/><path d="M-445.557,406.664a.387.387,0,0,0-.545.183.462.462,0,0,0,.164.6.391.391,0,0,0,.57-.194A.456.456,0,0,0-445.557,406.664Z" transform="translate(475.258 -364.322)" fill="#138fe4"/><path d="M-469.535,392.73a.431.431,0,0,0,.16.559.374.374,0,0,0,.546-.16.472.472,0,0,0-.161-.569A.381.381,0,0,0-469.535,392.73Z" transform="translate(483.719 -359.227)" fill="#138fe4"/><path d="M-443.114,408.688a.441.441,0,0,0,.175.555.348.348,0,0,0,.066.022c-.008-.245-.023-.5-.046-.764A.379.379,0,0,0-443.114,408.688Z" transform="translate(474.175 -365.004)" fill="#138fe4"/><path d="M-485.066,363.044a.458.458,0,0,0,.15.572.378.378,0,0,0,.507-.128.436.436,0,0,0-.127-.572A.369.369,0,0,0-485.066,363.044Z" transform="translate(489.327 -348.52)" fill="#138fe4"/><path d="M-483.743,367.938a.44.44,0,0,0,.132.57.373.373,0,0,0,.526-.142.423.423,0,0,0-.138-.565A.352.352,0,0,0-483.743,367.938Z" transform="translate(488.852 -350.284)" fill="#138fe4"/><path d="M-485.548,350.615a.42.42,0,0,0-.138-.564.349.349,0,0,0-.5.121.433.433,0,0,0,.11.573A.362.362,0,0,0-485.548,350.615Z" transform="translate(489.737 -343.876)" fill="#138fe4"/><path d="M-476.07,384.2a.348.348,0,0,0-.294-.033c.134.215.268.431.4.643a.34.34,0,0,0,.041-.05A.417.417,0,0,0-476.07,384.2Z" transform="translate(486.168 -356.21)" fill="#138fe4"/><path d="M-481.856,372.659a.362.362,0,0,0-.491.162.418.418,0,0,0,.149.56.354.354,0,0,0,.514-.165A.431.431,0,0,0-481.856,372.659Z" transform="translate(488.348 -352.046)" fill="#138fe4"/><path d="M-485.789,342.775a.367.367,0,0,0,.514-.17.429.429,0,0,0-.169-.525.359.359,0,0,0-.5.134A.435.435,0,0,0-485.789,342.775Z" transform="translate(489.644 -341.001)" fill="#138fe4"/><path d="M-471.772,390.834a.348.348,0,0,0-.213-.025c.135.193.27.382.405.572l0,0A.423.423,0,0,0-471.772,390.834Z" transform="translate(484.587 -358.613)" fill="#138fe4"/><path d="M-485.946,358.062a.342.342,0,0,0-.491.145.426.426,0,0,0,.15.533.362.362,0,0,0,.5-.15A.412.412,0,0,0-485.946,358.062Z" transform="translate(489.82 -346.771)" fill="#138fe4"/><path d="M-480.231,377.631c.065.116.132.233.2.349A.41.41,0,0,0-480.231,377.631Z" transform="translate(487.565 -353.856)" fill="#138fe4"/><path d="M-461.806,401.065a.333.333,0,0,0-.483.152.425.425,0,0,0,.137.505.349.349,0,0,0,.493-.135A.391.391,0,0,0-461.806,401.065Z" transform="translate(481.098 -362.3)" fill="#138fe4"/><path d="M-458.847,402.845a.334.334,0,0,0-.484.159.421.421,0,0,0,.174.525.353.353,0,0,0,.479-.194A.392.392,0,0,0-458.847,402.845Z" transform="translate(480.03 -362.944)" fill="#138fe4"/><path d="M-456.4,404.748a.409.409,0,0,0,.149.529.355.355,0,0,0,.47-.134.4.4,0,0,0-.13-.532A.329.329,0,0,0-456.4,404.748Z" transform="translate(478.976 -363.578)" fill="#138fe4"/><path d="M-453.491,406.515a.42.42,0,0,0,.136.5.346.346,0,0,0,.491-.142.4.4,0,0,0-.138-.5A.334.334,0,0,0-453.491,406.515Z" transform="translate(477.921 -364.217)" fill="#138fe4"/><path d="M-450.061,408.164a.334.334,0,0,0-.456.156.4.4,0,0,0,.162.492.335.335,0,0,0,.457-.156A.4.4,0,0,0-450.061,408.164Z" transform="translate(476.846 -364.868)" fill="#138fe4"/><path d="M-464.712,399.32a.318.318,0,0,0-.452.157.416.416,0,0,0-.02.078c.126.149.251.3.376.446a.33.33,0,0,0,.247-.189A.376.376,0,0,0-464.712,399.32Z" transform="translate(482.132 -361.673)" fill="#138fe4"/><path d="M-487.286,353.269a.31.31,0,0,0-.452.135.4.4,0,0,0,.125.469.33.33,0,0,0,.464-.114A.374.374,0,0,0-487.286,353.269Z" transform="translate(490.287 -345.042)" fill="#138fe4"/><path d="M-487.326,345.9a.3.3,0,0,0,.426-.142.371.371,0,0,0-.148-.491.316.316,0,0,0-.429.145A.36.36,0,0,0-487.326,345.9Z" transform="translate(490.196 -342.157)" fill="#138fe4"/><path d="M-447.574,410.092a.358.358,0,0,0,.141.458.3.3,0,0,0,.427-.123.374.374,0,0,0-.112-.47A.316.316,0,0,0-447.574,410.092Z" transform="translate(475.784 -365.511)" fill="#138fe4"/><path d="M-485.91,366.164a.312.312,0,0,0-.045-.015c.062.142.126.285.19.427A.351.351,0,0,0-485.91,366.164Z" transform="translate(489.632 -349.71)" fill="#138fe4"/><path d="M-487.894,361.345c.061.159.125.32.187.48a.3.3,0,0,0,.348-.141.354.354,0,0,0-.108-.437A.3.3,0,0,0-487.894,361.345Z" transform="translate(490.332 -347.921)" fill="#138fe4"/><path d="M-444.18,411.781a.28.28,0,0,0-.393.134.344.344,0,0,0,.139.427.3.3,0,0,0,.4-.137A.339.339,0,0,0-444.18,411.781Z" transform="translate(474.698 -366.175)" fill="#138fe4"/><path d="M-488.592,348.434a.274.274,0,0,0-.392.134.292.292,0,0,0,.119.394.253.253,0,0,0,.374-.091A.334.334,0,0,0-488.592,348.434Z" transform="translate(490.737 -343.3)" fill="#138fe4"/><path d="M-488.859,356.434a.248.248,0,0,0-.364.11.315.315,0,0,0,.136.417.269.269,0,0,0,.364-.142A.305.305,0,0,0-488.859,356.434Z" transform="translate(490.824 -346.187)" fill="#138fe4"/><path d="M-488.3,340.858a.292.292,0,0,0-.081-.4.248.248,0,0,0-.363.1.272.272,0,0,0,.078.366A.236.236,0,0,0-488.3,340.858Z" transform="translate(490.654 -340.419)" fill="#138fe4"/><path d="M-490.458,351.719a.4.4,0,0,0,.05.325.194.194,0,0,0,.325-.057,1.433,1.433,0,0,0-.029-.408C-490.272,351.638-490.418,351.645-490.458,351.719Z" transform="translate(491.264 -344.449)" fill="#138fe4"/><path d="M-454.528,409.7a.141.141,0,0,0-.2.06.168.168,0,0,0,.061.219.142.142,0,0,0,.2-.06A.169.169,0,0,0-454.528,409.7Z" transform="translate(478.363 -365.429)" fill="#138fe4"/><path d="M-451.555,411.458a.142.142,0,0,0-.2.06.17.17,0,0,0,.061.219.142.142,0,0,0,.2-.06A.169.169,0,0,0-451.555,411.458Z" transform="translate(477.289 -366.064)" fill="#138fe4"/><path d="M-490.374,343.7c.071.182.089.341.158.375a.312.312,0,0,0,.287-.086c.034-.034-.011-.234-.07-.275S-490.2,343.705-490.374,343.7Z" transform="translate(491.228 -341.601)" fill="#138fe4"/><path d="M-448.625,413.34a.142.142,0,0,0-.2.06.169.169,0,0,0,.061.218.141.141,0,0,0,.2-.06A.169.169,0,0,0-448.625,413.34Z" transform="translate(476.231 -366.744)" fill="#138fe4"/><path d="M-491.71,346.883c.007.074.014.148.022.224a.2.2,0,0,0,.2-.01c.04-.038.02-.148.03-.279-.121.026-.224.016-.256.063Z" transform="translate(491.71 -342.73)" fill="#138fe4"/></g><path d="M-470.386,377.809c.042,1.729-.5,3.179-1.441,3.769l-3.766,2.3c-1.265-1.811-2.529-3.743-3.77-5.77-1.285-2.1-2.467-4.183-3.535-6.206l3.621-2.225c1.73-1.083,5.447.316,7.5,3.589A9.078,9.078,0,0,1-470.386,377.809Z" transform="translate(-27.554 -37.054)" fill="#138fe4" fill-rule="evenodd"/><path d="M-473.477,371.192s1.009.155,3.041,2.077c2,1.894,2.971,4.985,1.667,7.014A3.986,3.986,0,0,1-470.8,382.1a1.269,1.269,0,0,1-1.745-1.02,6.14,6.14,0,0,0,2.672-2.524C-468,374.225-473.477,371.192-473.477,371.192Z" transform="translate(-30.956 -37.73)" fill="#239cef" fill-rule="evenodd"/><path d="M-473.771,383.737l-1.821,1.114c-.358-.516-2.529-3.743-3.77-5.77-1.285-2.1-2.467-4.183-3.535-6.206l1.415-.87s-.044,2.473,2.223,6.289C-476.038,383.718-473.771,383.737-473.771,383.737Z" transform="translate(-27.554 -38.024)" fill="#0977c3" fill-rule="evenodd"/><path d="M-554.093,427.823l.394-.247,2.5,4-.327.205s-.762-.195-1.764-1.74A4.314,4.314,0,0,1-554.093,427.823Z" transform="translate(-1.845 -58.091)" fill="#0977c3" fill-rule="evenodd"/></g></g></svg>