<svg xmlns="http://www.w3.org/2000/svg" width="150.41" height="150.41" viewBox="0 0 150.41 150.41"><g transform="translate(-408 -1270.001)"><g transform="translate(-465.302 2188.877)"><path d="M75.205,0A75.205,75.205,0,1,1,0,75.205,75.205,75.205,0,0,1,75.205,0Z" transform="translate(873.302 -918.876)" fill="#b6d7db" opacity="0.3"/><rect width="75.196" height="94.418" rx="2.797" transform="translate(910.909 -895.326)"/><rect width="60.058" height="75.9" transform="translate(918.478 -886.068)" fill="#fff"/><circle cx="2.42" cy="2.42" r="2.42" transform="translate(946.087 -808.26)" fill="#676767"/><rect width="41.353" height="5.773" transform="translate(927.948 -862.037)" fill="#138fe4"/><rect width="41.353" height="5.702" transform="translate(927.948 -850.772)" fill="#138fe4"/><rect width="41.353" height="5.309" transform="translate(927.948 -839.507)" fill="#138fe4"/><rect width="18.139" height="5.398" transform="translate(927.948 -828.837)" fill="#138fe4"/><path d="M910.98-845.407l12.532-9.927s3.263,4.482.79,7.485c-2.012,2.442-7.619,7.634-7.619,7.634s2.112,7.763-.986,11.988-11.9,12.6-11.9,12.6l-10.209-10.033s4.788-6.091,5.28-8.977,1.2-13.683,1.2-13.683l10.843-10.608Z" fill="#f8af96"/><path d="M890.819-825.082l1.63-1.715,12.64,12.417-1.648,1.909Z" fill="#fff"/><path d="M907.436-808.467l-11.8,18.277a75.229,75.229,0,0,1-17.068-25.78l10.654-10.756,1.618,1.622,12.492,12.524.108.108Z"/><path d="M976.174-862.271l7.222,7.654-26.862,25.78-7.135-7.51Z" fill="#ffda4e"/><path d="M989.2-860.192l-3.616,3.47-7.243-7.652,3.536-3.424Z" fill="#ffda4e"/><path d="M985.587-856.722l-2.191,2.1-7.222-7.654,2.17-2.1Z"/><path d="M979.468-850.848,989.2-841.6l-8.378,11.183-5.21-2.663S970.052-828.3,964-829.917s-8.519-4.764-9.505-6.431a28.913,28.913,0,0,1,3.661-2.722,3.759,3.759,0,0,1,3.38.141c1.76.845,4.253,1.212,6.084-.545Z" fill="#f8af96"/><path d="M991.316-841.323l-1.619-1.2-11.125,15.067,1.338,1.267Z" fill="#fff"/><path d="M1020.074-820.491a75.11,75.11,0,0,1-14.718,26.056L977.938-823.44,991.95-842.1Z"/><path d="M956.534-828.837l-9.257,3.5-1.347-1.541,3.468-9.471Z" fill="#d2d4c5"/><path d="M947.277-825.335l-2.219.841.872-2.382Z"/><path d="M962.168-848.71a5.345,5.345,0,0,0-3.592,3.965c-.211,2.014.141,3.844-1.479,5.112s-3.309,2.6-3.591,1.619-1.549-5.562-.915-7.956,1.056-4.3,1.972-4.647,13.864-4.153,13.864-4.153Z" fill="#f8af96"/></g><g transform="translate(1875.21 1530.223)"><path d="M-1340.9-125.584c.133-.3.237-.55.35-.793a1.062,1.062,0,0,0-.2-1.129,4.672,4.672,0,0,0-1.4-1.133c-.7-.43-1.429-.826-2.123-1.272a3.222,3.222,0,0,1-1.207-1.229,2.087,2.087,0,0,1-.086-1.941,1.567,1.567,0,0,1,1.438-.829,3.366,3.366,0,0,0-.176.96,1.553,1.553,0,0,0,.407,1.03,5.072,5.072,0,0,0,1.43,1.1c.637.384,1.3.732,1.942,1.1a4.946,4.946,0,0,1,1.112.8,1.934,1.934,0,0,1,.538,1.8,1.722,1.722,0,0,1-1.172,1.354A4.481,4.481,0,0,1-1340.9-125.584Z" transform="translate(-48.292 -82.634)"/><path d="M-1330.6-214.452c-.154-.238-.286-.418-.394-.611-.414-.742-.818-1.49-1.231-2.232-.379-.681-.765-1.357-1.147-2.036-.359-.638-.7-1.282-1.078-1.911a5.593,5.593,0,0,0-.554-.733,2.64,2.64,0,0,0-1.169-.726c0,.312-.009.592-.011.871s0,.544,0,.816l-.075.02c-.117-.243-.232-.487-.351-.729a1.467,1.467,0,0,0-.543-.591c-.233-.148-.487-.263-.8-.43h6.582c-.235.107-.444.2-.653.3a.834.834,0,0,0-.391,1.248c.348.682.768,1.327,1.118,2.008a13.539,13.539,0,0,1,.966,1.888,3.706,3.706,0,0,1,.243,1.176A3.3,3.3,0,0,1-1330.6-214.452Z" transform="translate(-55.537 -0.173)"/><path d="M-1397.781-222.928c1.058,0,2.037,0,3.064,0-.183.278-.311.484-.452.68a1.311,1.311,0,0,0-.205.67c-.154,1.595-.038,3.194-.066,4.79a5.508,5.508,0,0,0,.084.992,2.282,2.282,0,0,0,.585,1.07,17.494,17.494,0,0,1-2.927.032,3.3,3.3,0,0,1,.239-.383,1.66,1.66,0,0,0,.381-1.081c.009-1.742,0-3.485,0-5.227a2.135,2.135,0,0,0-.538-1.322C-1397.654-222.76-1397.694-222.815-1397.781-222.928Z" transform="translate(0 0)"/><path d="M-1218.526-222.669c-.28.168-.55.328-.818.491a1.659,1.659,0,0,0-.661.9c-.046.123-.068.253-.25.287a2.428,2.428,0,0,0-1.6-1.675Z" transform="translate(-163.316 -0.244)"/><path d="M-1342.447-50.377a6.859,6.859,0,0,0,.485.989,3.3,3.3,0,0,0,.761.781,6.953,6.953,0,0,0,1,.512,11.061,11.061,0,0,1-2.23.019.453.453,0,0,1-.062-.154c0-.712,0-1.424,0-2.136Z" transform="translate(-51.316 -160.182)"/><path d="M-1353.028-168.54a4.576,4.576,0,0,0-1.943-.845,2.832,2.832,0,0,1,.524-.185,2.791,2.791,0,0,0,1.234-.563c.045-.033.1-.058.148-.088A5.19,5.19,0,0,1-1353.028-168.54Z" transform="translate(-39.741 -48.932)"/><path d="M-1280.1-132.47a2.765,2.765,0,0,0-.615-1.134,5.132,5.132,0,0,0-1.074-.644,7.466,7.466,0,0,1,1.712-.018A6.912,6.912,0,0,1-1280.1-132.47Z" transform="translate(-107.673 -82.27)"/><g transform="translate(-1386.611 -213.204)"><g transform="translate(0.411 0.273)"><path d="M-1236.251-83.461h.324a.356.356,0,0,1,.122.019.244.244,0,0,1,.088.053.213.213,0,0,1,.045.07.234.234,0,0,1,.016.087v0a.209.209,0,0,1-.048.144.258.258,0,0,1-.124.076l.2.276h-.152l-.179-.254h-.16v.254h-.128Zm.315.361a.168.168,0,0,0,.109-.033.108.108,0,0,0,.041-.089v0a.107.107,0,0,0-.039-.09.178.178,0,0,0-.111-.031h-.186v.244Z" transform="translate(1236.251 83.461)"/></g><g transform="translate(0)"><path d="M-1241.314-85.925a.675.675,0,0,1-.674-.674.675.675,0,0,1,.674-.674.674.674,0,0,1,.674.674A.674.674,0,0,1-1241.314-85.925Zm0-1.287a.614.614,0,0,0-.614.614.615.615,0,0,0,.614.614.614.614,0,0,0,.614-.614A.614.614,0,0,0-1241.314-87.212Z" transform="translate(1241.988 87.272)"/></g></g></g></g></svg>