<svg xmlns="http://www.w3.org/2000/svg" width="55.876" height="60" viewBox="0 0 55.876 60">
  <g id="Group_6183" data-name="Group 6183" transform="translate(-289.911 -238.683)">
    <g id="Group_6179" data-name="Group 6179" transform="translate(296.954 238.683)">
      <path id="Path_4484" data-name="Path 4484" d="M360.684,310.625a2.742,2.742,0,0,1,2.853-.727l-.274,1.432a1.427,1.427,0,0,0-1.641.314,1.8,1.8,0,0,0,.248,2.579,1.845,1.845,0,0,0,2.6.316,1.427,1.427,0,0,0,.337-1.625l1.44-.357a2.931,2.931,0,0,1-.838,3,3.4,3.4,0,0,1-4.711-.27A3.265,3.265,0,0,1,360.684,310.625Z" transform="translate(-359.709 -302.582)" fill="#8b9091"/>
      <path id="Path_4485" data-name="Path 4485" d="M411.6,277.181l-3.21-5.919,2.668-1.447a2.292,2.292,0,0,1,3.019.952,2.22,2.22,0,0,1-.036,2.242l2.553,1.464-1.542.837-2.228-1.262-.892.484,1.036,1.909Zm-.315-3.843,1.25-.678c.325-.176.407-.663.149-1.138a.835.835,0,0,0-1.068-.457l-1.209.656Z" transform="translate(-403.479 -266.45)" fill="#8b9091"/>
      <path id="Path_4486" data-name="Path 4486" d="M484.834,243.227l-.7-3.37,1.522-.318.7,3.37c.38,1.82-.206,3.464-2.24,3.888-2.107.44-3.248-.939-3.609-2.666l-.7-3.37,1.523-.318.7,3.37c.209,1,.773,1.844,1.8,1.629C484.883,245.223,485.038,244.2,484.834,243.227Z" transform="translate(-467.686 -239.453)" fill="#8b9091"/>
      <path id="Path_4487" data-name="Path 4487" d="M566.374,244.365l-.094,1.363-4.722-.326.463-6.718,4.637.32-.094,1.362-3.085-.213-.09,1.306,2.65.183-.087,1.259-2.649-.183-.1,1.429Z" transform="translate(-541.191 -238.683)" fill="#8b9091"/>
      <path id="Path_4488" data-name="Path 4488" d="M616.35,253.461l2.089-6.4,1.479.482-1.665,5.1,3.1,1.012-.424,1.3Z" transform="translate(-590.455 -246.215)" fill="#8b9091"/>
      <path id="Path_4489" data-name="Path 4489" d="M678.521,268.567l-1.769-1.034-2.709,4.634-1.343-.785,2.709-4.634-1.777-1.039.689-1.179,4.888,2.858Z" transform="translate(-641.119 -261.922)" fill="#8b9091"/>
      <path id="Path_4490" data-name="Path 4490" d="M723.791,303.752l-1.174,3.207,3.238-1.126,1.189,1.2-4.835,1.428-1.63,1.616-1.1-1.1,1.643-1.629,1.476-4.789Z" transform="translate(-683.182 -296.108)" fill="#8b9091"/>
    </g>
    <g id="Group_6180" data-name="Group 6180" transform="translate(304.281 289.131)">
      <path id="Path_4491" data-name="Path 4491" d="M432.329,744.851l2.66-6.187,4.2,1.806-.539,1.255-2.771-1.191-.573,1.333,2.283.981-.5,1.159-2.283-.982-1.049,2.44Z" transform="translate(-432.329 -738.664)" fill="#8b9091"/>
      <path id="Path_4492" data-name="Path 4492" d="M501.254,766.121l.93-6.669,3.006.419a2.292,2.292,0,0,1,1.865,2.558,2.22,2.22,0,0,1-1.36,1.783l1.185,2.693-1.738-.242-1.043-2.339-1.005-.14-.3,2.151Zm2.028-3.279,1.409.2c.366.051.721-.292.8-.827a.835.835,0,0,0-.588-1l-1.362-.19Z" transform="translate(-494.299 -757.354)" fill="#8b9091"/>
      <path id="Path_4493" data-name="Path 4493" d="M581.988,765.376l.178,1.354-4.693.617-.878-6.677,4.608-.606.178,1.354-3.066.4.171,1.3,2.633-.346.164,1.251-2.633.346.187,1.42Z" transform="translate(-562.039 -757.905)" fill="#8b9091"/>
      <path id="Path_4494" data-name="Path 4494" d="M641.532,743.758l.52,1.263-4.377,1.8-2.561-6.228,4.3-1.768.519,1.263-2.859,1.176.5,1.21,2.456-1.01.48,1.167-2.456,1.01.545,1.324Z" transform="translate(-614.653 -738.81)" fill="#8b9091"/>
    </g>
    <path id="Path_4495" data-name="Path 4495" d="M436.159,352.339a11.152,11.152,0,0,0-4.865-1.447c-.346-2.847.117-8.276-2.5-8.278-1.727,0-1.522,3.479-1.522,3.479s-2.652-2.286-3.759-.836c-.974,1.277.289,2.63,1.6,4.054.7.759,2.217,2.388,2.5,3.553.85,3.557-2.836,3.139-5.128,3.417-6.825.829-12.6,5.242-13.031,12.353a13.631,13.631,0,0,0,.678,5.65,16.1,16.1,0,0,0,1.708,3.418s-1.63-2.567-3.6-1.4c-1.145.678-.734,3.415,1.626,3.373.624-.011,1.794.017,2.1,0a8.4,8.4,0,0,0,2.1-.658l.655.658h10.118c.293,0,1.449.036,1.862,0a1.756,1.756,0,0,0-1.2-1.863c-1.444-.657-1.838.416-3.679-.109l-.919-1.052a6.725,6.725,0,0,0,4.075-3.942l1.031,1.459a13.024,13.024,0,0,1,2.225,3.565s.542,1.943,1.027,1.943h2.966c.649,0,.393-1.276-1.074-1.972-.77-.365-1.536-2.2-1.708-3.155a4.691,4.691,0,0,1,.393-2.5c.782-1.91,2.15-3.967,3.416-6.439s-.724-4.449.394-5.651c.542-.583,3.206-1.064,4.731-1.577C441.842,357.222,439.017,353.832,436.159,352.339Zm-1.42,3.3a1.154,1.154,0,1,1,1.151-1.154A1.155,1.155,0,0,1,434.738,355.636Z" transform="translate(-105.844 -93.444)" fill="#8b9091" fill-rule="evenodd"/>
    <g id="Group_6181" data-name="Group 6181" transform="translate(289.911 254.559)">
      <path id="Path_4496" data-name="Path 4496" d="M300.078,431.546a27.947,27.947,0,0,1-6.431-35.523l1.572.909a26.131,26.131,0,0,0,6.015,33.212Z" transform="translate(-289.911 -396.023)" fill="#8b9091"/>
    </g>
    <g id="Group_6182" data-name="Group 6182" transform="translate(334.494 254.559)">
      <path id="Path_4497" data-name="Path 4497" d="M732.921,431.52l-1.158-1.4a26.135,26.135,0,0,0,5.985-33.188l1.572-.909a27.951,27.951,0,0,1-6.4,35.5Z" transform="translate(-731.763 -396.023)" fill="#8b9091"/>
    </g>
  </g>
</svg>
