<svg xmlns="http://www.w3.org/2000/svg" width="56.43" height="55.021" viewBox="0 0 56.43 55.021">
  <g id="Group_6188" data-name="Group 6188" transform="translate(-72.578 -81.002)">
    <g id="Group_6185" data-name="Group 6185" transform="translate(101.574 97.747)">
      <path id="Path_4501" data-name="Path 4501" d="M571.084,290.57l5.134,8.892a6.66,6.66,0,0,1,.933,3.665c-.943,4.753-3.151,6.41-7.678,6.508h-2.621l-7.2-12.466Z" transform="translate(-549.732 -290.57)" fill="#8b9091" fill-rule="evenodd"/>
      <path id="Path_4502" data-name="Path 4502" d="M443.37,485.185h9.824c3.483,0,6.823.361,8.957-3.151l.006.037-8.5,14.727a3.939,3.939,0,0,1-3.582,1.584h-6.7v4.962l-7.9-11.561,7.9-11.561Z" transform="translate(-435.467 -465.069)" fill="#8b9091" fill-rule="evenodd"/>
    </g>
    <g id="Group_6186" data-name="Group 6186" transform="translate(72.578 99.759)">
      <path id="Path_4503" data-name="Path 4503" d="M206.774,562.376H196.506a6.66,6.66,0,0,1-3.641-1.024c-3.644-3.193-3.976-5.934-1.8-9.9l1.311-2.27h14.4Z" transform="translate(-180.35 -530.527)" fill="#8b9091" fill-rule="evenodd"/>
      <path id="Path_4504" data-name="Path 4504" d="M88.3,325.893,83.393,334.4c-1.741,3.016-3.724,5.728-1.749,9.333l-.035-.013-8.5-14.727a3.939,3.939,0,0,1,.419-3.894l.456-.789h0l2.9-5.015-4.3-2.481,13.964-1.064L92.6,328.374Z" transform="translate(-72.578 -315.749)" fill="#8b9091" fill-rule="evenodd"/>
    </g>
    <g id="Group_6187" data-name="Group 6187" transform="translate(81.736 81.002)">
      <path id="Path_4505" data-name="Path 4505" d="M187.2,104.542l5.134-8.892a6.659,6.659,0,0,1,2.708-2.641c4.588-1.559,7.127-.477,9.475,3.4l1.31,2.27-7.2,12.466Z" transform="translate(-187.195 -91.418)" fill="#8b9091" fill-rule="evenodd"/>
      <path id="Path_4506" data-name="Path 4506" d="M349.823,95.715l-4.912-8.508c-1.741-3.016-3.1-6.089-7.208-6.181l.029-.024h17.006a3.939,3.939,0,0,1,3.163,2.31l.456.789h0l2.9,5.015,4.3-2.481L359.489,99.26,345.525,98.2Z" transform="translate(-325.677 -81.002)" fill="#8b9091" fill-rule="evenodd"/>
    </g>
  </g>
</svg>
