<svg xmlns="http://www.w3.org/2000/svg" width="223.84" height="47.686" viewBox="0 0 223.84 47.686"><g transform="translate(0)"><path d="M-6037.668-5738.025c.934,2.057,1.635,4.216,2.459,6.321s1.619,4.242,2.435,6.361c.812,2.1,1.55,4.232,2.529,6.525a46.592,46.592,0,0,0,1.912-4.92c.6-1.594,1.165-3.2,1.742-4.8.563-1.554,1.117-3.113,1.684-4.67.581-1.6,1.164-3.187,1.722-4.711a8.7,8.7,0,0,1,3.836-.077,8.3,8.3,0,0,1,.47.936q2.355,6.313,4.687,12.636c.657,1.769,1.324,3.534,2.062,5.5a8.577,8.577,0,0,0,.542-.968q3.182-8.2,6.35-16.4c.219-.571.458-1.133.663-1.638a7.425,7.425,0,0,1,3.758,0,3.371,3.371,0,0,1-.118.661c-3.121,7.811-6.2,15.641-9.323,23.344a4.269,4.269,0,0,1-1.953.218c-.606.014-1.214-.019-1.894-.03-.26-.627-.513-1.181-.723-1.749q-2.963-7.981-5.913-15.965c-.129-.346-.288-.68-.533-1.26-2.358,6.429-4.633,12.63-6.878,18.747a9.061,9.061,0,0,1-3.887.124c-.147-.31-.354-.675-.5-1.061q-3.833-9.847-7.653-19.706c-.306-.793-.628-1.581-.928-2.378a7.041,7.041,0,0,1-.2-.806c.141-.122.236-.276.348-.29A10.223,10.223,0,0,1-6037.668-5738.025Z" transform="translate(6041.324 5747.521)"/><path d="M-5114.367-5738.089a14.164,14.164,0,0,1,3.8.056c1.261,3.146,2.445,6.329,3.651,9.5s2.38,6.347,3.75,9.741c.256-.534.418-.8.522-1.092q3.041-8.4,6.071-16.812c.16-.44.345-.871.523-1.312a13.417,13.417,0,0,1,3.749-.115c1.011,2.1,1.658,4.276,2.476,6.382.8,2.072,1.549,4.167,2.323,6.249q1.187,3.187,2.38,6.378c.523-.151.535-.583.661-.908q3.19-8.2,6.354-16.405c.2-.525.433-1.043.684-1.646a13.232,13.232,0,0,1,3.68,0,2.837,2.837,0,0,1-.069.641q-4.684,11.793-9.4,23.631a17.6,17.6,0,0,1-3.84-.02c-.175-.41-.379-.827-.539-1.259q-2.938-7.915-5.87-15.829c-.2-.53-.418-1.047-.7-1.735-.762,1.645-1.245,3.214-1.81,4.75q-.884,2.4-1.762,4.8c-.57,1.554-1.132,3.111-1.714,4.66s-1.054,3.122-1.768,4.62c-.413.038-.735.091-1.059.1-.846.01-1.695,0-2.58,0a10.851,10.851,0,0,1-.554-1.044q-3.658-9.385-7.3-18.777c-.462-1.19-.926-2.379-1.379-3.573C-5114.187-5737.361-5114.24-5737.633-5114.367-5738.089Z" transform="translate(5245.944 5747.527)"/><path d="M-4675.119-5790.129v-6.9c0-1.136-.021-2.272.008-3.407a14.373,14.373,0,0,1,.142-3.273,6.433,6.433,0,0,1,3.174-.034,2.465,2.465,0,0,1,.232,1.571c.011,3.454.007,6.909.007,10.361q0,9.862,0,19.728c0,.562-.021,1.125-.033,1.737a7.177,7.177,0,0,1-3.317.126c-.444-1.35-.049-2.73-.3-4.2-.173.206-.3.329-.391.469a10.115,10.115,0,0,1-6.6,4.311,14.13,14.13,0,0,1-9.636-1.36,10.2,10.2,0,0,1-4.712-5.123,14.9,14.9,0,0,1-.32-11.607,11.069,11.069,0,0,1,8.367-7.149,14.059,14.059,0,0,1,6.745,0,10.584,10.584,0,0,1,5.84,3.8C-4675.718-5790.842-4675.51-5790.6-4675.119-5790.129Zm.12,7.876c-.026-.518-.032-1.039-.08-1.557a8.945,8.945,0,0,0-6.778-8.009,10.984,10.984,0,0,0-4.636-.216,8.776,8.776,0,0,0-7.208,6.236,11.131,11.131,0,0,0,.125,7.38,8.22,8.22,0,0,0,5.946,5.574,11.232,11.232,0,0,0,7.1-.476,8.229,8.229,0,0,0,3.918-3.151A9.828,9.828,0,0,0-4675-5782.252Z" transform="translate(4888.583 5803.93)"/><path d="M-5722.2-5729.454c-.6.019-1.114.046-1.627.048q-9.721,0-19.442,0c-.509,0-1.02.036-1.464.052a1.583,1.583,0,0,0-.179,1.326,8.489,8.489,0,0,0,6.957,7.3,14.156,14.156,0,0,0,7.007-.387,6.465,6.465,0,0,0,4.162-3.6c.2-.422.41-.838.621-1.273a7.493,7.493,0,0,1,3.318.125,5.946,5.946,0,0,1-.216.981,11.022,11.022,0,0,1-6.542,6.5,16.638,16.638,0,0,1-10.451.446,11.089,11.089,0,0,1-8.108-8.484,14.968,14.968,0,0,1,.233-8.533,10.986,10.986,0,0,1,7.855-7.693,16.6,16.6,0,0,1,10.851.552,10.542,10.542,0,0,1,6.169,6.464,18.974,18.974,0,0,1,.979,5A6.728,6.728,0,0,1-5722.2-5729.454Zm-22.692-2.876a6.764,6.764,0,0,0,.869.167c4.2.2,17.03.071,18.1-.167.03-.09.1-.183.082-.265a8.442,8.442,0,0,0-6-7.039,11.32,11.32,0,0,0-6.291-.2A8.575,8.575,0,0,0-5744.892-5732.331Z" transform="translate(5790.215 5751.908)"/><path d="M-5357.115-5733.141c1.1-.967,2.18-1.957,3.3-2.9a25.22,25.22,0,0,1,5.8-3.8,7.682,7.682,0,0,1,3.852-.756,4.3,4.3,0,0,1,.84.118,1.164,1.164,0,0,1,.941,1.379,6.417,6.417,0,0,1-.472,1.626c-1.706,3.857-3.006,7.863-4.388,11.837a20.98,20.98,0,0,0-.634,2.321,2.221,2.221,0,0,0,.087,1.586,1.164,1.164,0,0,0,1.391-.2c1-.713,1.977-1.457,2.921-2.24.839-.692,1.613-1.457,2.432-2.176a9.63,9.63,0,0,1,.857-.6l.779.632a4.361,4.361,0,0,1-.423.782,34.9,34.9,0,0,1-5.8,5.406,10.744,10.744,0,0,1-4.072,1.937,5.175,5.175,0,0,1-.836.143,1.9,1.9,0,0,1-2.229-2.35,11.083,11.083,0,0,1,.487-2.212c1.068-3.13,2.173-6.25,3.283-9.369.411-1.16.862-2.3,1.3-3.451a1.5,1.5,0,0,0,.07-1.358.865.865,0,0,0-1.05-.165,10.826,10.826,0,0,0-1.626.859,29.651,29.651,0,0,0-5.46,4.727c-1.4,1.537-2.709,3.157-4.059,4.74a23.622,23.622,0,0,0-2.788,4.269c-.557,1.041-1.093,2.1-1.689,3.118a5.476,5.476,0,0,1-1.038,1.327.79.79,0,0,1-1.361-.532,2.871,2.871,0,0,1,.08-1.117,32.061,32.061,0,0,1,1.051-3.384c.958-2.365,1.979-4.707,3.02-7.037a65.782,65.782,0,0,1,6.09-10.557c.588-.854,1.275-1.641,1.942-2.44a2.983,2.983,0,0,1,.757-.634,1.776,1.776,0,0,1,1.5-.2,1.352,1.352,0,0,1,1.034,1.082,2.42,2.42,0,0,1-.649,1.364c-.919,1.319-1.874,2.615-2.767,3.95a20.862,20.862,0,0,0-2.457,4.295Z" transform="translate(5462.48 5752.423)"/><path d="M-5546.7-5784.477c.129-2.586-.027-4.985.1-7.393a6.861,6.861,0,0,1,3.387-.043,10.123,10.123,0,0,1,.129,1.125c.013,1.559,0,3.121,0,4.681v1.475a6.692,6.692,0,0,0,1.023.187c1.37.02,2.741,0,4.112.015.463,0,.923.052,1.421.08a4.692,4.692,0,0,1,.059,2.625,6.454,6.454,0,0,1-.963.165c-1.323.02-2.648.011-3.974.011h-1.482a5.946,5.946,0,0,0-.185,1.006q-.016,7.31,0,14.616a7.617,7.617,0,0,0,.2,1.541,1.8,1.8,0,0,0,1.532,1.479,6.866,6.866,0,0,0,2.391.156,9.118,9.118,0,0,1,2.4-.078,5.305,5.305,0,0,1,.144,2.625,1.39,1.39,0,0,1-1.212.484c-1.419.022-2.838.043-4.254.017a5.548,5.548,0,0,1-1.39-.258,4.035,4.035,0,0,1-3.189-3.408,16.5,16.5,0,0,1-.2-2.4c-.019-4.682-.009-9.364-.012-14.046,0-.511-.032-1.021-.052-1.622-1.65-.3-3.266.061-4.883-.244a4.41,4.41,0,0,1-.069-2.51,5.018,5.018,0,0,1,2.388-.242C-5548.473-5784.472-5547.676-5784.462-5546.7-5784.477Z" transform="translate(5621.289 5793.783)"/><path d="M-4749.39-5803.692a6.9,6.9,0,0,1,3.4.008,7.773,7.773,0,0,1,.129.86c.172,4.579.063,31.23-.144,32.53a7.336,7.336,0,0,1-3.2.106,5.177,5.177,0,0,1-.209-.809c-.036-.374-.013-.753-.013-1.132q0-14.883,0-29.766C-4749.424-5802.454-4749.4-5803.015-4749.39-5803.692Z" transform="translate(4932.81 5803.903)"/><path d="M-4805.963-5713.788a11.52,11.52,0,0,1-3.47.035c-.057-.457-.131-.822-.142-1.184-.2-8.219-.085-21.756.185-22.927a5.713,5.713,0,0,1,3.338-.022,2.966,2.966,0,0,1,.163,1.487q.012,5.881,0,11.768,0,4.61,0,9.217C-4805.889-5714.907-4805.935-5714.4-4805.963-5713.788Z" transform="translate(4984.502 5747.465)"/><path d="M-4756.943-5516.806c.173.118.33.168.4.276a1.861,1.861,0,0,0,1.854.771c1.436-.022,1.819-.382,2.019-1.993-.322.145-.6.281-.886.394a3.252,3.252,0,0,1-2.485,0,2.639,2.639,0,0,1-1.583-3.127,2.468,2.468,0,0,1,2.3-2.13,3.479,3.479,0,0,1,2.422.466c.326-.134.616-.255.983-.409a2.134,2.134,0,0,1,.279.671c.024,1.51.059,3.021,0,4.529a2.275,2.275,0,0,1-1.922,2.3,4.156,4.156,0,0,1-2.772-.159,1.507,1.507,0,0,1-.959-.972.681.681,0,0,1,.043-.4C-4757.227-5516.658-4757.11-5516.695-4756.943-5516.806Zm2.083-1.221a1.914,1.914,0,0,0,2.239-1.817,1.925,1.925,0,0,0-1.952-1.993,1.89,1.89,0,0,0-2.116,1.793A1.746,1.746,0,0,0-4754.86-5518.027Z" transform="translate(4939.886 5562.576)"/><path d="M-4808.85-5798.7a14.627,14.627,0,0,1,.053-5.017,6.073,6.073,0,0,1,3.222,0,14.746,14.746,0,0,1,.059,4.984c-.473.357-1.055.208-1.6.214A3.5,3.5,0,0,1-4808.85-5798.7Z" transform="translate(4983.957 5803.93)"/><path d="M-4689.7-5519.627c-1.582.439-3.165-.037-4.781.339a2.468,2.468,0,0,0,.277.785,2.244,2.244,0,0,0,3.07.263c.222-.169.4-.412.628-.557.125-.077.337-.012.552-.012a1.364,1.364,0,0,1-.747,1.316,3.059,3.059,0,0,1-2.282.557,2.665,2.665,0,0,1-2.553-3.113c.1-1.691,1.2-2.61,3.079-2.552C-4690.635-5522.548-4689.756-5521.645-4689.7-5519.627Zm-4.793-.7c1.113.067,2.132.052,3.146.025a2.268,2.268,0,0,0,.621-.226,1.851,1.851,0,0,0-2.081-1.236A1.716,1.716,0,0,0-4694.492-5520.332Z" transform="translate(4886.571 5562.538)"/><path d="M-4603.478-5519.011c.193.077.353.143.512.206a2.835,2.835,0,0,1-3.711,1.654,2.761,2.761,0,0,1-1.917-3.322c.382-1.663,1.641-2.429,3.565-2.187a2.427,2.427,0,0,1,1.7.9,2.254,2.254,0,0,1,.526,2.031c-1.5.5-3.087-.048-4.683.366a2.259,2.259,0,0,0,.228.78,2.227,2.227,0,0,0,3.058.269A9.1,9.1,0,0,0-4603.478-5519.011Zm-4.088-1.51a12.437,12.437,0,0,0,3.71.049c-.367-1.018-.98-1.506-1.853-1.4a3.3,3.3,0,0,0-1.289.483C-4607.229-5521.246-4607.333-5520.895-4607.566-5520.521Z" transform="translate(4812.029 5562.622)"/><path d="M-4868.883-5517.928c.3.219.527.384.833.606-.238.2-.38.408-.5.4-.451-.049-.894-.17-1.409-.278a8.622,8.622,0,0,1-1.658.443,4.09,4.09,0,0,1-1.646-.249,1.383,1.383,0,0,1-.915-1.456,1.316,1.316,0,0,1,.918-1.3,10.8,10.8,0,0,1,1.791-.343c.551-.077,1.139-.013,1.551-.458a.645.645,0,0,0-.4-.832,2.314,2.314,0,0,0-2.7.522,4.992,4.992,0,0,1-.8.49,3.236,3.236,0,0,1-.022-.811,1.533,1.533,0,0,1,1.348-1.1,9.154,9.154,0,0,1,2.247,0,1.481,1.481,0,0,1,1.341,1.568C-4868.849-5519.841-4868.883-5518.945-4868.883-5517.928Zm-1.036-1.391a5.957,5.957,0,0,0-2.9.305c-.327.358-.4.694-.188.979a1.276,1.276,0,0,0,.677.439,2.28,2.28,0,0,0,1.639-.2A1.276,1.276,0,0,0-4869.919-5519.319Z" transform="translate(5039.849 5562.338)"/><path d="M-4548.557-5519.125c1.275,1.175,1.876,1.4,2.93,1.186.5-.1.633-.222.943-.888-.2-.533-.685-.576-1.151-.65-.559-.089-1.128-.137-1.674-.274-.829-.21-1.25-.686-1.271-1.322a1.584,1.584,0,0,1,1.247-1.53,4.537,4.537,0,0,1,2.379,0,1.445,1.445,0,0,1,1.108,1,2.465,2.465,0,0,1-.1.773,13.6,13.6,0,0,0-1.6-1,1.845,1.845,0,0,0-1.834.253c-.026.158-.062.374-.09.535.125.135.175.249.251.268.5.129,1,.24,1.505.357a10.721,10.721,0,0,1,1.369.333,1.266,1.266,0,0,1,.866,1.185,1.377,1.377,0,0,1-.728,1.424,3.94,3.94,0,0,1-3.677.006,1.223,1.223,0,0,1-.742-.974C-4548.845-5518.621-4548.686-5518.816-4548.557-5519.125Z" transform="translate(4760.682 5562.672)"/><path d="M-4956.421-5520.965a2.2,2.2,0,0,0-3.035-.678c-.018.243-.034.464-.05.66a3.111,3.111,0,0,0,1.643.536,5.861,5.861,0,0,1,1.5.358,1.441,1.441,0,0,1,.182,2.535,4.06,4.06,0,0,1-3.917-.045c-.375-.277-.438-.413-.56-1.2.233-.284.552-.28.717-.016.618.993,1.562.938,2.517.842.517-.052.6-.179.874-.927-.2-.448-.614-.525-1.039-.592-.6-.1-1.223-.149-1.812-.3a1.4,1.4,0,0,1-1.232-1.354,1.563,1.563,0,0,1,1.155-1.456,4.3,4.3,0,0,1,2.647.037,1.4,1.4,0,0,1,.949.976C-4955.8-5521.276-4955.882-5521.026-4956.421-5520.965Z" transform="translate(5114.054 5562.7)"/><path d="M-5021.462-5519.806a2.689,2.689,0,0,1,2.473-2.772,5.341,5.341,0,0,1,.988-.013,2.7,2.7,0,0,1,2.607,2.5,2.711,2.711,0,0,1-2.128,3.055,3.31,3.31,0,0,1-1.809,0A2.605,2.605,0,0,1-5021.462-5519.806Zm3.023,2.031a1.976,1.976,0,0,0,2.078-2.012,1.977,1.977,0,0,0-2.051-2.037,1.98,1.98,0,0,0-2.076,2.018A1.963,1.963,0,0,0-5018.438-5517.774Z" transform="translate(5166.227 5562.541)"/><path d="M-4814.347-5522.272c.293.1.585.2.691.24a17.075,17.075,0,0,1,2.367-.35,1.8,1.8,0,0,1,1.961,1.8,11.272,11.272,0,0,1,.031,1.271c0,.7,0,1.4,0,2.164l-.667.163c-.386-.413-.281-.856-.292-1.269-.021-.708.015-1.415-.032-2.12a1.184,1.184,0,0,0-1.022-1.184,1.752,1.752,0,0,0-2.317,1.573c-.045.515-.011,1.035-.028,1.554a2.1,2.1,0,0,1-.3,1.405c-.129.017-.3.037-.518.06a1.655,1.655,0,0,1-.221-.537q0-2.184.059-4.372C-4814.628-5521.99-4814.477-5522.1-4814.347-5522.272Z" transform="translate(4988.804 5562.346)"/><path d="M-4491.043-5801.141a2.205,2.205,0,0,1-2.195,2.279,2.239,2.239,0,0,1-2.206-2.146,2.183,2.183,0,0,1,2.146-2.337A2.128,2.128,0,0,1-4491.043-5801.141Zm-2.919-1.442a1.615,1.615,0,0,0-.766,2.328,1.552,1.552,0,0,0,.951.786,1.188,1.188,0,0,0,1.328-.242l-.951-1.086c-.174.354-.293.592-.473.96a3.337,3.337,0,0,1-.1-2.764c.588.1,1.242,0,1.763.631-.062.381-.133.83-.217,1.354.147.137.325.3.532.5a1.529,1.529,0,0,0-.052-2.145A1.453,1.453,0,0,0-4493.962-5802.583Zm1.268.86c-.409-.257-.689-.371-.884.091C-4493.266-5801.247-4493.02-5801.292-4492.695-5801.723Z" transform="translate(4714.877 5803.429)"/><path d="M-4634.131-5528.623l-.653-.087a5.214,5.214,0,0,1-.149-.846q-.018-2.621,0-5.242a1.912,1.912,0,0,1,.151-.82c.075-.151.343-.206.625-.358a4.92,4.92,0,0,1,.277.882A28.773,28.773,0,0,1-4634.131-5528.623Z" transform="translate(4834.572 5574.011)"/><path d="M-5046.544-5527.905l-.583.09c-.086-.159-.206-.279-.207-.4q-.033-3.118-.031-6.236a2.06,2.06,0,0,1,.163-.549h.542A30.845,30.845,0,0,1-5046.544-5527.905Z" transform="translate(5188.454 5573.176)"/></g></svg>