<svg xmlns="http://www.w3.org/2000/svg" width="60" height="60" viewBox="0 0 60 60">
  <g id="Group_6184" data-name="Group 6184" transform="translate(-458.619 -458.558)">
    <path id="Path_4498" data-name="Path 4498" d="M467.406,509.771a30,30,0,1,1,21.213,8.787A29.8,29.8,0,0,1,467.406,509.771Zm-5.257-21.213a26.471,26.471,0,1,0,26.471-26.471A26.5,26.5,0,0,0,462.148,488.558Z" transform="translate(0 0)" fill="#8b9091"/>
    <path id="Path_4499" data-name="Path 4499" d="M867.095,1826.034a.718.718,0,0,0-.652.459l-1.983,4.945-1.985-4.949a.716.716,0,0,0-.65-.455.665.665,0,0,0-.69.7.748.748,0,0,0,.048.261l2.344,5.685a.9.9,0,0,0,.828.592h.208a.9.9,0,0,0,.831-.6l2.342-5.68a.749.749,0,0,0,.047-.259A.665.665,0,0,0,867.095,1826.034Zm6.407,1.38a.659.659,0,0,0,.671-.661.672.672,0,0,0-.671-.671h-3.8a.7.7,0,0,0-.69.7v5.754a.691.691,0,0,0,.69.69h3.8a.659.659,0,0,0,.671-.661.672.672,0,0,0-.671-.671h-3.1v-1.578h2.76a.659.659,0,0,0,.671-.661.672.672,0,0,0-.671-.671H870.4v-1.568Zm7.364,1.654H879a.652.652,0,0,0,0,1.3h1.3v1.292a3.178,3.178,0,0,1-1.4.315,2.169,2.169,0,0,1-2.315-2.315,2.147,2.147,0,0,1,2.267-2.315,3.219,3.219,0,0,1,1.724.494l.017.009a.7.7,0,0,0,.317.075.65.65,0,0,0,.661-.652.658.658,0,0,0-.317-.567,4.347,4.347,0,0,0-2.5-.72,3.667,3.667,0,0,0,.028,7.332,5.076,5.076,0,0,0,2.284-.557.9.9,0,0,0,.51-.825v-2.152A.711.711,0,0,0,880.866,1829.068Zm5.881-2.485a.853.853,0,0,0-.792-.548h-.095a.853.853,0,0,0-.792.549l-2.417,5.705a.756.756,0,0,0-.069.293.667.667,0,0,0,.69.69.7.7,0,0,0,.651-.427l.548-1.316h2.872l.551,1.322a.692.692,0,0,0,.648.422.667.667,0,0,0,.69-.69.754.754,0,0,0-.068-.292Zm-1.724,3.632.885-2.131.885,2.131Zm11.046-4.18a.7.7,0,0,0-.69.7v4.276l-3.17-4.577-.009-.012a.924.924,0,0,0-.729-.386h-.123a.885.885,0,0,0-.879.889v5.659a.695.695,0,0,0,1.389,0V1828.3l3.194,4.614a.886.886,0,0,0,.713.361h.114a.885.885,0,0,0,.889-.879v-5.659A.7.7,0,0,0,896.068,1826.034Z" transform="translate(-390.92 -1328.036)" fill="#8b9091"/>
    <path id="Path_4500" data-name="Path 4500" d="M1064.454,851.926a.37.37,0,0,0-.427-.24c-1.628.349-9.1,2.233-11.743,7.894-2.249,4.824-.235,9.81.632,11.577a.14.14,0,0,0,.26-.022c2.919-9.745,7.887-14.075,7.887-14.075a83.643,83.643,0,0,0-6.823,14.6.14.14,0,0,0,.159.186c1.879-.379,6.96-2.039,9.527-6.486C1067.007,860.023,1064.974,853.406,1064.454,851.926Zm-20.156,2.229a95.111,95.111,0,0,0,6.44,14.4.085.085,0,0,0,.157-.062,13.43,13.43,0,0,1,.526-9.314,11.376,11.376,0,0,1,1.562-2.453.627.627,0,0,0,.069-.7c-3.066-5.672-9.583-8.3-10.913-8.792a.3.3,0,0,0-.363.137c-.784,1.453-4.958,9.765-1.809,16.519,2.648,5.678,8.7,7.6,10.879,8.13a.14.14,0,0,0,.148-.214C1044.443,861.867,1044.3,854.155,1044.3,854.155Z" transform="translate(-563.474 -377.462)" fill="#8b9091"/>
  </g>
</svg>
