<svg xmlns="http://www.w3.org/2000/svg" width="245.583" height="101.813" viewBox="0 0 245.583 101.813"><g transform="translate(-2281.734 380.863)"><g transform="translate(2281.734 -380.863)"><path d="M2426.807-380.863c1.169.255,2.341.5,3.506.766,7.788,1.8,12.574,6.649,14.152,14.405a111.746,111.746,0,0,1,1.473,11.851,69.236,69.236,0,0,1,.337,8.34c-.181,6.618-.637,13.184-2.521,19.63-2.319,7.937-7.528,12.221-15.537,13.478a34.343,34.343,0,0,1-13.928-.5c-6.491-1.651-10.923-5.539-12.948-12.02a52.612,52.612,0,0,1-2.21-11.959c-.328-4.575-.514-9.179-.394-13.762a60.421,60.421,0,0,1,2-15.4c2.44-8.4,7.94-13.253,16.618-14.528a4.193,4.193,0,0,0,.831-.307Zm5.917,36.121c-.251-7.033-.445-12.156-1.525-17.185-1.066-4.962-3.49-7.025-8.376-7.305-4.28-.245-7.288,1.8-8.579,5.858a14.875,14.875,0,0,0-.5,1.97,102.578,102.578,0,0,0-1.259,15.747,44.455,44.455,0,0,0,.335,5.861c.361,3.136.689,6.291,1.333,9.376.939,4.5,3.046,6.419,7.545,6.779,4.238.339,7.719-1.2,9.184-5.966a9.588,9.588,0,0,0,.415-1.754C2431.855-336.447,2432.385-341.534,2432.724-344.742Z" transform="translate(-2345.518 380.863)" fill="#fff"/><path d="M2759.784-348.15c-1.609,2.075-3.259,4.119-4.821,6.229q-22.624,30.559-45.225,61.135a4.077,4.077,0,0,1-1.706,1.473l23-52.34c-.827-2.03-1.284-2.318-3.283-1.863-2.722.62-5.424,1.328-8.135,2-1.832.451-3.662.912-5.5,1.335a17.2,17.2,0,0,1-1.75.225c.023-1.737,15.112-45.941,16.705-49.022h22.387c-.261.9-.432,1.666-.706,2.4q-5.027,13.437-10.081,26.863c-.185.493-.4.976-.565,1.476-.785,2.43.149,3.552,2.627,3.1,1.632-.3,3.246-.7,4.867-1.049,3.537-.772,7.072-1.553,10.614-2.3a10.517,10.517,0,0,1,1.572-.1Z" transform="translate(-2514.2 379.838)" fill="#fff"/><path d="M2281.734-312.5v-67.186c.745-.061,1.4-.161,2.057-.162,8.093-.011,16.187-.06,24.279.028a29.1,29.1,0,0,1,6.5.771c5.346,1.3,8.615,4.836,9.884,10.109a28.054,28.054,0,0,1-.034,12.783,11.779,11.779,0,0,1-7.468,9c.987.323,1.752.512,2.467.816a11.013,11.013,0,0,1,6.7,7.747,28.785,28.785,0,0,1-.479,16.693,13.789,13.789,0,0,1-13.221,9.552c-9.681.059-19.363.019-29.045.01C2282.864-312.334,2282.354-312.432,2281.734-312.5Zm13.323-10.877c4.324,0,8.4.062,12.472-.024a4.557,4.557,0,0,0,4.5-3.507,15.818,15.818,0,0,0-.222-10.4,4.623,4.623,0,0,0-3.786-3.172,15.3,15.3,0,0,0-2.242-.27c-3.1-.03-6.2-.018-9.3-.006-.437,0-.873.091-1.422.152Zm-.049-27.978c3.762,0,7.293.058,10.82-.019,2.678-.058,4.167-1.294,4.8-3.929a17.976,17.976,0,0,0,.248-8.045c-.81-3.788-2.294-5.123-6.179-5.208-2.715-.059-5.433-.025-8.151,0a10.142,10.142,0,0,0-1.535.249Z" transform="translate(-2281.734 380.32)" fill="#fff"/><path d="M2614-312.767V-367.4h-14.657c-.1-4.2-.163-8.138.053-12.021,2.006-.546,40.452-.577,42.564-.056v11.906c-2.407.234-4.8.083-7.184.11-2.331.026-4.661.005-7.215.005v54.712C2625.472-312.153,2615.918-312.171,2614-312.767Z" transform="translate(-2454.88 380.313)" fill="#fff"/><path d="M2538.486-324.224h23.375v11.77h-36.5c-.482-1.64-.607-64.513-.1-67.339,4.275-.079,8.6-.141,13.22.062v55.507Z" transform="translate(-2414.356 380.32)" fill="#fff"/><path d="M2418.436-183.844v-21.729c3.159-.016,6.215-.36,9.26.238a3.772,3.772,0,0,1,3.093,3.46c.361,2.442.255,4.821-1.605,6.756,3.478,2.263,3.161,5.967,2.278,8.4a3.965,3.965,0,0,1-3.725,2.83c-2.334.088-4.674.035-7.011.042C2420.058-183.843,2419.39-183.844,2418.436-183.844Zm2.071-2c2.071,0,3.946.022,5.82-.006,2.083-.031,2.9-.626,3.217-2.68a10.306,10.306,0,0,0-.219-3.309,2.283,2.283,0,0,0-2.249-1.9c-2.157-.106-4.323-.031-6.568-.031Zm.009-9.959c1.727,0,3.225.009,4.722,0,2.461-.017,3-.448,3.359-2.912a9.18,9.18,0,0,0-.09-2.433,2.505,2.505,0,0,0-2.558-2.376c-1.776-.085-3.559-.02-5.434-.02Z" transform="translate(-2356.28 285.337)" fill="#fff"/><path d="M2548.258-205.345a6.9,6.9,0,0,1,1.178-.15,6.464,6.464,0,0,1,1.1.327v2.427c0,4.368-.01,8.736,0,13.1.008,2.318.549,3.241,2.133,3.773,2.054.691,5.028.215,5.9-1.151a5.075,5.075,0,0,0,.616-2.552c.059-4.367.027-8.736.028-13.1v-2.575l1.863-.27c.173.331.363.524.364.719.029,5.5.094,10.994.023,16.489a4.5,4.5,0,0,1-3.047,4.134,8.944,8.944,0,0,1-7.254-.052,4.354,4.354,0,0,1-2.869-4.012C2548.2-193.874,2548.258-199.513,2548.258-205.345Z" transform="translate(-2427.063 285.244)" fill="#fff"/><path d="M2508.034-205.285h2.642l6.257,21.436-2.117.24-1.73-5.354h-7.8l-1.71,5.175h-2.2Zm4.483,14.1c-1.044-3.647-2.07-7.229-3.206-11.194l-3.408,11.194Z" transform="translate(-2401.51 285.118)" fill="#fff"/><path d="M2466.234-193.911v8.012h9.307c.063.734.1,1.216.145,1.684-1.7.461-8.587.55-11.293.171-.431-1.61-.568-17.966-.177-21.12,1.494-.571,8.366-.7,11.278-.189v1.866h-9.205v7.645h8.763v1.932Z" transform="translate(-2381.117 285.331)" fill="#fff"/><path d="M2630.211-205.4h2.23l5.612,11.573,5.919-11.56,1.844-.087c.019.32.108.557.031.713-1.782,3.646-3.534,7.308-5.4,10.911a9.614,9.614,0,0,0-1.213,5.17c.1,1.554.02,3.119.02,4.785l-1.986.133a2.4,2.4,0,0,1-.3-.7c-.035-1.428-.126-2.863-.03-4.284a8.952,8.952,0,0,0-1.111-4.74c-1.754-3.493-3.41-7.035-5.1-10.561C2630.576-204.372,2630.469-204.725,2630.211-205.4Z" transform="translate(-2471.763 285.222)" fill="#fff"/><path d="M2598.55-183.8a9.321,9.321,0,0,1-1.219.157,6.806,6.806,0,0,1-1.015-.2v-19.233l-5.8-.222v-1.964h13.605c.093.529.187,1.064.336,1.906l-5.827.274c-.178,3.24-.057,6.449-.079,9.65C2598.533-190.289,2598.55-187.139,2598.55-183.8Z" transform="translate(-2450.119 285.109)" fill="#fff"/></g></g></svg>