<svg xmlns="http://www.w3.org/2000/svg" width="315.232" height="92.138" viewBox="0 0 315.232 92.138"><g transform="translate(-512.864 3966.171)"><g transform="translate(512.864 -3966.171)"><path d="M3169.079-3467.243c-.273-.048-.544-.1-.818-.145a24.241,24.241,0,0,1-6.862-2.243,72.761,72.761,0,0,1-7.532-4.266c-4.386-2.755-8.841-5.394-13.443-7.778a60.751,60.751,0,0,0-5.922-2.768,17.75,17.75,0,0,0-6.757-1.271,15.026,15.026,0,0,0-3.531.516c-.88.227-1.768.427-2.649.65a5.366,5.366,0,0,1-2.966-.193c-.485-.152-.586-.428-.294-.854q.934-1.357,1.9-2.69c1.8-2.458,3.633-4.89,5.4-7.368a42.72,42.72,0,0,0,4.236-7.32,19.844,19.844,0,0,0,1.583-5.492,17.544,17.544,0,0,0,.106-4.223c-.027-.248-.072-.494-.115-.779-.158.038-.307.066-.451.108a45.552,45.552,0,0,1-6.5,1.5c-1.24.179-2.5.267-3.746.359a3.287,3.287,0,0,1-1.068-.126.658.658,0,0,1-.428-1.059,2.838,2.838,0,0,1,1.365-1.184,4.088,4.088,0,0,1,1.594-.38,18.682,18.682,0,0,0,4.223-.66c1.758-.464,3.5-1,5.249-1.484.74-.206,1.485-.4,2.238-.544a5.954,5.954,0,0,1,1.261-.074,1.26,1.26,0,0,1,1.271.938,14.3,14.3,0,0,1,.468,1.963,19.639,19.639,0,0,1,.1,4.975,19.419,19.419,0,0,1-1.352,5.314,34.8,34.8,0,0,1-3.388,6.23c-2.038,3.057-4.205,6.024-6.414,8.959-.112.149-.221.3-.382.516.294-.027.518-.036.737-.07a27.278,27.278,0,0,1,5.4-.357,19.607,19.607,0,0,1,4.295.79,30.409,30.409,0,0,1,8.813,4.166c2.2,1.455,4.371,2.953,6.564,4.418a73.085,73.085,0,0,0,9.888,5.635,33.034,33.034,0,0,0,6.317,2.276,14.456,14.456,0,0,0,3.824.438,14.021,14.021,0,0,0,4.749-1.073,14.626,14.626,0,0,0,5.177-3.441c.381-.4.794-.763,1.154-1.177a3.362,3.362,0,0,1,3.027-1.062,10.865,10.865,0,0,1,1.3.235,2.358,2.358,0,0,1,.492.152.577.577,0,0,1,.239.987q-.571.688-1.181,1.345a24.341,24.341,0,0,1-4.524,3.965,21.712,21.712,0,0,1-7.181,3.2c-.749.162-1.517.238-2.276.357-.119.019-.234.057-.351.085Z" transform="translate(-2872.377 3559.381)" fill="#fff"/><path d="M528.937-3819.837c-.453-.493-.857-.951-1.28-1.39a12.866,12.866,0,0,1-3.337-6.732,14.065,14.065,0,0,1-.142-2.765,19.422,19.422,0,0,1,.676-5.256,23.851,23.851,0,0,1,2.054-4.838,24.692,24.692,0,0,1,4.588-6.058,27.544,27.544,0,0,1,6.163-4.376,20.312,20.312,0,0,1,5.521-2.1,19.793,19.793,0,0,1,3.262-.436c.767-.024,1.536-.019,2.3-.006a9.164,9.164,0,0,1,3.716.926,13.867,13.867,0,0,1,4.491,3.209,9.163,9.163,0,0,1,1.811,2.844q.96,2.451,1.878,4.918a4.806,4.806,0,0,1,.355,1.648.666.666,0,0,1-.479.722,9.025,9.025,0,0,1-1.227.312,3.8,3.8,0,0,1-3.5-1.054,1.685,1.685,0,0,1-.484-.893c-.175-.908-.347-1.817-.554-2.718a10.578,10.578,0,0,0-.951-2.548,6.583,6.583,0,0,0-4.466-3.4,7.963,7.963,0,0,0-4.047.047,19.384,19.384,0,0,0-9.3,5.441,22.25,22.25,0,0,0-5.558,10.521,27.962,27.962,0,0,0-.7,6.677,8.088,8.088,0,0,0,1.116,4.221,5.688,5.688,0,0,0,1.955,1.979c1.05-.189,2.081-.385,3.115-.559a12.985,12.985,0,0,1,3.045-.243,4.052,4.052,0,0,1,.652.084c.778.183,1.567.337,2.324.587a9.73,9.73,0,0,1,1.605.77,2.268,2.268,0,0,1,.594.529.57.57,0,0,1-.086.933,2.644,2.644,0,0,1-.47.313,12.665,12.665,0,0,1-5.3,1.482,11.051,11.051,0,0,1-3.256-.429c-.151-.04-.3-.083-.472-.13a35.666,35.666,0,0,0-3.886,1.515,29.759,29.759,0,0,0-4.716,2.642,19.1,19.1,0,0,0-4.964,5.356,15.711,15.711,0,0,0-2.007,4.338,13.64,13.64,0,0,0-.494,5.077,12.513,12.513,0,0,0,1.682,5.049,19.908,19.908,0,0,0,3.011,3.966,14.45,14.45,0,0,0,3.685,2.671,20.5,20.5,0,0,0,5.744,2.036,16.821,16.821,0,0,0,4.783.169,16.407,16.407,0,0,0,4.7-1.12,18.664,18.664,0,0,0,5.749-3.7,51.25,51.25,0,0,0,8.12-9.806,39.629,39.629,0,0,0,2.97-5.976c.318-.75.635-1.5.941-2.257a1.544,1.544,0,0,1,1.737-1.072,6.768,6.768,0,0,1,2.4.611,7.362,7.362,0,0,1,.818.509,3.256,3.256,0,0,0,.024-.328c-.034-1.678-.052-3.358-.114-5.035-.045-1.222-.148-2.441-.229-3.661a.9.9,0,0,1,.639-1.068,4.7,4.7,0,0,1,2.166-.351,9.593,9.593,0,0,1,1.433.246,1.756,1.756,0,0,1,.55.256,1.168,1.168,0,0,1,.553.937c.027.343.072.685.116,1.09.106-.13.184-.216.252-.309a9.563,9.563,0,0,1,2.1-2.213,6.706,6.706,0,0,1,1.229-.684,3.992,3.992,0,0,1,2.089-.157,7.431,7.431,0,0,1,3.66,1.609c1.635,1.227,3.172,2.57,4.693,3.933,1.122,1.006,2.254,2,3.362,3.023a16.55,16.55,0,0,0,4.49,2.9c.713.321,1.424.647,2.18.991.106-.192.194-.352.281-.512a46.178,46.178,0,0,1,4.147-6.447,15.147,15.147,0,0,1,2.8-2.91,26.409,26.409,0,0,1,4.365-2.687,9.4,9.4,0,0,1,4.009-.893,12.975,12.975,0,0,1,4.54.66,8.85,8.85,0,0,1,2.85,1.616,5.427,5.427,0,0,1,1.78,2.819,8.144,8.144,0,0,1,.283,2.467,4.962,4.962,0,0,1-1.355,3.181,11.637,11.637,0,0,1-4.225,2.84,23.17,23.17,0,0,1-4.705,1.307c-1.84.331-3.7.515-5.559.682a36.729,36.729,0,0,1-3.761.188c-.093,0-.186.011-.312.02-.279.517-.567,1.037-.843,1.564a24.248,24.248,0,0,0-1.923,4.59,8.959,8.959,0,0,0,4.464,10.348,9.245,9.245,0,0,0,3.7.989c1,.068,2,.144,3.008.165a21.554,21.554,0,0,0,2.21-.089,28.172,28.172,0,0,0,7.539-1.749,18.906,18.906,0,0,0,4.994-2.694,6.468,6.468,0,0,1,2.567-1.231,4.262,4.262,0,0,1,2.364.14,10.582,10.582,0,0,1,1.01.381,1.222,1.222,0,0,1,.468.374.553.553,0,0,1-.044.7,3.831,3.831,0,0,1-.61.582,17.2,17.2,0,0,1-3.023,1.721,44.76,44.76,0,0,1-11.079,3.554c-1.48.27-2.981.425-4.476.6a42.322,42.322,0,0,1-5.83.275,23.332,23.332,0,0,1-6.6-.937,9.588,9.588,0,0,1-5.068-3.568,8.855,8.855,0,0,1-1.587-4.029,14.272,14.272,0,0,1,.535-5.907c.562-1.993,1.242-3.946,1.964-5.885.032-.087.06-.176.109-.318-.333-.061-.65-.125-.969-.178-.665-.111-1.334-.206-2-.328a8.915,8.915,0,0,1-2.692-1.089,33.45,33.45,0,0,1-6.439-4.728,37.119,37.119,0,0,0-3.836-3.264,6.1,6.1,0,0,0-1.348-.776,4.711,4.711,0,0,0-.759,1.249,25.437,25.437,0,0,0-2.17,6.93,19.326,19.326,0,0,0-.222,2.717c-.026,1.837,0,3.674.02,5.511.011,1.208.074,2.417.057,3.624a28.774,28.774,0,0,1-.827,6.942,9.9,9.9,0,0,1-.727,1.981,1.765,1.765,0,0,1-1.162.948,4.86,4.86,0,0,1-3.311-.2,1.881,1.881,0,0,1-1.21-1.755c-.05-1.034-.076-2.069-.113-3.1-.048-1.364-.1-2.728-.144-4.091-.021-.627-.026-1.255-.045-1.883-.05-1.63-.11-3.26-.154-4.891-.023-.847-.017-1.7-.036-2.543a16.307,16.307,0,0,0-.128-1.838c-.174.41-.344.821-.524,1.228a52.908,52.908,0,0,1-3.3,6.546,51.047,51.047,0,0,1-4.281,5.9c-.908,1.082-1.827,2.159-2.8,3.18a23.677,23.677,0,0,1-6.417,4.648,22.519,22.519,0,0,1-5.768,2.117c-.812.166-1.644.244-2.47.332a18.14,18.14,0,0,1-3.293-.008,21.788,21.788,0,0,1-6.6-1.4,36.182,36.182,0,0,1-3.252-1.592,42.3,42.3,0,0,1-6.737-4.389,17.881,17.881,0,0,1-5.279-6.646,12.665,12.665,0,0,1-1.183-5.988,12.039,12.039,0,0,1,.9-3.687,24.424,24.424,0,0,1,2.843-5.133,31.63,31.63,0,0,1,4.106-4.78,18.555,18.555,0,0,1,4.024-2.853c1.187-.637,2.414-1.2,3.623-1.8C528.543-3819.666,528.715-3819.737,528.937-3819.837Zm71.826,13.219c.048.023.076.048.1.046.109-.011.217-.028.325-.049a47.845,47.845,0,0,0,5.326-1.364,28.579,28.579,0,0,0,4.337-1.674,7.165,7.165,0,0,0,2.493-1.965,1.545,1.545,0,0,0,.371-.847,5.455,5.455,0,0,0-.884-3.3,1.849,1.849,0,0,0-2.044-.832,5.02,5.02,0,0,0-2.043.919,19.676,19.676,0,0,0-3.687,3.414c-1.438,1.705-2.763,3.5-4.069,5.3C600.908-3806.858,600.839-3806.737,600.763-3806.618Z" transform="translate(-512.864 3864.402)" fill="#fff"/><path d="M2205.012-3499.843a17.337,17.337,0,0,0,1.809,5,12.768,12.768,0,0,0,5.277,5.032,6.2,6.2,0,0,0,3.986.569,15.782,15.782,0,0,0,8.855-4.819,35.191,35.191,0,0,0,2.9-3.339,21.587,21.587,0,0,0,3.2-6.361c.74-2.268,1.263-4.592,1.787-6.916.21-.932.427-1.864.657-2.791a4.3,4.3,0,0,1,.3-.789,1.84,1.84,0,0,1,1.765-1.114,5.525,5.525,0,0,1,2.676.627c.124.065.246.135.36.2.525-.445,1.023-.9,1.554-1.311a7.6,7.6,0,0,1,3.056-1.512,5.022,5.022,0,0,1,4.325.891c.864.676,1.68,1.417,2.485,2.164a72.661,72.661,0,0,0,8.853,6.937c.091.061.183.121.278.176.022.013.059,0,.127,0,.053-.121.116-.26.175-.4a25.371,25.371,0,0,1,3.008-5.525,12.823,12.823,0,0,1,6.9-4.733,8.963,8.963,0,0,1,4.472,0,10.5,10.5,0,0,1,4.048,1.7,6.7,6.7,0,0,1,1.092,1.027,3.57,3.57,0,0,1,.7,2.839,6.764,6.764,0,0,1-2.391,4.353,21.9,21.9,0,0,1-8.6,4.888,25.043,25.043,0,0,1-4.4.98c-.152.017-.3.054-.443.08,0,.621-.018,1.214,0,1.806a17.963,17.963,0,0,0,1.438,6.769A19.446,19.446,0,0,0,2278.2-3482.1a13.978,13.978,0,0,0,10.408-1.214,18.481,18.481,0,0,0,1.873-1.085,3.482,3.482,0,0,1,2.775-.557,9.362,9.362,0,0,1,2.406.785c.056.029.112.057.165.091a.661.661,0,0,1,.157,1.079,2.787,2.787,0,0,1-.5.431,17.315,17.315,0,0,1-2.881,1.588,33.59,33.59,0,0,1-6.833,2.363,17.435,17.435,0,0,1-4.77.38,34.54,34.54,0,0,1-6.73-1.054,17.8,17.8,0,0,1-7.22-3.812,31.217,31.217,0,0,1-5.586-6.344,20.384,20.384,0,0,1-3-7.409,22.379,22.379,0,0,1-.428-4.677c.006-.436.043-.872.067-1.315-.562-.2-1.1-.365-1.621-.583-.88-.372-1.756-.757-2.616-1.175a12.015,12.015,0,0,1-3.791-3.049c-.73-.841-1.444-1.705-2.249-2.472-1.033-.984-2.148-1.883-3.232-2.813-.153-.131-.333-.232-.529-.368-.055.071-.106.13-.152.194a17.469,17.469,0,0,0-2.618,5.079,12.035,12.035,0,0,0-.459,3.109,46.638,46.638,0,0,0,.237,5.545c.1,1.219.192,2.441.237,3.663.053,1.442.093,2.886.061,4.328a13.2,13.2,0,0,1-.637,3.887,5.941,5.941,0,0,1-.58,1.225,1.775,1.775,0,0,1-1.5.844,5.085,5.085,0,0,1-2.294-.426,3.278,3.278,0,0,1-1.64-1.745,7.008,7.008,0,0,1-.577-2.317,19.369,19.369,0,0,1,.163-4.5c.215-1.521.487-3.033.731-4.55a1.122,1.122,0,0,0,0-.421c-.263.543-.518,1.09-.79,1.628a21.066,21.066,0,0,1-5.289,6.61,27.47,27.47,0,0,1-3.743,2.771,14.815,14.815,0,0,1-5.607,1.948,25.009,25.009,0,0,1-4.935.1,14.465,14.465,0,0,1-5.515-1.455,16.784,16.784,0,0,1-4.284-3.042,19.012,19.012,0,0,1-2.786-3.247,17.654,17.654,0,0,1-2.371-5.853,20.416,20.416,0,0,1-.5-4.291,13.038,13.038,0,0,1,.846-4.554,16.891,16.891,0,0,1,2.43-4.335,32,32,0,0,1,3.339-3.77,10.333,10.333,0,0,1,2.823-1.855,13.792,13.792,0,0,1,4.494-1.319,9.911,9.911,0,0,1,5.144.848,8.189,8.189,0,0,1,3.351,2.6,5.918,5.918,0,0,1,1.195,3.217,10.747,10.747,0,0,1-.846,4.727,14.221,14.221,0,0,1-4.941,6.166,15.8,15.8,0,0,1-6.814,2.926,11.359,11.359,0,0,1-4.49-.108C2205.53-3499.743,2205.3-3499.783,2205.012-3499.843Zm0-2.828a10.149,10.149,0,0,0,4.716-.338,11.7,11.7,0,0,0,4.55-2.834,8.933,8.933,0,0,0,2.281-3.354,16.12,16.12,0,0,0,.861-3.265,4.337,4.337,0,0,0-.571-2.987,2.415,2.415,0,0,0-2.936-1.177,7.746,7.746,0,0,0-2.449,1.166,15.565,15.565,0,0,0-2.386,2.053,15.06,15.06,0,0,0-3.079,4.579,13.251,13.251,0,0,0-.977,4.1C2204.969-3504.065,2205.016-3503.39,2205.016-3502.67Zm59.535-2.914c.306,0,.507,0,.708,0a8.927,8.927,0,0,0,4.013-1.035,11.985,11.985,0,0,0,4.224-3.661,3.854,3.854,0,0,0,.693-1.629,1.642,1.642,0,0,0-1.509-1.981,5.239,5.239,0,0,0-1.862.165,6.061,6.061,0,0,0-3.193,2.2,16.182,16.182,0,0,0-2.444,4.264C2264.971-3506.74,2264.786-3506.211,2264.551-3505.584Z" transform="translate(-2040.143 3562.194)" fill="#fff"/><path d="M1881.62-3921.55c-.875-.384-1.716-.73-2.536-1.118-1.106-.522-2.2-1.068-3.291-1.622a7.257,7.257,0,0,1-.949-.61,1.532,1.532,0,0,1-.381-.41.61.61,0,0,1,.28-.937,2.224,2.224,0,0,1,.582-.174,10.377,10.377,0,0,1,3.141.1,3.379,3.379,0,0,1,1.286.559c.529.337,1.067.66,1.6.982a2.914,2.914,0,0,0,.378.155c.035-.823.063-1.6.1-2.385q.119-2.279.25-4.557c.066-1.159.127-2.318.21-3.475.1-1.454.225-2.908.348-4.362q.141-1.665.309-3.327c.128-1.248.255-2.5.414-3.741.188-1.461.389-2.922.622-4.377.34-2.12.672-4.243,1.088-6.349.482-2.444,1.052-4.871,1.583-7.306.043-.2.086-.4.121-.6a1.1,1.1,0,0,1,.869-.947,3.821,3.821,0,0,1,1.115-.116,5.282,5.282,0,0,1,3.212,1.294,37.776,37.776,0,0,1,3.515,3.473,81.167,81.167,0,0,1,6.544,8.621c1.718,2.515,3.4,5.051,4.859,7.727a36.245,36.245,0,0,1,3.124,7.341,18.963,18.963,0,0,1,.736,6.466,17.352,17.352,0,0,1-3.182,9.309,13.38,13.38,0,0,1-8.575,5.507,24.679,24.679,0,0,1-4.671.52c-.844,0-1.688-.121-2.532-.187-.044,0-.088,0-.167,0-.058.624-.117,1.246-.172,1.868-.19,2.156-.375,4.313-.567,6.469-.163,1.828-.325,3.656-.5,5.482-.212,2.17-.437,4.338-.663,6.507q-.273,2.62-.561,5.239c-.2,1.839-.42,3.678-.624,5.517q-.259,2.339-.5,4.679a1.087,1.087,0,0,1-1.194,1.115,3.931,3.931,0,0,1-.977-.114,6.917,6.917,0,0,1-2.256-1.033,4.752,4.752,0,0,1-.5-.429,1.147,1.147,0,0,1-.352-.84c-.066-1.5-.155-3.006-.237-4.51-.034-.611-.075-1.221-.11-1.831-.077-1.331-.149-2.662-.227-3.993-.107-1.848-.223-3.694-.323-5.542q-.092-1.692-.146-3.384c-.042-1.255-.082-2.51-.094-3.764q-.047-5.063-.067-10.125c0-.675.014-1.35.021-2.025q.022-2.1.042-4.191C1881.621-3921.172,1881.62-3921.344,1881.62-3921.55Zm10.207-.572a19.3,19.3,0,0,0,4.087.2,11.048,11.048,0,0,0,3.875-.9,7.492,7.492,0,0,0,4.389-4.922,15.057,15.057,0,0,0,.44-5.825,25.98,25.98,0,0,0-1.253-5.632,59.988,59.988,0,0,0-2.858-6.851,39.47,39.47,0,0,0-2.573-4.753,104.366,104.366,0,0,0-6.226-8.392c-.156-.192-.317-.38-.505-.607a201.1,201.1,0,0,0-3.9,29.213c.4-.047.758-.1,1.115-.129a4.653,4.653,0,0,1,2.307.322,1.943,1.943,0,0,1,1.282,1.9c.006.893.022,1.786.01,2.678-.008.611-.056,1.221-.088,1.832S1891.862-3922.767,1891.827-3922.122Z" transform="translate(-1745.911 3966.171)" fill="#fff"/></g></g></svg>